<svg version="1.1" id="Layer_1" xmlns="http://www.w3.org/2000/svg" xmlns:xlink="http://www.w3.org/1999/xlink" x="0px" y="0px"
	 width="100%" viewBox="0 0 430 200" enable-background="new 0 0 430 200" xml:space="preserve">
<path fill="#0A0A0A" opacity="1.000000" stroke="none" 
	d="
M296.000000,201.000000 
	C197.333359,201.000000 99.166725,201.000000 1.000066,201.000000 
	C1.000044,134.333389 1.000044,67.666763 1.000022,1.000111 
	C144.333237,1.000074 287.666473,1.000074 430.999817,1.000037 
	C430.999878,67.666557 430.999878,134.333115 430.999939,200.999832 
	C386.166656,201.000000 341.333344,201.000000 296.000000,201.000000 
M63.693863,163.211731 
	C93.182167,163.211731 122.670464,163.211777 152.158768,163.211655 
	C154.824387,163.211655 157.508179,163.388260 160.146286,163.118530 
	C161.136627,163.017288 162.020889,161.878113 162.953506,161.212128 
	C162.707657,160.787186 162.461807,160.362259 162.215973,159.937317 
	C159.615234,159.937317 157.014496,159.937317 154.032715,159.937317 
	C154.032715,157.971085 154.032730,156.337341 154.032730,154.703598 
	C154.032730,142.708282 153.904404,130.710770 154.109085,118.718956 
	C154.172394,115.009209 153.068054,113.416191 149.303604,113.935982 
	C148.570282,114.037247 147.783722,113.752899 146.879013,113.626457 
	C146.879013,98.674957 146.775238,84.027428 146.953506,69.383331 
	C146.996964,65.814110 146.166840,64.198326 142.299088,64.333382 
	C139.931396,64.416054 136.324249,66.045456 135.937424,61.396614 
	C134.895981,61.660217 133.769089,61.756874 132.836884,62.233936 
	C131.887482,62.719799 131.129669,63.580025 130.287964,64.276329 
	C129.929642,63.280876 129.460220,62.308887 129.243591,61.283501 
	C129.017487,60.213322 129.034866,59.091702 128.943542,57.964546 
	C126.083336,58.473133 126.083336,58.473133 125.306137,64.432823 
	C121.270554,64.432823 117.142502,64.621620 113.040230,64.377472 
	C109.259277,64.152435 107.650070,65.215149 107.872299,69.375481 
	C108.227257,76.020576 108.018204,82.699303 107.917686,89.361847 
	C107.900635,90.492424 107.410263,91.720589 106.813316,92.706810 
	C106.268326,93.607193 105.282257,94.240593 104.490585,94.991661 
	C105.610840,95.398407 106.725868,96.139626 107.852211,96.157234 
	C114.808746,96.266045 121.767830,96.211891 128.798065,96.211891 
	C128.798065,117.654434 128.798065,138.704834 128.798065,159.681381 
	C124.055344,159.681381 119.640526,159.681381 115.250481,159.681381 
	C114.643639,149.281860 114.644554,149.202682 110.829521,149.158737 
	C109.037567,149.138092 105.904747,149.051163 105.676460,149.747406 
	C104.641838,152.902832 104.426483,156.326874 103.892868,159.806427 
	C99.468704,159.806427 95.006081,159.806427 90.213898,159.806427 
	C90.213898,139.516190 90.125229,119.384140 90.378532,99.256393 
	C90.399292,97.606842 93.734512,95.988663 93.737923,94.352173 
	C93.741310,92.727623 90.924217,91.268707 90.359879,89.426041 
	C89.721138,87.340416 90.212555,84.908661 90.212555,82.516212 
	C87.528328,82.229385 85.463013,82.008698 84.248695,81.878937 
	C83.169846,79.237358 82.332481,77.187065 81.495125,75.136772 
	C80.645645,77.315964 79.796165,79.495163 78.814598,82.013184 
	C78.295639,81.919830 76.671631,81.968590 76.541901,81.552017 
	C75.129707,77.017258 73.935257,76.852890 72.491501,81.521790 
	C72.384064,81.869247 71.292366,82.166870 70.722748,82.077309 
	C65.307922,81.225967 65.375504,84.633156 65.389954,88.466888 
	C65.472816,110.457985 65.430252,132.449554 65.430244,154.440964 
	C65.430244,156.194595 65.430244,157.948227 65.430244,159.052185 
	C62.600910,161.425674 57.978260,157.584351 56.685226,163.211700 
	C59.129631,163.211700 60.943283,163.211700 63.693863,163.211731 
M278.076263,79.446243 
	C274.374847,77.328941 270.778900,73.643318 266.952393,73.386024 
	C255.090469,72.588425 243.140900,73.094337 231.117279,73.094337 
	C231.117279,101.081810 231.117279,129.347504 231.117279,157.675003 
	C233.859711,157.675003 236.387802,157.675003 239.206390,157.675003 
	C239.206390,143.881668 239.206390,130.429749 239.206390,116.452950 
	C247.297165,116.452950 255.116760,116.837784 262.882019,116.352692 
	C271.992096,115.783585 278.375732,110.633385 281.993927,102.393372 
	C285.537384,94.323647 284.019012,86.788643 278.076263,79.446243 
M362.457520,151.193100 
	C344.347046,160.607971 327.716461,151.716263 326.810913,131.473770 
	C326.066803,114.840233 326.561554,98.151230 326.510620,81.486786 
	C326.501587,78.525543 326.509338,75.564255 326.509338,72.501701 
	C323.547729,72.501701 321.139252,72.501701 318.450287,72.501701 
	C318.379883,73.903503 318.274048,75.035698 318.273438,76.167938 
	C318.263519,94.501198 318.197510,112.834801 318.289032,131.167618 
	C318.364563,146.292175 326.860748,156.595520 341.785278,158.769730 
	C363.817444,161.979401 376.884308,150.349823 376.118896,130.364517 
	C375.704620,119.547081 376.045135,108.700752 376.045135,97.867455 
	C376.045135,89.390945 376.045135,80.914429 376.045135,72.437920 
	C375.444458,72.285667 374.843781,72.133415 374.243134,71.981155 
	C373.767242,73.489883 372.885895,74.996353 372.877441,76.507683 
	C372.779938,94.007072 372.855255,111.507347 372.796600,129.007080 
	C372.767609,137.661301 370.876678,145.568466 362.457520,151.193100 
M198.999237,131.500000 
	C198.999237,95.051666 198.999237,58.603325 198.999237,22.270689 
	C194.250198,20.792036 195.003433,23.855703 195.003281,26.230356 
	C195.000015,76.878792 194.999542,127.527237 195.009140,178.175674 
	C195.009354,179.309189 195.133438,180.442657 195.193848,181.475159 
	C199.267731,182.961823 199.018295,180.446274 199.013641,177.983597 
	C198.984894,162.822449 198.999222,147.661209 198.999237,131.500000 
z"/>
<path fill="#EEEAEC" opacity="1.000000" stroke="none" 
	d="
M63.225399,163.211716 
	C60.943283,163.211700 59.129631,163.211700 56.685226,163.211700 
	C57.978260,157.584351 62.600910,161.425674 65.430244,159.052185 
	C65.430244,157.948227 65.430244,156.194595 65.430244,154.440964 
	C65.430252,132.449554 65.472816,110.457985 65.389954,88.466888 
	C65.375504,84.633156 65.307922,81.225967 70.722748,82.077309 
	C71.292366,82.166870 72.384064,81.869247 72.491501,81.521790 
	C73.935257,76.852890 75.129707,77.017258 76.541901,81.552017 
	C76.671631,81.968590 78.295639,81.919830 78.814598,82.013184 
	C79.796165,79.495163 80.645645,77.315964 81.495125,75.136772 
	C82.332481,77.187065 83.169846,79.237358 84.248695,81.878937 
	C85.463013,82.008698 87.528328,82.229385 90.212555,82.516212 
	C90.212555,84.908661 89.721138,87.340416 90.359879,89.426041 
	C90.924217,91.268707 93.741310,92.727623 93.737923,94.352173 
	C93.734512,95.988663 90.399292,97.606842 90.378532,99.256393 
	C90.125229,119.384140 90.213898,139.516190 90.213898,159.806427 
	C95.006081,159.806427 99.468704,159.806427 103.892868,159.806427 
	C104.426483,156.326874 104.641838,152.902832 105.676460,149.747406 
	C105.904747,149.051163 109.037567,149.138092 110.829521,149.158737 
	C114.644554,149.202682 114.643639,149.281860 115.250481,159.681381 
	C119.640526,159.681381 124.055344,159.681381 128.798065,159.681381 
	C128.798065,138.704834 128.798065,117.654434 128.798065,96.211891 
	C121.767830,96.211891 114.808746,96.266045 107.852211,96.157234 
	C106.725868,96.139626 105.610840,95.398407 104.490585,94.991669 
	C105.282257,94.240593 106.268326,93.607193 106.813316,92.706810 
	C107.410263,91.720589 107.900635,90.492424 107.917686,89.361847 
	C108.018204,82.699303 108.227257,76.020576 107.872299,69.375481 
	C107.650070,65.215149 109.259277,64.152435 113.040230,64.377472 
	C117.142502,64.621620 121.270554,64.432823 125.306137,64.432823 
	C126.083336,58.473133 126.083336,58.473133 128.943542,57.964546 
	C129.034866,59.091702 129.017487,60.213322 129.243591,61.283501 
	C129.460220,62.308887 129.929642,63.280876 130.287964,64.276329 
	C131.129669,63.580025 131.887482,62.719799 132.836884,62.233936 
	C133.769089,61.756874 134.895981,61.660217 135.937424,61.396614 
	C136.324249,66.045456 139.931396,64.416054 142.299088,64.333382 
	C146.166840,64.198326 146.996964,65.814110 146.953506,69.383331 
	C146.775238,84.027428 146.879013,98.674957 146.879013,113.626457 
	C147.783722,113.752899 148.570282,114.037247 149.303604,113.935982 
	C153.068054,113.416191 154.172394,115.009209 154.109085,118.718956 
	C153.904404,130.710770 154.032730,142.708282 154.032730,154.703598 
	C154.032730,156.337341 154.032715,157.971085 154.032715,159.937317 
	C157.014496,159.937317 159.615234,159.937317 162.215973,159.937317 
	C162.461807,160.362259 162.707657,160.787186 162.953506,161.212128 
	C162.020889,161.878113 161.136627,163.017288 160.146286,163.118530 
	C157.508179,163.388260 154.824387,163.211655 152.158768,163.211655 
	C122.670464,163.211777 93.182167,163.211731 63.225399,163.211716 
M69.149651,98.513519 
	C69.149651,118.926636 69.149651,139.339752 69.149651,159.755707 
	C71.838860,159.755707 73.941055,159.755707 76.000038,159.755707 
	C76.175453,158.040527 76.324379,156.584305 76.473312,155.128082 
	C76.962799,154.913284 77.452293,154.698486 77.941780,154.483673 
	C78.892204,156.269852 79.842628,158.056030 80.750931,159.763046 
	C82.586845,159.763046 84.525009,159.763046 86.634239,159.763046 
	C86.634239,135.128922 86.634239,110.744362 86.634239,86.207397 
	C80.737442,86.207397 75.062042,86.207397 69.149651,86.207397 
	C69.149651,90.236336 69.149651,93.878609 69.149651,98.513519 
M111.545036,81.488098 
	C111.545036,85.106094 111.545036,88.724098 111.545036,92.808952 
	C117.199486,92.808952 122.345566,93.108063 127.439316,92.720070 
	C132.014496,92.371567 133.224396,94.143387 132.941528,98.427498 
	C132.604553,103.531029 132.862152,108.673813 132.862152,114.214462 
	C134.264908,113.807396 135.728012,113.755905 135.882492,113.279823 
	C137.305756,108.893303 138.533051,108.665222 140.076447,113.213341 
	C140.217468,113.628876 141.789658,114.076309 142.041885,113.832085 
	C142.621536,113.270851 143.078995,112.296074 143.090912,111.481903 
	C143.176147,105.656311 143.137573,99.828903 143.137772,94.002068 
	C143.138046,85.421471 143.137833,76.840881 143.137833,68.279129 
	C132.267212,68.279129 122.009644,68.279129 111.544983,68.279129 
	C111.544983,72.522171 111.544983,76.508308 111.545036,81.488098 
M146.098724,117.500961 
	C141.804047,117.500961 137.509369,117.500961 133.092743,117.500961 
	C133.092743,131.890793 133.092743,145.790344 133.092743,159.697113 
	C135.416107,159.697113 137.479767,159.697113 139.024185,159.697113 
	C139.890381,157.794342 140.555832,156.332565 141.221283,154.870773 
	C142.201691,156.405548 143.182098,157.940323 144.371490,159.802246 
	C145.868317,159.802246 147.980225,159.802246 150.496048,159.802246 
	C150.496048,146.486786 150.566971,133.361237 150.345581,120.240616 
	C150.329865,119.308983 148.165649,118.413605 146.098724,117.500961 
M108.016052,159.142319 
	C109.095612,159.226242 110.175163,159.310165 111.254723,159.394104 
	C111.329262,157.614517 111.659180,155.786896 111.338333,154.081696 
	C111.227623,153.493271 109.496773,153.209686 107.975647,152.560516 
	C107.975647,155.026016 107.975647,156.643799 108.016052,159.142319 
z"/>
<path fill="#F5F0F3" opacity="1.000000" stroke="none" 
	d="
M278.318420,79.711060 
	C284.019012,86.788643 285.537384,94.323647 281.993927,102.393372 
	C278.375732,110.633385 271.992096,115.783585 262.882019,116.352692 
	C255.116760,116.837784 247.297165,116.452950 239.206390,116.452950 
	C239.206390,130.429749 239.206390,143.881668 239.206390,157.675003 
	C236.387802,157.675003 233.859711,157.675003 231.117279,157.675003 
	C231.117279,129.347504 231.117279,101.081810 231.117279,73.094337 
	C243.140900,73.094337 255.090469,72.588425 266.952393,73.386024 
	C270.778900,73.643318 274.374847,77.328941 278.318420,79.711060 
M239.041992,95.499146 
	C239.041992,101.271317 239.041992,107.043488 239.041992,113.138680 
	C244.321594,113.138680 249.111923,113.148216 253.902161,113.134354 
	C256.063538,113.128105 258.237274,113.213264 260.383820,113.018822 
	C268.277008,112.303818 275.306854,103.686882 275.535339,94.563965 
	C275.754181,85.824142 269.073761,76.662506 261.268738,76.068436 
	C254.041687,75.518356 246.739853,75.951195 239.041992,75.951195 
	C239.041992,82.267990 239.041992,88.383965 239.041992,95.499146 
z"/>
<path fill="#F5F0F3" opacity="1.000000" stroke="none" 
	d="
M362.786560,151.011841 
	C370.876678,145.568466 372.767609,137.661301 372.796600,129.007080 
	C372.855255,111.507347 372.779938,94.007072 372.877441,76.507683 
	C372.885895,74.996353 373.767242,73.489883 374.243134,71.981155 
	C374.843781,72.133415 375.444458,72.285667 376.045135,72.437920 
	C376.045135,80.914429 376.045135,89.390945 376.045135,97.867455 
	C376.045135,108.700752 375.704620,119.547081 376.118896,130.364517 
	C376.884308,150.349823 363.817444,161.979401 341.785278,158.769730 
	C326.860748,156.595520 318.364563,146.292175 318.289032,131.167618 
	C318.197510,112.834801 318.263519,94.501198 318.273438,76.167938 
	C318.274048,75.035698 318.379883,73.903503 318.450287,72.501701 
	C321.139252,72.501701 323.547729,72.501701 326.509338,72.501701 
	C326.509338,75.564255 326.501587,78.525543 326.510620,81.486786 
	C326.561554,98.151230 326.066803,114.840233 326.810913,131.473770 
	C327.716461,151.716263 344.347046,160.607971 362.786560,151.011841 
z"/>
<path fill="#FFFAFD" opacity="1.000000" stroke="none" 
	d="
M198.999237,132.000000 
	C198.999222,147.661209 198.984894,162.822449 199.013641,177.983597 
	C199.018295,180.446274 199.267731,182.961823 195.193848,181.475159 
	C195.133438,180.442657 195.009354,179.309189 195.009140,178.175674 
	C194.999542,127.527237 195.000015,76.878792 195.003281,26.230356 
	C195.003433,23.855703 194.250198,20.792036 198.999237,22.270689 
	C198.999237,58.603325 198.999237,95.051666 198.999237,132.000000 
z"/>
<path fill="#202020" opacity="1.000000" stroke="none" 
	d="
M69.149651,98.017197 
	C69.149651,93.878609 69.149651,90.236336 69.149651,86.207397 
	C75.062042,86.207397 80.737442,86.207397 86.634239,86.207397 
	C86.634239,110.744362 86.634239,135.128922 86.634239,159.763046 
	C84.525009,159.763046 82.586845,159.763046 80.750931,159.763046 
	C79.842628,158.056030 78.892204,156.269852 77.941780,154.483673 
	C77.452293,154.698486 76.962799,154.913284 76.473312,155.128082 
	C76.324379,156.584305 76.175453,158.040527 76.000038,159.755707 
	C73.941055,159.755707 71.838860,159.755707 69.149651,159.755707 
	C69.149651,139.339752 69.149651,118.926636 69.149651,98.017197 
z"/>
<path fill="#101010" opacity="1.000000" stroke="none" 
	d="
M111.545013,80.991272 
	C111.544983,76.508308 111.544983,72.522171 111.544983,68.279129 
	C122.009644,68.279129 132.267212,68.279129 143.137833,68.279129 
	C143.137833,76.840881 143.138046,85.421471 143.137772,94.002068 
	C143.137573,99.828903 143.176147,105.656311 143.090912,111.481903 
	C143.078995,112.296074 142.621536,113.270851 142.041885,113.832085 
	C141.789658,114.076309 140.217468,113.628876 140.076447,113.213341 
	C138.533051,108.665222 137.305756,108.893303 135.882492,113.279823 
	C135.728012,113.755905 134.264908,113.807396 132.862152,114.214462 
	C132.862152,108.673813 132.604553,103.531029 132.941528,98.427498 
	C133.224396,94.143387 132.014496,92.371567 127.439316,92.720070 
	C122.345566,93.108063 117.199486,92.808952 111.545036,92.808952 
	C111.545036,88.724098 111.545036,85.106094 111.545013,80.991272 
z"/>
<path fill="#191819" opacity="1.000000" stroke="none" 
	d="
M146.549591,117.501160 
	C148.165649,118.413605 150.329865,119.308983 150.345581,120.240616 
	C150.566971,133.361237 150.496048,146.486786 150.496048,159.802246 
	C147.980225,159.802246 145.868317,159.802246 144.371490,159.802246 
	C143.182098,157.940323 142.201691,156.405548 141.221283,154.870773 
	C140.555832,156.332565 139.890381,157.794342 139.024185,159.697113 
	C137.479767,159.697113 135.416107,159.697113 133.092743,159.697113 
	C133.092743,145.790344 133.092743,131.890793 133.092743,117.500961 
	C137.509369,117.500961 141.804047,117.500961 146.549591,117.501160 
z"/>
<path fill="#282728" opacity="1.000000" stroke="none" 
	d="
M107.995850,158.701935 
	C107.975647,156.643799 107.975647,155.026016 107.975647,152.560516 
	C109.496773,153.209686 111.227623,153.493271 111.338333,154.081696 
	C111.659180,155.786896 111.329262,157.614517 111.254723,159.394104 
	C110.175163,159.310165 109.095612,159.226242 107.995850,158.701935 
z"/>
<path fill="#0B0A0A" opacity="1.000000" stroke="none" 
	d="
M239.041992,94.999542 
	C239.041992,88.383965 239.041992,82.267990 239.041992,75.951195 
	C246.739853,75.951195 254.041687,75.518356 261.268738,76.068436 
	C269.073761,76.662506 275.754181,85.824142 275.535339,94.563965 
	C275.306854,103.686882 268.277008,112.303818 260.383820,113.018822 
	C258.237274,113.213264 256.063538,113.128105 253.902161,113.134354 
	C249.111923,113.148216 244.321594,113.138680 239.041992,113.138680 
	C239.041992,107.043488 239.041992,101.271317 239.041992,94.999542 
z"/>
</svg>