<svg xmlns="http://www.w3.org/2000/svg" xmlns:xlink="http://www.w3.org/1999/xlink" width="500" zoomAndPan="magnify" viewBox="0 0 375 374.999991" height="500" preserveAspectRatio="xMidYMid meet" version="1.0"><defs><g/><clipPath id="f49de67a0e"><path d="M 71.386719 115.390625 L 174.886719 115.390625 L 174.886719 218.890625 L 71.386719 218.890625 Z M 71.386719 115.390625 " clip-rule="nonzero"/></clipPath></defs><rect x="-37.5" width="450" fill="#ffffff" y="-37.499999" height="449.999989" fill-opacity="1"/><rect x="-37.5" width="450" fill="#000000" y="-37.499999" height="449.999989" fill-opacity="1"/><path fill="#fffafd" d="M 111.296875 153.457031 L 114.589844 153.457031 L 114.589844 149.996094 L 111.296875 149.996094 L 111.296875 153.457031 " fill-opacity="1" fill-rule="nonzero"/><path fill="#fffafd" d="M 111.183594 163.839844 L 107.722656 163.839844 L 107.722656 169.03125 L 111.183594 169.03125 L 111.183594 163.839844 " fill-opacity="1" fill-rule="nonzero"/><path fill="#fffafd" d="M 118.105469 163.839844 L 114.644531 163.839844 L 114.644531 169.03125 L 118.105469 169.03125 L 118.105469 163.839844 " fill-opacity="1" fill-rule="nonzero"/><path fill="#fffafd" d="M 125.023438 163.839844 L 121.566406 163.839844 L 121.566406 169.03125 L 125.023438 169.03125 L 125.023438 163.839844 " fill-opacity="1" fill-rule="nonzero"/><path fill="#fffafd" d="M 131.945312 163.839844 L 128.484375 163.839844 L 128.484375 169.03125 L 131.945312 169.03125 L 131.945312 163.839844 " fill-opacity="1" fill-rule="nonzero"/><path fill="#fffafd" d="M 128.484375 137.886719 L 131.945312 137.886719 L 131.945312 132.695312 L 128.484375 132.695312 L 128.484375 137.886719 " fill-opacity="1" fill-rule="nonzero"/><path fill="#fffafd" d="M 135.40625 137.886719 L 138.867188 137.886719 L 138.867188 132.695312 L 135.40625 132.695312 L 135.40625 137.886719 " fill-opacity="1" fill-rule="nonzero"/><path fill="#fffafd" d="M 145.789062 132.695312 L 142.328125 132.695312 L 142.328125 137.886719 L 145.789062 137.886719 L 145.789062 132.695312 " fill-opacity="1" fill-rule="nonzero"/><path fill="#fffafd" d="M 152.710938 132.695312 L 149.25 132.695312 L 149.25 137.886719 L 152.710938 137.886719 L 152.710938 132.695312 " fill-opacity="1" fill-rule="nonzero"/><path fill="#fffafd" d="M 128.484375 146.539062 L 131.945312 146.539062 L 131.945312 141.347656 L 128.484375 141.347656 L 128.484375 146.539062 " fill-opacity="1" fill-rule="nonzero"/><path fill="#fffafd" d="M 135.40625 146.539062 L 138.867188 146.539062 L 138.867188 141.347656 L 135.40625 141.347656 L 135.40625 146.539062 " fill-opacity="1" fill-rule="nonzero"/><path fill="#fffafd" d="M 145.789062 141.347656 L 142.328125 141.347656 L 142.328125 146.539062 L 145.789062 146.539062 L 145.789062 141.347656 " fill-opacity="1" fill-rule="nonzero"/><path fill="#fffafd" d="M 152.710938 141.347656 L 149.25 141.347656 L 149.25 146.539062 L 152.710938 146.539062 L 152.710938 141.347656 " fill-opacity="1" fill-rule="nonzero"/><path fill="#fffafd" d="M 152.710938 149.996094 L 149.25 149.996094 L 149.25 155.1875 L 152.710938 155.1875 L 152.710938 149.996094 " fill-opacity="1" fill-rule="nonzero"/><path fill="#fffafd" d="M 152.710938 158.648438 L 149.25 158.648438 L 149.25 163.839844 L 152.710938 163.839844 L 152.710938 158.648438 " fill-opacity="1" fill-rule="nonzero"/><path fill="#fffafd" d="M 138.867188 163.839844 L 135.40625 163.839844 L 135.40625 169.03125 L 138.867188 169.03125 L 138.867188 163.839844 " fill-opacity="1" fill-rule="nonzero"/><path fill="#fffafd" d="M 111.183594 172.492188 L 107.722656 172.492188 L 107.722656 177.683594 L 111.183594 177.683594 L 111.183594 172.492188 " fill-opacity="1" fill-rule="nonzero"/><path fill="#fffafd" d="M 118.105469 172.492188 L 114.644531 172.492188 L 114.644531 177.683594 L 118.105469 177.683594 L 118.105469 172.492188 " fill-opacity="1" fill-rule="nonzero"/><path fill="#fffafd" d="M 121.566406 177.683594 L 125.023438 177.683594 L 125.023438 172.492188 L 121.566406 172.492188 L 121.566406 177.683594 " fill-opacity="1" fill-rule="nonzero"/><path fill="#fffafd" d="M 128.484375 177.683594 L 131.945312 177.683594 L 131.945312 172.492188 L 128.484375 172.492188 L 128.484375 177.683594 " fill-opacity="1" fill-rule="nonzero"/><path fill="#fffafd" d="M 135.40625 177.683594 L 138.867188 177.683594 L 138.867188 172.492188 L 135.40625 172.492188 L 135.40625 177.683594 " fill-opacity="1" fill-rule="nonzero"/><path fill="#fffafd" d="M 111.183594 181.144531 L 107.722656 181.144531 L 107.722656 186.332031 L 111.183594 186.332031 L 111.183594 181.144531 " fill-opacity="1" fill-rule="nonzero"/><path fill="#fffafd" d="M 118.105469 181.144531 L 114.644531 181.144531 L 114.644531 186.332031 L 118.105469 186.332031 L 118.105469 181.144531 " fill-opacity="1" fill-rule="nonzero"/><path fill="#fffafd" d="M 121.566406 186.332031 L 125.023438 186.332031 L 125.023438 181.144531 L 121.566406 181.144531 L 121.566406 186.332031 " fill-opacity="1" fill-rule="nonzero"/><path fill="#fffafd" d="M 128.484375 186.332031 L 131.945312 186.332031 L 131.945312 181.144531 L 128.484375 181.144531 L 128.484375 186.332031 " fill-opacity="1" fill-rule="nonzero"/><path fill="#fffafd" d="M 135.40625 186.332031 L 138.867188 186.332031 L 138.867188 181.144531 L 135.40625 181.144531 L 135.40625 186.332031 " fill-opacity="1" fill-rule="nonzero"/><path fill="#fffafd" d="M 107.722656 194.984375 L 111.183594 194.984375 L 111.183594 189.792969 L 107.722656 189.792969 L 107.722656 194.984375 " fill-opacity="1" fill-rule="nonzero"/><path fill="#fffafd" d="M 114.644531 194.984375 L 118.105469 194.984375 L 118.105469 189.792969 L 114.644531 189.792969 L 114.644531 194.984375 " fill-opacity="1" fill-rule="nonzero"/><path fill="#fffafd" d="M 86.957031 160.378906 L 90.417969 160.378906 L 90.417969 155.1875 L 86.957031 155.1875 L 86.957031 160.378906 " fill-opacity="1" fill-rule="nonzero"/><path fill="#fffafd" d="M 97.339844 155.1875 L 93.878906 155.1875 L 93.878906 160.378906 L 97.339844 160.378906 L 97.339844 155.1875 " fill-opacity="1" fill-rule="nonzero"/><path fill="#fffafd" d="M 86.957031 151.726562 L 90.417969 151.726562 L 90.417969 146.539062 L 86.957031 146.539062 L 86.957031 151.726562 " fill-opacity="1" fill-rule="nonzero"/><path fill="#fffafd" d="M 97.339844 146.539062 L 93.878906 146.539062 L 93.878906 151.726562 L 97.339844 151.726562 L 97.339844 146.539062 " fill-opacity="1" fill-rule="nonzero"/><path fill="#fffafd" d="M 86.957031 203.636719 L 90.417969 203.636719 L 90.417969 198.445312 L 86.957031 198.445312 L 86.957031 203.636719 " fill-opacity="1" fill-rule="nonzero"/><path fill="#fffafd" d="M 97.339844 198.445312 L 93.878906 198.445312 L 93.878906 203.636719 L 97.339844 203.636719 L 97.339844 198.445312 " fill-opacity="1" fill-rule="nonzero"/><path fill="#fffafd" d="M 86.957031 169.03125 L 90.417969 169.03125 L 90.417969 163.839844 L 86.957031 163.839844 L 86.957031 169.03125 " fill-opacity="1" fill-rule="nonzero"/><path fill="#fffafd" d="M 97.339844 163.839844 L 93.878906 163.839844 L 93.878906 169.03125 L 97.339844 169.03125 L 97.339844 163.839844 " fill-opacity="1" fill-rule="nonzero"/><path fill="#fffafd" d="M 86.957031 177.683594 L 90.417969 177.683594 L 90.417969 172.492188 L 86.957031 172.492188 L 86.957031 177.683594 " fill-opacity="1" fill-rule="nonzero"/><path fill="#fffafd" d="M 97.339844 172.492188 L 93.878906 172.492188 L 93.878906 177.683594 L 97.339844 177.683594 L 97.339844 172.492188 " fill-opacity="1" fill-rule="nonzero"/><path fill="#fffafd" d="M 86.957031 186.332031 L 90.417969 186.332031 L 90.417969 181.144531 L 86.957031 181.144531 L 86.957031 186.332031 " fill-opacity="1" fill-rule="nonzero"/><path fill="#fffafd" d="M 97.339844 181.144531 L 93.878906 181.144531 L 93.878906 186.332031 L 97.339844 186.332031 L 97.339844 181.144531 " fill-opacity="1" fill-rule="nonzero"/><path fill="#fffafd" d="M 86.957031 194.984375 L 90.417969 194.984375 L 90.417969 189.792969 L 86.957031 189.792969 L 86.957031 194.984375 " fill-opacity="1" fill-rule="nonzero"/><path fill="#fffafd" d="M 97.339844 189.792969 L 93.878906 189.792969 L 93.878906 194.984375 L 97.339844 194.984375 L 97.339844 189.792969 " fill-opacity="1" fill-rule="nonzero"/><path fill="#fffafd" d="M 121.566406 194.984375 L 125.023438 194.984375 L 125.023438 189.792969 L 121.566406 189.792969 L 121.566406 194.984375 " fill-opacity="1" fill-rule="nonzero"/><path fill="#fffafd" d="M 128.484375 194.984375 L 131.945312 194.984375 L 131.945312 189.792969 L 128.484375 189.792969 L 128.484375 194.984375 " fill-opacity="1" fill-rule="nonzero"/><path fill="#fffafd" d="M 135.40625 194.984375 L 138.867188 194.984375 L 138.867188 189.792969 L 135.40625 189.792969 L 135.40625 194.984375 " fill-opacity="1" fill-rule="nonzero"/><path fill="#fffafd" d="M 149.25 186.332031 L 152.710938 186.332031 L 152.710938 181.144531 L 149.25 181.144531 L 149.25 186.332031 " fill-opacity="1" fill-rule="nonzero"/><path fill="#fffafd" d="M 156.171875 186.332031 L 159.632812 186.332031 L 159.632812 181.144531 L 156.171875 181.144531 L 156.171875 186.332031 " fill-opacity="1" fill-rule="nonzero"/><path fill="#fffafd" d="M 149.25 194.984375 L 152.710938 194.984375 L 152.710938 189.792969 L 149.25 189.792969 L 149.25 194.984375 " fill-opacity="1" fill-rule="nonzero"/><path fill="#fffafd" d="M 156.171875 194.984375 L 159.632812 194.984375 L 159.632812 189.792969 L 156.171875 189.792969 L 156.171875 194.984375 " fill-opacity="1" fill-rule="nonzero"/><path fill="#fffafd" d="M 149.25 203.636719 L 152.710938 203.636719 L 152.710938 198.445312 L 149.25 198.445312 L 149.25 203.636719 " fill-opacity="1" fill-rule="nonzero"/><path fill="#fffafd" d="M 156.171875 203.636719 L 159.632812 203.636719 L 159.632812 198.445312 L 156.171875 198.445312 L 156.171875 203.636719 " fill-opacity="1" fill-rule="nonzero"/><g clip-path="url(#f49de67a0e)"><path fill="#fffafd" d="M 156.171875 215.746094 L 156.171875 210.558594 L 152.710938 210.558594 L 152.710938 215.746094 L 145.789062 215.746094 L 145.789062 174.222656 L 163.089844 174.222656 L 163.089844 215.746094 Z M 121.566406 215.746094 L 121.566406 208.828125 L 125.023438 208.828125 L 125.023438 215.746094 Z M 125.023438 149.996094 L 125.023438 125.773438 L 156.171875 125.773438 L 156.171875 170.761719 L 152.710938 170.761719 L 152.710938 167.300781 L 149.25 167.300781 L 149.25 170.761719 L 145.789062 170.761719 L 145.789062 151.726562 C 145.789062 150.773438 145.015625 149.996094 144.058594 149.996094 Z M 90.417969 210.558594 L 90.417969 215.746094 L 83.5 215.746094 L 83.5 143.078125 L 100.800781 143.078125 L 100.800781 215.746094 L 93.878906 215.746094 L 93.878906 210.558594 Z M 166.550781 172.492188 C 166.550781 171.535156 165.777344 170.761719 164.820312 170.761719 L 159.632812 170.761719 L 159.632812 124.042969 C 159.632812 123.085938 158.855469 122.3125 157.902344 122.3125 L 149.25 122.3125 L 149.25 118.851562 L 145.789062 118.851562 L 145.789062 122.3125 L 142.328125 122.3125 L 142.328125 115.390625 L 138.867188 115.390625 L 138.867188 122.3125 L 123.296875 122.3125 C 122.339844 122.3125 121.566406 123.085938 121.566406 124.042969 L 121.566406 149.996094 L 118.046875 149.996094 L 118.046875 153.457031 L 142.328125 153.457031 L 142.328125 215.746094 L 128.484375 215.746094 L 128.484375 207.097656 C 128.484375 206.140625 127.710938 205.367188 126.753906 205.367188 L 119.835938 205.367188 C 118.878906 205.367188 118.105469 206.140625 118.105469 207.097656 L 118.105469 215.746094 L 104.261719 215.746094 L 104.261719 153.457031 L 107.835938 153.457031 L 107.835938 149.996094 L 104.261719 149.996094 L 104.261719 141.347656 C 104.261719 140.390625 103.488281 139.617188 102.53125 139.617188 L 97.339844 139.617188 L 97.339844 132.695312 L 93.878906 132.695312 L 93.878906 139.617188 L 90.417969 139.617188 L 90.417969 136.15625 L 86.957031 136.15625 L 86.957031 139.617188 L 81.769531 139.617188 C 80.8125 139.617188 80.039062 140.390625 80.039062 141.347656 L 80.039062 215.746094 L 71.386719 215.746094 L 71.386719 219.207031 L 175.203125 219.207031 L 175.203125 215.746094 L 166.550781 215.746094 L 166.550781 172.492188 " fill-opacity="1" fill-rule="nonzero"/></g><path stroke-linecap="butt" transform="matrix(0, -0.75, 0.75, 0, 190.494426, 220.549922)" fill="none" stroke-linejoin="miter" d="M -0.00114524 2.002223 L 146.545739 2.002223 " stroke="#ffffff" stroke-width="4" stroke-opacity="1" stroke-miterlimit="4"/><g fill="#ffffff" fill-opacity="1"><g transform="translate(205.948734, 203.524181)"><g><path d="M 8.9375 0 L 8.9375 -64.1875 L 31.296875 -64.1875 C 34.515625 -64.1875 37.429688 -63.5 40.046875 -62.125 C 42.671875 -60.757812 44.742188 -58.851562 46.265625 -56.40625 C 47.785156 -53.96875 48.546875 -51.109375 48.546875 -47.828125 C 48.546875 -44.671875 47.722656 -41.828125 46.078125 -39.296875 C 44.441406 -36.765625 42.375 -34.765625 39.875 -33.296875 C 37.375 -31.835938 34.8125 -31.109375 32.1875 -31.109375 L 15.015625 -31.109375 L 15.015625 0 Z M 15.015625 -33.53125 L 30.21875 -33.53125 C 32.476562 -33.53125 34.53125 -34.242188 36.375 -35.671875 C 38.226562 -37.097656 39.707031 -38.914062 40.8125 -41.125 C 41.914062 -43.332031 42.46875 -45.566406 42.46875 -47.828125 C 42.46875 -50.097656 41.914062 -52.304688 40.8125 -54.453125 C 39.707031 -56.597656 38.226562 -58.351562 36.375 -59.71875 C 34.53125 -61.09375 32.476562 -61.78125 30.21875 -61.78125 L 15.015625 -61.78125 Z M 15.015625 -33.53125 "/></g></g></g><g fill="#ffffff" fill-opacity="1"><g transform="translate(241.969897, 203.524181)"><g/></g></g><g fill="#ffffff" fill-opacity="1"><g transform="translate(271.465487, 203.524181)"><g><path d="M 31.46875 0.984375 C 27.351562 0.984375 23.582031 0.207031 20.15625 -1.34375 C 16.726562 -2.894531 14 -5.160156 11.96875 -8.140625 C 9.945312 -11.117188 8.9375 -14.753906 8.9375 -19.046875 L 8.9375 -64.1875 L 14.9375 -64.1875 L 14.9375 -20.921875 C 14.9375 -16.867188 15.679688 -13.457031 17.171875 -10.6875 C 18.660156 -7.914062 20.65625 -5.828125 23.15625 -4.421875 C 25.65625 -3.023438 28.425781 -2.328125 31.46875 -2.328125 C 34.507812 -2.328125 37.414062 -2.90625 40.1875 -4.0625 C 42.957031 -5.226562 45.234375 -7.164062 47.015625 -9.875 C 48.804688 -12.59375 49.703125 -16.273438 49.703125 -20.921875 L 49.703125 -64.1875 L 52.125 -64.1875 L 52.125 -18.859375 C 52.125 -12.484375 50.21875 -7.582031 46.40625 -4.15625 C 42.59375 -0.726562 37.613281 0.984375 31.46875 0.984375 Z M 31.46875 0.984375 "/></g></g></g><g fill="#ffffff" fill-opacity="1"><g transform="translate(59.258835, 262.223728)"><g><path d="M 2.59375 0 L 2.59375 -18.671875 L 9.09375 -18.671875 C 10.03125 -18.671875 10.878906 -18.46875 11.640625 -18.0625 C 12.410156 -17.664062 13.015625 -17.113281 13.453125 -16.40625 C 13.898438 -15.695312 14.125 -14.863281 14.125 -13.90625 C 14.125 -12.988281 13.882812 -12.160156 13.40625 -11.421875 C 12.925781 -10.691406 12.320312 -10.113281 11.59375 -9.6875 C 10.863281 -9.257812 10.117188 -9.046875 9.359375 -9.046875 L 4.375 -9.046875 L 4.375 0 Z M 4.375 -9.75 L 8.78125 -9.75 C 9.445312 -9.75 10.046875 -9.957031 10.578125 -10.375 C 11.117188 -10.789062 11.546875 -11.316406 11.859375 -11.953125 C 12.179688 -12.597656 12.34375 -13.25 12.34375 -13.90625 C 12.34375 -14.5625 12.179688 -15.203125 11.859375 -15.828125 C 11.546875 -16.453125 11.117188 -16.960938 10.578125 -17.359375 C 10.046875 -17.765625 9.445312 -17.96875 8.78125 -17.96875 L 4.375 -17.96875 Z M 4.375 -9.75 "/></g></g></g><g fill="#ffffff" fill-opacity="1"><g transform="translate(79.820111, 262.223728)"><g><path d="M 2.59375 0 L 2.59375 -18.671875 L 4.375 -18.671875 L 4.375 -0.703125 L 13.671875 -0.703125 L 13.671875 0 Z M 2.59375 0 "/></g></g></g><g fill="#ffffff" fill-opacity="1"><g transform="translate(100.979215, 262.223728)"><g><path d="M 2.59375 0 L 8.3125 -18.640625 L 8.3125 -18.671875 L 10.171875 -18.671875 L 15.90625 0 L 14.0625 0 L 12.609375 -4.78125 L 4.8125 -4.78125 L 3.328125 0 Z M 5.015625 -5.484375 L 12.375 -5.484375 L 8.703125 -17.453125 Z M 5.015625 -5.484375 "/></g></g></g><g fill="#ffffff" fill-opacity="1"><g transform="translate(124.399636, 262.223728)"><g><path d="M 10.171875 0.3125 C 9.054688 0.3125 8.007812 0.0664062 7.03125 -0.421875 C 6.050781 -0.921875 5.191406 -1.609375 4.453125 -2.484375 C 3.722656 -3.359375 3.144531 -4.367188 2.71875 -5.515625 C 2.289062 -6.660156 2.078125 -7.890625 2.078125 -9.203125 C 2.078125 -10.523438 2.289062 -11.753906 2.71875 -12.890625 C 3.144531 -14.035156 3.722656 -15.046875 4.453125 -15.921875 C 5.191406 -16.796875 6.050781 -17.476562 7.03125 -17.96875 C 8.007812 -18.46875 9.054688 -18.71875 10.171875 -18.71875 C 11.117188 -18.71875 12.050781 -18.484375 12.96875 -18.015625 C 13.894531 -17.546875 14.710938 -16.878906 15.421875 -16.015625 L 14.875 -15.578125 C 14.226562 -16.335938 13.5 -16.929688 12.6875 -17.359375 C 11.882812 -17.796875 11.046875 -18.015625 10.171875 -18.015625 C 9.296875 -18.015625 8.476562 -17.757812 7.71875 -17.25 C 6.957031 -16.738281 6.285156 -16.054688 5.703125 -15.203125 C 5.128906 -14.359375 4.675781 -13.414062 4.34375 -12.375 C 4.007812 -11.332031 3.84375 -10.273438 3.84375 -9.203125 C 3.84375 -8.097656 4.015625 -7.003906 4.359375 -5.921875 C 4.710938 -4.835938 5.203125 -3.863281 5.828125 -3 C 6.460938 -2.144531 7.21875 -1.484375 8.09375 -1.015625 C 8.96875 -0.546875 9.945312 -0.375 11.03125 -0.5 C 11.644531 -0.582031 12.171875 -0.757812 12.609375 -1.03125 C 13.046875 -1.3125 13.394531 -1.613281 13.65625 -1.9375 C 13.925781 -2.257812 14.125 -2.53125 14.25 -2.75 C 14.382812 -2.976562 14.453125 -3.09375 14.453125 -3.09375 L 14.453125 -8.84375 L 12.09375 -8.84375 L 12.09375 -9.546875 L 16.21875 -9.546875 L 16.21875 -3.6875 C 15.925781 -2.851562 15.46875 -2.140625 14.84375 -1.546875 C 14.21875 -0.953125 13.5 -0.5 12.6875 -0.1875 C 11.875 0.125 11.035156 0.289062 10.171875 0.3125 Z M 10.171875 0.3125 "/></g></g></g><g fill="#ffffff" fill-opacity="1"><g transform="translate(148.105979, 262.223728)"><g><path d="M 2.59375 0 L 8.3125 -18.640625 L 8.3125 -18.671875 L 10.171875 -18.671875 L 15.90625 0 L 14.0625 0 L 12.609375 -4.78125 L 4.8125 -4.78125 L 3.328125 0 Z M 5.015625 -5.484375 L 12.375 -5.484375 L 8.703125 -17.453125 Z M 5.015625 -5.484375 "/></g></g></g><g fill="#ffffff" fill-opacity="1"><g transform="translate(171.526397, 262.223728)"><g/></g></g><g fill="#ffffff" fill-opacity="1"><g transform="translate(190.190245, 262.223728)"><g><path d="M 9.15625 0.28125 C 7.957031 0.28125 6.859375 0.0546875 5.859375 -0.390625 C 4.867188 -0.835938 4.078125 -1.492188 3.484375 -2.359375 C 2.890625 -3.234375 2.59375 -4.289062 2.59375 -5.53125 L 2.59375 -18.671875 L 4.34375 -18.671875 L 4.34375 -6.078125 C 4.34375 -4.898438 4.554688 -3.90625 4.984375 -3.09375 C 5.421875 -2.289062 6.003906 -1.6875 6.734375 -1.28125 C 7.460938 -0.875 8.269531 -0.671875 9.15625 -0.671875 C 10.039062 -0.671875 10.882812 -0.835938 11.6875 -1.171875 C 12.488281 -1.515625 13.148438 -2.082031 13.671875 -2.875 C 14.191406 -3.664062 14.453125 -4.734375 14.453125 -6.078125 L 14.453125 -18.671875 L 15.15625 -18.671875 L 15.15625 -5.484375 C 15.15625 -3.628906 14.597656 -2.203125 13.484375 -1.203125 C 12.378906 -0.210938 10.9375 0.28125 9.15625 0.28125 Z M 9.15625 0.28125 "/></g></g></g><g fill="#ffffff" fill-opacity="1"><g transform="translate(212.830903, 262.223728)"><g><path d="M 2.59375 0 L 2.59375 -18.671875 L 9.15625 -18.671875 C 10 -18.671875 10.800781 -18.46875 11.5625 -18.0625 C 12.332031 -17.65625 12.953125 -17.09375 13.421875 -16.375 C 13.898438 -15.664062 14.140625 -14.835938 14.140625 -13.890625 C 14.140625 -12.960938 13.898438 -12.128906 13.421875 -11.390625 C 12.953125 -10.660156 12.332031 -10.082031 11.5625 -9.65625 C 10.789062 -9.226562 9.96875 -9.015625 9.09375 -9.015625 L 15.515625 0 L 13.59375 0 L 7.15625 -9.015625 L 4.34375 -9.015625 L 4.34375 0 Z M 4.34375 -9.71875 L 8.8125 -9.71875 C 9.46875 -9.71875 10.0625 -9.925781 10.59375 -10.34375 C 11.132812 -10.757812 11.566406 -11.285156 11.890625 -11.921875 C 12.210938 -12.566406 12.375 -13.222656 12.375 -13.890625 C 12.375 -14.546875 12.210938 -15.1875 11.890625 -15.8125 C 11.566406 -16.4375 11.132812 -16.953125 10.59375 -17.359375 C 10.0625 -17.765625 9.46875 -17.96875 8.8125 -17.96875 L 4.34375 -17.96875 Z M 4.34375 -9.71875 "/></g></g></g><g fill="#ffffff" fill-opacity="1"><g transform="translate(235.835448, 262.223728)"><g><path d="M 2.59375 0 L 2.59375 -18.671875 L 9.25 -18.671875 C 10.132812 -18.671875 10.921875 -18.457031 11.609375 -18.03125 C 12.304688 -17.601562 12.859375 -17.03125 13.265625 -16.3125 C 13.679688 -15.59375 13.890625 -14.785156 13.890625 -13.890625 C 13.890625 -12.859375 13.625 -11.96875 13.09375 -11.21875 C 12.5625 -10.476562 11.863281 -9.925781 11 -9.5625 C 12.070312 -9.269531 12.953125 -8.71875 13.640625 -7.90625 C 14.335938 -7.09375 14.6875 -6.085938 14.6875 -4.890625 C 14.6875 -3.929688 14.460938 -3.082031 14.015625 -2.34375 C 13.578125 -1.613281 12.976562 -1.035156 12.21875 -0.609375 C 11.457031 -0.179688 10.609375 0.03125 9.671875 0.03125 Z M 4.375 -9.78125 L 8.546875 -9.78125 C 9.210938 -9.78125 9.816406 -9.984375 10.359375 -10.390625 C 10.910156 -10.796875 11.34375 -11.3125 11.65625 -11.9375 C 11.976562 -12.570312 12.140625 -13.222656 12.140625 -13.890625 C 12.140625 -14.546875 11.976562 -15.1875 11.65625 -15.8125 C 11.34375 -16.4375 10.910156 -16.953125 10.359375 -17.359375 C 9.816406 -17.765625 9.210938 -17.96875 8.546875 -17.96875 L 4.375 -17.96875 Z M 4.375 -0.671875 L 9.25 -0.671875 C 9.925781 -0.671875 10.539062 -0.882812 11.09375 -1.3125 C 11.65625 -1.738281 12.101562 -2.269531 12.4375 -2.90625 C 12.78125 -3.550781 12.953125 -4.210938 12.953125 -4.890625 C 12.953125 -5.566406 12.78125 -6.222656 12.4375 -6.859375 C 12.101562 -7.503906 11.65625 -8.035156 11.09375 -8.453125 C 10.539062 -8.867188 9.925781 -9.078125 9.25 -9.078125 L 4.375 -9.078125 Z M 4.375 -0.671875 "/></g></g></g><g fill="#ffffff" fill-opacity="1"><g transform="translate(258.008249, 262.223728)"><g><path d="M 2.59375 0 L 8.3125 -18.640625 L 8.3125 -18.671875 L 10.171875 -18.671875 L 15.90625 0 L 14.0625 0 L 12.609375 -4.78125 L 4.8125 -4.78125 L 3.328125 0 Z M 5.015625 -5.484375 L 12.375 -5.484375 L 8.703125 -17.453125 Z M 5.015625 -5.484375 "/></g></g></g><g fill="#ffffff" fill-opacity="1"><g transform="translate(281.428672, 262.223728)"><g><path d="M 2.59375 0 L 2.59375 -18.671875 L 4.625 -18.671875 L 13.578125 -3.484375 L 13.578125 -18.671875 L 14.28125 -18.671875 L 14.28125 0 L 13.578125 0 L 13.578125 -0.03125 L 3.296875 -17.46875 L 3.296875 0 Z M 2.59375 0 "/></g></g></g><g fill="#ffffff" fill-opacity="1"><g transform="translate(303.185583, 262.223728)"><g><path d="M 2.59375 0 L 8.3125 -18.640625 L 8.3125 -18.671875 L 10.171875 -18.671875 L 15.90625 0 L 14.0625 0 L 12.609375 -4.78125 L 4.8125 -4.78125 L 3.328125 0 Z M 5.015625 -5.484375 L 12.375 -5.484375 L 8.703125 -17.453125 Z M 5.015625 -5.484375 "/></g></g></g></svg>