<svg xmlns="http://www.w3.org/2000/svg" xmlns:xlink="http://www.w3.org/1999/xlink" width="500" zoomAndPan="magnify" viewBox="0 0 375 374.999991" height="500" preserveAspectRatio="xMidYMid meet" version="1.0"><defs><clipPath id="fbe6749143"><path d="M 45.671875 49.679688 L 323 49.679688 L 323 325.679688 L 45.671875 325.679688 Z M 45.671875 49.679688 " clip-rule="nonzero"/></clipPath></defs><path stroke-linecap="butt" transform="matrix(0.0446824, 0.748668, -0.748668, 0.0446824, 185.997239, 263.300755)" fill="none" stroke-linejoin="miter" d="M 0.000680426 1.999912 L 33.57073 1.999899 " stroke="#000000" stroke-width="4" stroke-opacity="1" stroke-miterlimit="4"/><path fill="#000000" d="M 182.96875 120.519531 C 181.691406 120.589844 180.472656 120.597656 179.859375 120 L 179.859375 118.441406 C 181.074219 117.378906 183.6875 118.0625 182.96875 120.519531 Z M 182.96875 120.519531 " fill-opacity="1" fill-rule="evenodd"/><path fill="#000000" d="M 180.378906 138.167969 C 183.015625 143.164062 180.6875 152.597656 181.414062 158.414062 C 183.144531 159.265625 182.917969 160.53125 184.523438 160.488281 C 184.050781 161.746094 182.441406 161.863281 180.898438 162.042969 C 182.96875 160.464844 181.015625 159.058594 179.859375 157.894531 C 182.113281 156.640625 179.066406 154.679688 178.824219 152.183594 C 178.675781 150.644531 179.109375 147.210938 179.34375 145.433594 C 179.378906 145.171875 180.378906 144.175781 180.378906 143.878906 C 180.375 142.925781 177.910156 140.824219 180.898438 141.28125 C 180.734375 140.0625 178.441406 140.972656 178.824219 139.207031 C 179.242188 139.480469 179.667969 139.75 180.378906 139.726562 C 180.378906 139.207031 180.378906 138.6875 180.378906 138.167969 Z M 180.378906 138.167969 " fill-opacity="1" fill-rule="evenodd"/><path fill="#000000" d="M 177.789062 161.007812 L 180.378906 161.007812 C 180.621094 162.113281 179.636719 161.996094 178.824219 162.042969 C 179.097656 162.460938 179.367188 162.886719 179.34375 163.601562 C 178.261719 163.820312 177.972656 163.246094 177.269531 163.082031 C 177.203125 162.152344 177.902344 161.988281 177.789062 161.007812 Z M 177.789062 161.007812 " fill-opacity="1" fill-rule="evenodd"/><g clip-path="url(#fbe6749143)"><path fill="#000000" d="M 190.222656 130.902344 C 187.847656 130.945312 188.242188 133.761719 185.558594 133.496094 C 190.558594 135.441406 194.847656 141.570312 195.921875 149.070312 C 205.195312 146.007812 211.234375 138.371094 220.792969 135.574219 C 222.507812 135.070312 224.269531 135.671875 225.453125 134.015625 C 226.082031 127.359375 228.671875 120.335938 230.117188 113.773438 C 231.210938 108.792969 230.53125 103.054688 234.261719 99.757812 C 234.332031 102 232.339844 106.203125 234.261719 107.023438 C 230.863281 111.40625 230.023438 118.351562 228.5625 124.671875 C 231.851562 119.492188 232.640625 111.800781 235.816406 106.503906 C 231.863281 106.042969 241.578125 96.359375 243.585938 93.527344 C 244.382812 92.40625 244.601562 88.585938 246.695312 88.859375 C 246.78125 87.214844 245.320312 87.121094 245.660156 85.222656 C 246.339844 85.40625 246.472656 86.136719 247.214844 86.261719 C 247.914062 84.96875 248.785156 82.328125 247.214844 81.589844 C 250.203125 77.40625 249.164062 74.359375 249.285156 70.171875 C 249.886719 70.253906 250.207031 70.054688 250.320312 69.652344 C 252.09375 69.433594 251.878906 71.207031 252.910156 71.726562 C 250.742188 74.605469 253.171875 76.351562 250.839844 79.511719 C 250.679688 81.136719 252.335938 78.195312 252.394531 80.03125 C 251.867188 82.878906 248.128906 85.382812 250.324219 87.816406 C 249.136719 88.703125 248.238281 89.882812 247.214844 90.933594 C 247.59375 91.417969 248.15625 91.71875 248.769531 91.972656 C 236.328125 99.921875 233.824219 117.832031 228.5625 132.976562 C 228.425781 134.496094 229.734375 134.574219 229.597656 136.09375 C 223.359375 140.636719 217.25 145.828125 208.875 148.550781 C 204.890625 149.84375 200.414062 149.988281 196.957031 152.703125 C 197.273438 157.542969 199.003906 163.230469 198.511719 170.351562 C 199.394531 171.195312 201.113281 171.207031 201.621094 172.425781 C 201.441406 174.148438 198.632812 173.242188 196.960938 173.464844 C 198.132812 176.984375 195.011719 181.621094 199.550781 181.769531 C 200.046875 183.652344 197.3125 182.296875 196.960938 183.328125 C 198.03125 185.234375 196.820312 186.199219 196.441406 188 C 201.753906 192.949219 209.9375 185.539062 216.644531 182.808594 C 217.671875 182.390625 218.855469 182.722656 219.753906 182.289062 C 222.101562 181.160156 226.671875 178.917969 229.597656 177.617188 C 235.410156 177.375 237.6875 174.082031 244.105469 175.542969 C 246.820312 176.160156 251.011719 178.984375 254.46875 180.214844 C 257.308594 181.222656 259.554688 181.472656 262.238281 182.808594 C 267.105469 185.226562 277.746094 193.199219 281.925781 193.710938 C 284.449219 194.015625 287.242188 192.976562 290.734375 192.671875 C 298.628906 191.984375 305.707031 187.304688 313.011719 184.886719 C 313.496094 184.503906 313.796875 183.941406 314.050781 183.328125 C 317.21875 182.507812 321.265625 181.429688 322.855469 184.367188 C 323.210938 186.105469 321.988281 186.265625 320.785156 186.441406 C 320.914062 187.832031 322.96875 188.417969 321.820312 189.558594 C 318.613281 185.367188 314.796875 187.007812 309.902344 188.519531 C 310.128906 189.160156 310.566406 189.585938 311.457031 189.558594 C 310.492188 192.046875 308.621094 188.449219 306.796875 190.078125 C 305.246094 190.417969 307.292969 191.1875 306.796875 192.152344 C 304.589844 191.847656 303.371094 192.527344 301.613281 192.671875 C 300.394531 195.355469 292.652344 195.636719 287.109375 196.304688 C 280.890625 197.058594 280.101562 197.019531 274.15625 194.746094 C 263.113281 190.527344 251.816406 184.558594 242.035156 178.65625 C 236.65625 179.722656 233.65625 183.835938 229.082031 186.441406 C 227.699219 187.230469 225.515625 187.71875 223.898438 188.519531 C 222.40625 189.257812 221.042969 190.683594 219.753906 191.113281 C 215.441406 192.550781 211.15625 191.234375 205.765625 193.191406 C 204.800781 193.117188 204.035156 192.847656 203.695312 192.152344 C 201.878906 194.65625 197.179688 194.277344 194.886719 196.304688 C 192.921875 204.378906 193.554688 213.300781 200.066406 214.992188 C 200.886719 215.203125 201.894531 214.488281 202.660156 214.472656 C 214.625 214.214844 235.144531 208.828125 246.179688 214.472656 C 248.441406 218.125 250.085938 221.644531 251.878906 225.371094 C 254.875 231.613281 257.539062 237.964844 260.6875 245.617188 C 261.582031 247.796875 263.203125 249.804688 263.792969 251.84375 C 265.011719 256.058594 264.617188 260.820312 266.386719 264.820312 C 268.726562 270.121094 274.597656 274.667969 278.300781 279.355469 C 279.261719 280.570312 279.367188 282.25 280.375 283.507812 C 280.933594 284.207031 282.230469 284.835938 282.964844 285.582031 C 287.710938 290.441406 293.6875 296.816406 299.027344 301.675781 C 299.550781 301.339844 299.5625 300.480469 300.578125 300.636719 C 304.609375 308.019531 313.9375 310.09375 320.269531 315.171875 C 319.863281 317.738281 316.527344 314.164062 316.121094 316.730469 C 314.648438 315.785156 314.316406 313.695312 313.011719 312.574219 C 312.195312 312.621094 311.039062 312.324219 310.941406 313.097656 C 307.027344 310.269531 302.898438 307.65625 299.542969 304.273438 C 291.964844 301.828125 289.277344 294.488281 282.964844 290.773438 C 282.429688 287.835938 279.472656 286.550781 277.785156 284.546875 C 275.105469 281.363281 273.332031 277.285156 270.53125 274.164062 C 270.144531 273.734375 268.863281 273.621094 268.457031 273.128906 C 265.425781 269.429688 262.320312 264.375 260.167969 259.632812 C 257.171875 253.023438 254.484375 247.003906 251.878906 239.90625 C 249.355469 233.035156 248.28125 223.925781 243.070312 217.585938 C 234.269531 220.261719 222.503906 221.214844 210.429688 220.183594 C 208.105469 219.984375 205.195312 218.855469 203.179688 218.625 C 202.59375 218.558594 201.453125 219.097656 201.621094 219.144531 C 198.144531 218.226562 196.832031 215.152344 193.851562 216.027344 C 193.582031 215.261719 193.085938 214.722656 192.816406 213.953125 C 189.980469 214.023438 187.65625 213.585938 185.5625 212.914062 C 184.039062 215.496094 185.941406 219.097656 187.117188 220.703125 C 187.210938 222.523438 185.367188 222.410156 185.046875 223.816406 C 185.644531 225.117188 187.109375 225.554688 187.117188 227.449219 C 189.636719 227.132812 189.777344 227.132812 192.296875 227.449219 C 192.941406 229.167969 194.75 228.671875 195.925781 229.527344 C 203.15625 234.785156 205.054688 245.726562 209.394531 253.921875 C 210.292969 262.5625 212.757812 269.875 211.46875 279.355469 C 211.289062 280.664062 210.902344 282.054688 210.429688 284.546875 C 210.316406 285.167969 209.460938 286.179688 209.394531 286.621094 C 206.773438 304.210938 196.652344 317.195312 184.527344 325.550781 C 168.941406 317.460938 158.558594 304.164062 156.550781 282.46875 C 156.464844 281.859375 155.605469 282.03125 154.996094 281.949219 C 154.019531 258.824219 159.347656 242.015625 168.984375 229.523438 C 171.515625 228.933594 174.242188 226.992188 177.273438 228.488281 C 177.949219 227.257812 178.136719 225.546875 178.828125 224.335938 C 178.917969 223.035156 177.667969 223.074219 177.273438 222.257812 C 177.863281 219.042969 179.714844 217.089844 179.863281 213.433594 C 173.234375 209.855469 171.703125 219.828125 167.429688 217.066406 C 166.476562 217.839844 165.613281 218.707031 164.839844 219.664062 C 152.289062 222.945312 135.507812 221.066406 120.285156 220.183594 C 115.847656 225.253906 115.90625 234.828125 112.511719 240.945312 L 112.511719 244.578125 C 108.191406 252.929688 107.511719 262.234375 102.667969 269.492188 C 101.550781 271.167969 99.839844 272.824219 98.523438 274.683594 C 95.203125 279.375 91.90625 283.6875 88.160156 288.699219 C 85.496094 292.269531 83.253906 295.921875 79.871094 298.042969 C 79.246094 300.183594 77.222656 300.925781 76.246094 302.714844 L 74.691406 302.714844 C 67.570312 307.691406 61.738281 313.957031 53.449219 317.765625 C 53.1875 319.460938 56.023438 318.867188 54.484375 320.363281 C 52.28125 319.527344 51.121094 319.65625 49.304688 319.324219 C 49.234375 316.402344 53.101562 316.125 51.894531 313.613281 C 55.753906 313.671875 57.621094 311.738281 60.703125 311.019531 C 60.363281 310.320312 59.59375 310.050781 58.628906 309.980469 C 64.011719 308.101562 68.246094 305.082031 71.0625 300.636719 C 72.695312 300.886719 73.089844 299.898438 74.171875 299.597656 C 82.246094 290.980469 89.714844 281.433594 96.96875 271.570312 C 97.910156 270.289062 99.484375 268.589844 100.078125 267.417969 C 102.351562 262.90625 102.519531 256.980469 104.222656 251.84375 C 104.515625 250.957031 105.441406 250.667969 105.777344 249.769531 C 107.203125 245.953125 107.425781 241.507812 108.886719 237.828125 C 109.390625 236.554688 110.449219 235.542969 110.960938 234.195312 C 113.3125 228.007812 115.746094 222.132812 118.730469 216.546875 C 131.90625 209.726562 154.140625 217.289062 165.875 214.472656 C 169.929688 210.007812 172.304688 203.480469 168.984375 196.824219 C 162.523438 193.019531 147.472656 193.757812 139.972656 190.597656 C 137.890625 189.71875 135.394531 188.28125 133.238281 186.964844 C 131.351562 185.808594 129.714844 183.398438 127.539062 182.292969 C 126.386719 181.707031 124.148438 182.910156 123.910156 180.734375 C 114.546875 184.496094 106.28125 189.0625 97.488281 194.230469 C 89.375 198.996094 82.996094 201.496094 70.546875 198.382812 C 68.921875 198.628906 69.179688 196.984375 67.957031 196.828125 C 61.394531 197.691406 59.46875 193.914062 53.96875 193.710938 C 56.980469 191.664062 51.109375 192.042969 50.339844 190.597656 C 49.148438 190.4375 49.765625 192.097656 48.789062 192.152344 C 47.222656 191.648438 46.183594 190.609375 45.679688 189.039062 C 51.941406 187.199219 55.015625 190.035156 60.183594 192.152344 C 67.34375 195.089844 73.3125 196.304688 82.464844 197.863281 C 89.984375 193.980469 96.765625 189.351562 104.222656 185.40625 C 105.417969 185.246094 104.796875 186.90625 105.777344 186.964844 C 107.765625 185.148438 110.9375 184.519531 113.03125 182.808594 C 111.863281 181.839844 109.386719 183.980469 107.851562 184.367188 C 110.09375 181.386719 114.421875 180.632812 119.25 179.175781 C 120.335938 178.847656 121.457031 177.761719 122.359375 177.621094 C 139.324219 174.953125 150.511719 189.332031 164.324219 191.117188 C 165.925781 190.992188 166.335938 189.671875 167.433594 189.039062 C 167.046875 186.660156 165.875 185.0625 163.804688 184.371094 C 163.789062 182.449219 167.027344 183.789062 166.914062 181.773438 C 165.695312 179.882812 165.464844 177 165.359375 173.988281 C 165.191406 172.265625 163.101562 175.355469 162.769531 173.46875 C 162.269531 171.410156 164.269531 171.859375 165.359375 171.394531 C 163.628906 166.644531 163.875 157.410156 165.878906 153.226562 C 163.09375 149.386719 156.410156 150.394531 150.855469 148.554688 C 143.738281 146.199219 139.371094 141.375 133.757812 137.652344 C 130.59375 129.304688 130.6875 120.84375 126.503906 112.21875 C 124.027344 107.121094 120.328125 103.003906 117.695312 98.722656 C 113.957031 92.648438 109.832031 87.667969 108.886719 79.519531 C 108.667969 77.613281 108.617188 73.96875 110.960938 73.289062 C 112.15625 76.480469 111.957031 78.574219 111.996094 82.113281 C 112.070312 88.683594 118.761719 95.828125 121.839844 101.839844 C 123.519531 105.117188 125.839844 107.167969 128.058594 109.105469 C 129.921875 106.179688 126.832031 103.769531 126.503906 101.320312 C 131.128906 105 130.832031 112.417969 132.203125 118.96875 C 133.269531 124.054688 134.691406 129.207031 135.3125 134.019531 C 139.359375 139.042969 147.824219 139.484375 154.480469 142.84375 C 155.667969 143.441406 156.445312 144.800781 157.589844 145.4375 C 160.289062 146.9375 163.265625 148.425781 166.398438 149.59375 C 167.871094 143.453125 169.171875 137.148438 175.207031 135.578125 C 175.28125 134.289062 175.300781 133.058594 174.167969 132.980469 C 174.324219 131.578125 176.347656 132.050781 176.757812 130.90625 C 175.652344 129.855469 175.066406 132.257812 173.132812 131.941406 C 174.410156 132.558594 172.070312 133.90625 173.648438 134.539062 C 172.523438 135.261719 168.171875 134.210938 172.097656 133.5 C 171.878906 132.335938 169.347656 133.484375 168.988281 132.460938 C 168.609375 131.046875 170.015625 131.417969 170.023438 130.386719 C 169.289062 130.429688 168.554688 130.472656 168.46875 129.867188 C 167.699219 130.09375 168.671875 130.53125 168.46875 131.421875 C 166.808594 131.878906 167.394531 130.078125 166.398438 129.867188 C 165.121094 131.011719 167.660156 132.722656 168.988281 132.980469 C 163.320312 133.117188 162.671875 125.484375 160.699219 118.449219 C 160.214844 116.730469 159.140625 115.265625 159.144531 114.296875 C 159.160156 108.199219 164.597656 107.207031 166.914062 103.394531 C 161.476562 100.433594 150.75 103.535156 144.636719 100.28125 C 145.273438 93.824219 146.304688 87.761719 148.261719 82.632812 C 146.835938 81.15625 148.371094 80.910156 148.261719 80.039062 C 147.839844 76.65625 144.613281 72.886719 145.15625 69.65625 C 144.835938 68.601562 143.160156 68.671875 142.5625 68.097656 C 142.296875 67.84375 142.800781 66.828125 142.5625 66.542969 C 140.894531 64.539062 136.542969 62.101562 134.792969 59.792969 C 133.304688 57.832031 132.457031 54.84375 131.683594 52.007812 C 136.875 50.847656 138.5 57.59375 142.5625 59.277344 C 144.070312 65.265625 148.4375 68.484375 150.335938 74.847656 C 150.722656 76.140625 149.941406 78.691406 151.890625 79.519531 C 150.957031 84.824219 148.742188 90.53125 147.226562 96.648438 C 152.460938 99.707031 161.597656 98.859375 167.433594 101.320312 C 172.636719 97.035156 174.789062 87.449219 184.53125 89.378906 C 184.933594 89.84375 185.085938 90.554688 185.046875 91.457031 C 190.300781 92.25 190.308594 98.296875 193.339844 101.320312 C 192.332031 101.753906 187.878906 104.476562 188.15625 101.320312 C 187.359375 101.902344 186.882812 102.808594 186.085938 103.394531 C 185.917969 104.769531 188.988281 102.910156 188.15625 104.949219 C 186.0625 105.449219 185.324219 107.300781 181.941406 106.507812 C 184.453125 106.085938 182.269531 100.957031 186.085938 101.835938 C 186.328125 100.035156 183.273438 101.539062 182.976562 100.28125 C 182.820312 98.160156 184.058594 100.003906 185.046875 99.761719 C 186.042969 99.09375 183.824219 98.6875 185.046875 97.164062 C 187.515625 97.953125 186.335938 96.75 188.675781 96.648438 C 188.097656 95.496094 186.625 95.242188 186.085938 94.050781 C 184.339844 94.890625 187.710938 95.695312 186.085938 96.648438 C 184.6875 95.195312 181.191406 94.542969 178.832031 95.609375 C 178.765625 96.539062 179.464844 96.703125 179.351562 97.683594 C 178.710938 97.457031 178.285156 97.019531 178.3125 96.128906 C 176.542969 97.570312 176.792969 98.171875 174.167969 98.203125 C 174.757812 99.878906 177.71875 100.792969 174.6875 101.839844 C 175.570312 102.855469 178.320312 102.003906 178.832031 103.394531 C 178.046875 106.835938 172.625 108.144531 170.542969 108.585938 C 170.359375 110.46875 171.875 111.910156 171.0625 113.777344 C 171.476562 113.5 171.902344 113.234375 172.613281 113.257812 C 173.871094 112.625 171.554688 111.253906 171.578125 110.140625 C 173.8125 109.464844 172.21875 112.613281 174.167969 112.21875 C 172.726562 114.957031 171.363281 114.835938 169.507812 117.410156 C 169.273438 118.257812 172.332031 118.257812 172.097656 117.410156 C 172.960938 118.789062 171.746094 119.714844 174.167969 120.003906 C 173.277344 121.394531 174.535156 121.976562 173.132812 123.117188 C 173.285156 124.699219 175.871094 123.835938 176.242188 125.195312 C 177.648438 125.566406 175.871094 122.746094 177.277344 123.117188 C 180.261719 122.726562 179.382812 126.199219 182.457031 125.714844 C 182.605469 126.550781 181.96875 126.605469 181.941406 127.269531 C 184.277344 127.023438 185.960938 125.117188 187.121094 125.195312 C 186.847656 122.039062 184.347656 126.828125 183.496094 124.675781 C 181.949219 122.867188 184.71875 122.058594 186.085938 121.5625 C 185.34375 120.800781 185.324219 119.550781 187.121094 120.003906 C 187.515625 117.730469 186.753906 116.988281 188.675781 115.851562 C 187.601562 114.136719 186.097656 117.925781 184.53125 115.851562 C 183.769531 117.824219 186.847656 115.953125 186.085938 117.929688 C 184.507812 117.777344 182.546875 118.011719 182.457031 116.371094 C 184.703125 116.585938 183.136719 112.882812 185.566406 113.777344 C 185.46875 111.066406 181.21875 111.3125 179.867188 112.738281 C 180.3125 114.367188 182.863281 113.890625 182.976562 115.851562 C 181.757812 115.863281 181.449219 114.957031 179.867188 115.332031 C 180.207031 115.859375 181.058594 115.871094 180.90625 116.890625 C 180.148438 117.632812 179.261719 117.289062 179.351562 115.851562 C 177.058594 116.582031 180.007812 119.523438 177.796875 120.523438 C 175.449219 120.910156 178.589844 119.097656 176.242188 119.484375 C 175.117188 119.398438 176.007812 121.324219 175.722656 122.082031 C 173.628906 120.792969 175.835938 119.964844 175.722656 117.929688 C 174.84375 117.738281 174.746094 118.332031 174.6875 118.964844 C 172.738281 114.390625 177.597656 112.613281 176.757812 107.546875 C 177.359375 107.980469 178.148438 108.230469 179.351562 108.066406 C 179.386719 109.308594 175.550781 111.054688 178.3125 111.699219 C 178.160156 113.449219 176.015625 113.203125 175.722656 114.8125 C 176.53125 116.371094 177.539062 112.410156 178.832031 114.292969 C 180.039062 112.257812 178.199219 112.367188 178.3125 110.140625 C 181.324219 111.003906 186.195312 109.320312 188.675781 111.699219 C 186.882812 108.535156 189.074219 105.792969 189.195312 103.914062 C 193.039062 102.230469 198.121094 101.785156 202.664062 100.800781 C 200.390625 99.578125 197.265625 101.953125 194.375 101.835938 C 200.472656 99.46875 206.589844 97.117188 214.0625 96.128906 C 213.859375 92.28125 209.757812 87.625 211.992188 84.707031 C 212.269531 82.871094 210.15625 83.433594 210.4375 81.59375 C 210.996094 79.070312 211.527344 79.300781 210.4375 76.921875 C 212.285156 75.503906 213.632812 71.9375 213.027344 69.65625 C 213.441406 69.378906 213.867188 69.113281 214.582031 69.136719 C 213.570312 66.917969 215.703125 66.800781 216.136719 65.5 C 216.664062 63.917969 216.601562 62.6875 217.691406 60.832031 C 218.070312 60.183594 219.476562 59.429688 219.761719 58.753906 C 219.992188 58.207031 219.453125 57.179688 219.761719 56.675781 C 221.902344 53.183594 225.945312 49.851562 229.089844 49.929688 C 228.3125 55.382812 225.539062 58.832031 221.835938 61.347656 C 222.183594 63.949219 220.453125 64.460938 219.246094 65.5 C 217.152344 71.050781 213.867188 75.84375 214.0625 82.628906 C 214.226562 88.199219 217.066406 94.597656 216.136719 99.757812 C 209.324219 101.066406 202.207031 102.070312 195.410156 103.394531 C 195.746094 107.210938 200.15625 106.941406 201.628906 109.621094 C 201.363281 114.988281 200.011719 119.925781 198.519531 125.195312 C 197.261719 129.636719 194.695312 132.777344 189.710938 134.019531 C 190.683594 133.207031 188.960938 131.992188 190.222656 130.902344 Z M 88.15625 196.304688 C 93.8125 194.953125 97.792969 191.066406 102.144531 188.515625 C 102.773438 188.148438 104.082031 188.828125 103.699219 187.480469 C 96.964844 188.863281 93.203125 193.230469 88.15625 196.304688 Z M 129.085938 116.886719 C 130.316406 120.605469 129.914062 125.179688 132.714844 127.785156 C 130.496094 123.640625 131.242188 112.445312 125.976562 108.582031 C 126.019531 111.550781 128.148438 114.046875 129.085938 116.886719 Z M 220.273438 60.828125 C 224.863281 60.582031 223.476562 54.347656 227.007812 53.042969 C 226.027344 53.160156 225.863281 52.457031 224.933594 52.523438 C 223.726562 55.636719 219.910156 56.136719 220.273438 60.828125 Z M 141.003906 62.386719 C 139.359375 59.011719 137.570312 55.785156 133.75 54.597656 C 134.867188 58.5 137.433594 60.945312 141.003906 62.386719 Z M 174.160156 96.125 C 176.640625 95.664062 178.53125 94.617188 180.378906 93.527344 L 180.378906 90.933594 C 179.605469 91.019531 178.464844 90.746094 178.304688 91.453125 C 180.386719 93.238281 176.148438 93.0625 175.714844 94.046875 C 177.101562 94.652344 174.367188 95.402344 174.160156 96.125 Z M 203.175781 100.277344 C 206.824219 99.351562 211.773438 99.71875 213.535156 97.679688 C 210.492188 96.890625 205.761719 98.882812 203.175781 100.277344 Z M 150.328125 98.71875 C 149.011719 98.691406 147.035156 98.253906 146.703125 99.757812 C 150.027344 99.886719 152.851562 100.449219 157.0625 100.796875 C 156.429688 99.683594 152.46875 98.761719 150.328125 98.71875 Z M 168.980469 121.558594 C 169.144531 122.777344 171.4375 121.867188 171.050781 123.632812 C 170.148438 123.671875 169.441406 123.519531 168.980469 123.113281 C 168.449219 124.859375 170.589844 123.921875 171.570312 124.152344 C 171.160156 122.355469 172.144531 121.960938 172.605469 121.039062 C 169.707031 121.398438 172.925781 118.851562 170.535156 118.960938 C 171.261719 123.078125 169.136719 119.5625 168.980469 121.558594 Z M 165.871094 128.304688 C 164.765625 126.382812 165.292969 122.777344 163.800781 122.597656 C 163.101562 124.082031 163.753906 127.984375 165.871094 128.304688 Z M 172.605469 139.726562 C 172.203125 139.839844 171.585938 139.738281 171.570312 140.246094 C 172.480469 140.542969 174.613281 139.617188 174.679688 140.761719 L 173.644531 140.761719 C 173.335938 141.6875 175.160156 142.917969 173.644531 143.359375 C 173.324219 142.640625 171.648438 143.28125 171.570312 142.320312 C 170.511719 140.644531 174.511719 141.589844 172.609375 140.761719 L 171.570312 140.761719 C 170.691406 143.597656 167.203125 145.875 171.570312 143.359375 C 171.070312 145.542969 174.117188 142.515625 174.160156 144.914062 C 173.582031 145.023438 173.355469 145.492188 173.125 145.953125 C 173.878906 146.238281 175.804688 145.347656 175.714844 146.472656 C 175.238281 147.378906 174.09375 147.617188 172.605469 147.511719 C 172.144531 149.335938 172.707031 149.21875 171.570312 150.625 C 173.535156 150.242188 176.117188 151.914062 175.195312 152.703125 C 173.460938 151.726562 171.359375 151.921875 170.015625 149.589844 C 169.589844 151.054688 170.746094 150.933594 170.535156 152.183594 C 169.902344 152.242188 169.308594 152.339844 169.496094 153.222656 C 170.78125 154.558594 171.34375 152.871094 172.089844 152.183594 C 172.40625 152.902344 174.082031 152.261719 174.160156 153.222656 C 174.050781 153.804688 173.585938 154.03125 173.125 154.261719 C 171.65625 153.621094 169.699219 153.839844 168.980469 155.296875 C 170.988281 155.558594 170.359375 161.292969 168.460938 161.007812 C 168.777344 161.039062 169.074219 161.085938 168.980469 161.527344 C 169.007812 161.84375 169.054688 162.140625 169.496094 162.046875 C 169.042969 160.226562 170.839844 161.507812 171.050781 162.046875 C 170.992188 164.101562 171.769531 166.089844 171.050781 167.757812 C 170.074219 165.816406 170.667969 165.679688 168.460938 166.71875 C 167.71875 164.246094 170.628906 165.429688 170.015625 163.085938 C 168.242188 164.539062 168.398438 163.242188 166.90625 162.046875 C 167.683594 164.433594 166.894531 164.191406 165.351562 165.160156 C 167.0625 165.390625 167.117188 165.605469 165.871094 167.238281 C 167.320312 167.835938 168.5625 167.835938 170.015625 167.238281 C 170.042969 167.902344 170.679688 167.957031 170.53125 168.792969 C 167.773438 168.246094 170.402344 169.886719 168.980469 170.351562 C 167.992188 170.128906 167.675781 169.234375 166.386719 169.3125 C 166.328125 171.625 168.605469 171.589844 170.015625 172.425781 C 169.777344 169.160156 172.953125 172.355469 175.195312 171.390625 C 174.625 165.730469 171.644531 159.726562 171.050781 155.816406 C 172.328125 157.261719 172.550781 157.039062 172.089844 154.777344 C 172.597656 155.230469 175.347656 154.996094 176.234375 154.261719 C 175.601562 154.203125 175.007812 154.105469 175.195312 153.222656 C 176.652344 153.667969 177.1875 155.035156 177.789062 156.335938 C 176.4375 156.503906 172.960938 155.035156 173.640625 157.894531 C 174.109375 156.488281 174.894531 158.988281 175.195312 159.449219 C 173.800781 158.226562 172.707031 160.449219 173.640625 159.449219 C 177.4375 159.996094 176.910156 161.960938 175.714844 164.640625 C 177.574219 165.371094 177.609375 168.921875 176.75 170.871094 C 181.089844 171.949219 182.476562 170.300781 186.59375 171.390625 C 185.910156 168.265625 188.988281 166.195312 187.632812 164.121094 C 187.761719 166.359375 185.421875 165.75 186.59375 167.753906 C 184.597656 169.304688 182.375 167.40625 181.933594 170.351562 C 181.496094 169.75 181.25 168.960938 181.414062 167.753906 C 183.1875 167.644531 182.972656 166.042969 184.003906 167.753906 C 184.15625 166.695312 185.40625 166.738281 185.558594 165.679688 C 182.894531 166.398438 181.234375 166.015625 179.859375 163.605469 C 180.574219 163.625 180.996094 163.359375 181.414062 163.085938 C 181.484375 164.746094 182.589844 165.367188 184.523438 165.160156 C 185.320312 162.976562 181.839844 165.078125 181.933594 163.605469 C 182.617188 163.597656 182.40625 162.695312 182.96875 162.566406 C 185.664062 163.691406 185.226562 160.910156 188.148438 161.007812 C 188.445312 159.328125 187.992188 158.398438 187.113281 157.894531 C 187.191406 156.070312 190.28125 157.261719 190.222656 155.296875 C 188.570312 154.988281 188.621094 156.273438 187.632812 155.296875 C 187.777344 156.8125 187.507812 157.082031 186.597656 156.335938 C 186.296875 158.023438 186.949219 158.75 187.113281 159.96875 C 184.535156 159.960938 183.242188 158.65625 181.933594 157.375 L 185.042969 157.375 C 185.128906 158.152344 184.859375 159.289062 185.5625 159.453125 C 186.539062 158.644531 184.816406 157.429688 186.078125 156.335938 C 185.304688 156.25 184.167969 156.523438 184.007812 155.816406 C 185.640625 154.6875 184.347656 150.621094 187.632812 151.144531 C 188.539062 148.164062 184.730469 149.902344 184.523438 148.03125 C 186.265625 148.5625 185.332031 146.417969 185.5625 145.4375 C 186.597656 146.707031 187.96875 146.449219 188.152344 144.398438 C 186.441406 144.003906 186.875 141.832031 186.597656 141.28125 C 186.589844 141.964844 185.160156 141.945312 185.042969 141.28125 C 187.839844 140.300781 182.960938 140.390625 185.042969 138.6875 C 182.625 138.167969 180.558594 137.296875 179.863281 135.054688 C 181.023438 137.679688 176.226562 138.695312 175.199219 137.132812 L 175.199219 138.167969 C 174.882812 138.199219 174.585938 138.246094 174.679688 138.6875 C 175.496094 138.738281 176.476562 138.617188 176.234375 139.726562 C 173.082031 140.957031 174.140625 136.863281 173.644531 138.171875 C 172.789062 138.175781 173.351562 139.605469 172.605469 139.726562 Z M 143.074219 142.320312 C 145.789062 143.910156 149.746094 144.828125 151.882812 146.472656 L 151.882812 144.398438 C 148.347656 143.144531 146.03125 141.007812 143.59375 140.761719 C 144.15625 140.886719 144.835938 141.617188 144.113281 141.800781 C 141.980469 139.957031 140.019531 137.941406 136.859375 137.128906 C 138.851562 139.691406 140.289062 140.6875 143.074219 142.320312 Z M 205.246094 145.953125 C 209.347656 145.566406 211.214844 142.933594 215.609375 142.839844 C 216.699219 141.214844 218.601562 139.242188 220.789062 140.242188 C 219.085938 138.359375 223.011719 138.574219 221.308594 137.128906 C 216.832031 140.953125 209.433594 141.84375 205.246094 145.953125 Z M 193.847656 170.867188 C 195.136719 170.949219 195.453125 170.054688 196.441406 169.832031 C 196.453125 168.609375 195.546875 168.300781 195.921875 166.714844 C 196.632812 166.691406 197.058594 166.960938 197.476562 167.234375 C 196.613281 166.195312 197.519531 163.386719 196.441406 162.5625 C 194.949219 165.847656 195.914062 168.386719 193.847656 170.867188 Z M 187.632812 170.867188 C 189.269531 170.785156 189.363281 172.246094 191.257812 171.90625 C 189.742188 170.222656 190.777344 165.945312 188.667969 166.195312 C 189.382812 166.78125 187.574219 169.226562 187.632812 170.867188 Z M 174.679688 179.175781 C 176.886719 177.578125 179.472656 176.363281 180.894531 173.984375 C 179.519531 170.507812 174.683594 172.539062 171.570312 172.945312 C 171.867188 173.859375 170.945312 175.996094 172.089844 176.058594 C 172.949219 174.898438 174.980469 176.933594 174.679688 178.65625 C 174.390625 178.652344 174.089844 179.074219 174.679688 179.175781 Z M 182.453125 175.539062 C 184.117188 175.628906 185.648438 178.53125 187.113281 177.097656 C 185.15625 175.917969 188.898438 176.179688 189.1875 175.539062 C 188.8125 173.953125 189.714844 173.648438 189.703125 172.425781 L 182.96875 172.425781 C 183.039062 173.707031 183.046875 174.925781 182.453125 175.539062 Z M 175.714844 180.730469 C 175.707031 182.742188 178.992188 183.300781 177.269531 185.402344 C 178.082031 185.453125 179.066406 185.332031 178.824219 186.441406 C 180.71875 186.734375 181.613281 185.996094 182.96875 184.367188 C 182.785156 184.585938 182.324219 183.707031 182.449219 183.328125 C 182.777344 182.332031 184.460938 182.042969 184.523438 181.769531 C 184.503906 181.851562 182.824219 181.507812 183.484375 180.734375 C 186.007812 179.933594 185.039062 182.636719 186.078125 183.328125 C 185.945312 181.46875 187.632812 181.425781 187.632812 179.695312 C 185.050781 178.472656 183.734375 175.984375 179.859375 176.0625 C 179.308594 178.449219 175.867188 177.941406 175.714844 180.730469 Z M 166.90625 179.175781 C 168.394531 179.273438 169.925781 181.992188 171.050781 180.730469 C 169.609375 179.410156 168.09375 178.15625 166.90625 176.578125 Z M 231.671875 178.136719 C 226.503906 180.335938 219.519531 183.679688 215.089844 185.921875 C 214.0625 186.445312 211.667969 186.394531 211.464844 188 C 215.757812 188.84375 217.003906 186.996094 219.238281 185.921875 C 219.160156 185.957031 219.753906 186.667969 220.273438 186.441406 C 220.433594 186.371094 220.480469 185.574219 220.792969 185.402344 C 221.695312 184.90625 223.527344 184.511719 224.9375 183.847656 C 226.261719 183.222656 227.664062 182.058594 228.5625 181.769531 C 228.589844 181.761719 229.003906 182.5625 229.597656 182.289062 C 230.390625 181.925781 230.53125 181.105469 231.152344 180.734375 C 233.304688 179.441406 236.148438 179.027344 237.886719 177.097656 C 235.601562 177.230469 234.640625 178.691406 231.671875 178.136719 Z M 134.785156 180.210938 C 131.277344 180.339844 129.285156 179.269531 125.976562 178.136719 C 125.757812 179.125 124.496094 179.074219 124.941406 180.730469 C 128.332031 178.867188 133.132812 182.3125 134.785156 185.402344 C 134.726562 182.25 136.207031 184.65625 137.375 184.882812 C 139.019531 185.207031 142.535156 184.71875 143.074219 186.441406 C 143.976562 182.675781 136.707031 182.851562 134.785156 180.210938 Z M 259.648438 184.882812 C 258.25 184.019531 254.597656 182.699219 253.429688 183.328125 C 254.714844 184.308594 258.207031 185.78125 259.648438 184.882812 Z M 178.304688 196.824219 C 179.328125 196.460938 178.179688 193.925781 179.34375 193.707031 C 180.796875 195.90625 182.441406 194.167969 185.042969 194.226562 C 185.324219 194.980469 184.4375 196.910156 185.558594 196.824219 C 186.914062 194.863281 186.058594 193.890625 186.597656 191.113281 C 183.601562 191.757812 186.476562 189.386719 185.042969 189.035156 C 184.207031 189.753906 183.003906 190.109375 182.453125 191.113281 C 183.632812 190.96875 184.398438 191.238281 184.523438 192.148438 C 180.5 193.222656 176.285156 192.359375 174.160156 190.074219 C 174.304688 191.257812 174.039062 192.023438 173.125 192.148438 C 173.007812 191.746094 173.109375 191.125 172.605469 191.113281 C 173.789062 193.734375 177.75 193.574219 178.304688 196.824219 Z M 191.777344 198.898438 C 191.808594 198.742188 192.792969 199.160156 192.8125 199.417969 C 192.824219 199.542969 191.648438 201.476562 192.292969 202.535156 C 190.378906 202.171875 190.003906 203.355469 190.222656 205.128906 C 189.457031 204.527344 188.917969 204.527344 188.152344 205.128906 C 189.023438 206.921875 187.390625 208.535156 189.703125 209.28125 C 192.035156 206.507812 195.042969 197.8125 193.332031 195.265625 C 194.136719 197.480469 192.003906 197.789062 191.777344 198.898438 Z M 180.894531 200.457031 L 180.894531 202.011719 C 182.734375 201.800781 181.921875 199.742188 184.003906 200.976562 C 182.652344 199.082031 183.203125 199.257812 185.042969 198.378906 C 182.304688 196.421875 181.71875 200.394531 178.304688 199.417969 C 177.507812 201.386719 177.003906 203.648438 176.234375 205.644531 C 178.125 205.96875 176.644531 202.140625 178.824219 201.492188 C 179.53125 202.871094 178.230469 199.589844 180.894531 200.457031 Z M 167.945312 213.953125 C 171.121094 214.035156 173.339844 209.351562 171.054688 207.203125 C 171.128906 210.566406 168.6875 211.410156 167.945312 213.953125 Z M 174.160156 208.761719 C 175.300781 210.25 176.589844 208.371094 176.234375 211.355469 C 176.988281 211.070312 178.910156 211.960938 178.824219 210.835938 C 177.933594 209.308594 176.179688 208.640625 175.199219 207.203125 C 175.074219 207.945312 174.34375 208.078125 174.160156 208.761719 Z M 194.886719 214.988281 C 195.746094 214.066406 195.636719 211.1875 193.847656 211.355469 C 193.128906 212.90625 193.238281 214.535156 194.886719 214.988281 Z M 215.089844 215.507812 C 211.386719 215.824219 207.210938 214.394531 205.246094 216.546875 C 205.597656 218.0625 211.339844 215.890625 209.390625 218.105469 C 211.070312 218.746094 209.789062 216.425781 211.464844 217.066406 C 219.179688 218.050781 228.539062 217.027344 237.886719 213.953125 C 230.613281 211.660156 222.6875 214.867188 215.089844 215.507812 Z M 153.957031 216.546875 C 151.433594 216.402344 148.914062 216.75 146.703125 216.546875 C 139.160156 215.859375 130.898438 213.886719 124.941406 217.066406 C 135.375 217.402344 147.613281 218.453125 159.136719 218.105469 C 158.792969 215.480469 155.429688 216.632812 153.957031 216.546875 Z M 179.859375 221.738281 C 181.242188 221.179688 184.601562 220.179688 185.039062 221.738281 C 185.019531 219.683594 183.902344 218.726562 183.484375 217.066406 C 182.023438 217.496094 182.144531 216.335938 180.894531 216.546875 C 180.386719 217.789062 178.703125 220.542969 179.859375 221.738281 Z M 179.34375 226.410156 C 180.988281 228.863281 183.285156 226.835938 185.042969 227.445312 C 184.753906 226.523438 184.777344 225.292969 184.003906 224.851562 C 183.835938 225.605469 180.082031 224.785156 179.34375 226.410156 Z M 191.257812 232.636719 C 191.542969 231.882812 190.652344 229.953125 191.777344 230.042969 C 192.105469 230.476562 194.199219 231.667969 194.367188 230.5625 C 192.378906 229.957031 191.121094 228.625 188.152344 229.003906 C 189.34375 230.058594 190.347656 231.300781 191.257812 232.636719 Z M 107.328125 249.25 C 109.601562 242.804688 113.246094 235.496094 113.542969 230.042969 C 111.101562 235.730469 107.9375 243.457031 107.328125 249.25 Z M 189.1875 235.234375 C 187.828125 234.902344 184.898438 236.308594 183.488281 234.195312 C 183.707031 233.207031 184.96875 233.257812 184.523438 231.597656 C 180.996094 232.742188 176.660156 231.054688 173.125 230.5625 C 172.707031 231.527344 172.457031 232.660156 171.570312 233.15625 C 173.433594 232.972656 174.035156 232.332031 174.160156 231.597656 C 174.742188 231.710938 174.96875 232.175781 175.199219 232.636719 C 174.476562 233.742188 173.40625 235.488281 172.609375 233.675781 C 171.394531 236.277344 172.507812 238.308594 169.5 239.386719 C 168.839844 243.398438 169.003906 248.234375 166.390625 250.285156 C 167.140625 252.589844 166.894531 254.28125 164.835938 254.957031 C 165.996094 255.179688 165.046875 257.515625 165.355469 258.589844 C 164.105469 259.070312 163.417969 260.109375 162.765625 261.1875 C 161.835938 261.1875 159.75 259.789062 159.136719 261.1875 C 161.75 261.976562 162.808594 261.191406 164.316406 262.742188 C 164.980469 266.316406 161.984375 267.707031 164.316406 268.972656 C 164.433594 268.566406 164.75 268.371094 165.355469 268.453125 C 166.65625 262.980469 172.332031 255.210938 172.089844 248.210938 C 174.386719 245.726562 172.285156 241.84375 174.679688 239.902344 C 174.890625 238.652344 173.734375 238.773438 174.160156 237.308594 C 174.898438 237.183594 175.035156 236.453125 175.714844 236.269531 C 176.890625 237.046875 174.480469 240.222656 175.714844 240.941406 C 177.3125 238.757812 176.792969 235.460938 176.75 233.675781 C 178.105469 234.863281 178.515625 233.777344 179.859375 234.714844 C 179.71875 235.785156 177.566406 234.835938 177.789062 236.269531 C 178.5625 236.359375 179.699219 236.085938 179.859375 236.789062 C 178.976562 237.003906 179.96875 237.460938 179.859375 238.347656 L 178.304688 238.347656 C 178.363281 239.640625 179.277344 239.953125 178.304688 240.941406 C 180.34375 241.773438 178.484375 238.699219 179.859375 238.867188 C 180.039062 240.417969 181.425781 240.757812 182.449219 241.460938 C 182.769531 243.199219 179.132812 243.628906 180.894531 245.097656 C 181.996094 244.3125 182.605469 241.011719 184.003906 243.539062 C 183.875 241.9375 183.480469 240.605469 182.96875 239.386719 C 183.988281 239.542969 183.996094 238.683594 184.523438 238.347656 C 185.019531 239.234375 186.152344 239.484375 187.113281 239.90625 C 187.664062 238.898438 188.867188 238.546875 189.703125 237.828125 C 187.226562 237.367188 185.578125 238.066406 184.523438 237.308594 C 184.820312 234.472656 189.207031 237.40625 189.1875 235.234375 Z M 199.03125 239.90625 C 199.121094 237.507812 200.222656 241.375 201.621094 240.941406 C 201.996094 239.355469 200.726562 239.414062 201.101562 237.828125 C 199.585938 238.292969 199.511719 238.292969 197.992188 237.828125 C 197.847656 239.011719 198.117188 239.78125 199.03125 239.90625 Z M 260.683594 254.957031 C 260.386719 250.640625 258.175781 247.578125 257.058594 245.097656 C 256.25 243.304688 256.574219 240.679688 254.46875 239.90625 C 256.4375 245.027344 258.300781 250.253906 260.683594 254.957031 Z M 195.402344 244.578125 C 194.652344 245.382812 193.683594 245.964844 193.332031 247.171875 C 194.746094 246.792969 194.375 248.203125 195.402344 248.210938 C 195.59375 246.851562 195.855469 245.171875 195.921875 242.5 L 193.332031 242.5 C 192.949219 244.269531 195.238281 243.355469 195.402344 244.578125 Z M 199.546875 244.578125 C 199.628906 243.964844 199.460938 243.101562 200.066406 243.019531 C 200.960938 244.199219 202.210938 245.023438 202.140625 247.171875 C 204.917969 246.566406 205.042969 248.621094 204.210938 250.285156 C 205.132812 249.976562 206.363281 251.808594 206.800781 250.285156 C 205.058594 248.222656 203.457031 246.023438 202.65625 243.019531 C 201.074219 243.394531 200.769531 242.488281 199.546875 242.5 C 198.839844 242.546875 198.839844 246.234375 199.546875 244.578125 Z M 175.714844 250.285156 C 175.6875 249.394531 176.113281 248.957031 176.753906 248.730469 C 177.46875 249.046875 176.828125 250.726562 177.789062 250.804688 C 178.007812 249.816406 179.269531 249.867188 178.824219 248.210938 C 177.472656 248.355469 176.234375 248.382812 176.753906 246.652344 C 177.234375 246.96875 178.664062 247.859375 178.304688 246.132812 C 177.949219 244.835938 176.925781 247.09375 175.714844 246.652344 C 177.210938 247.972656 174.117188 250.789062 175.714844 250.285156 Z M 179.859375 251.324219 C 179.703125 250.695312 181.355469 249.535156 181.414062 250.804688 C 180.769531 252.234375 178.769531 252.304688 177.789062 253.398438 C 179.167969 255.667969 176.492188 256.941406 177.789062 258.589844 C 178.863281 257.074219 178.769531 252.199219 181.414062 253.921875 C 181.382812 251.984375 181.9375 250.636719 182.449219 249.25 C 180.136719 250.3125 180.796875 245.769531 179.339844 247.691406 C 181.246094 248.328125 178.085938 250.816406 179.859375 251.324219 Z M 205.246094 255.476562 C 206 255.191406 207.925781 256.082031 207.835938 254.957031 C 205.757812 255.140625 208.105469 250.878906 205.246094 251.84375 C 204.851562 253.007812 207.640625 253.496094 205.765625 254.4375 C 205.019531 254.714844 204.503906 252.414062 204.210938 253.917969 C 204.9375 254.054688 204.800781 255.058594 205.246094 255.476562 Z M 173.125 254.4375 C 173.007812 254.035156 173.109375 253.414062 172.605469 253.402344 C 173.859375 256.082031 173.074219 256.960938 172.089844 259.628906 C 173.90625 259.324219 173.792969 262.082031 175.195312 260.667969 C 174.082031 258.738281 174.585938 259.707031 175.714844 258.070312 C 174.960938 257.789062 173.039062 258.679688 173.125 257.550781 C 174.113281 257.332031 174.0625 256.070312 175.714844 256.515625 C 175.367188 255.136719 174.898438 253.871094 174.160156 252.882812 C 174.1875 253.773438 173.761719 254.210938 173.125 254.4375 Z M 262.753906 261.1875 C 262.972656 259.042969 262.339844 255.058594 260.683594 256.515625 C 261.832031 257.613281 260.90625 260.789062 262.753906 261.1875 Z M 170.535156 263.261719 C 171.796875 265.492188 171.035156 264.96875 170.015625 266.894531 C 170.730469 266.875 171.15625 267.140625 171.570312 267.414062 C 171.960938 266.070312 173.171875 263.984375 172.089844 262.746094 C 172.492188 262.628906 173.113281 262.730469 173.125 262.226562 C 171.472656 261.78125 171.523438 263.042969 170.535156 263.261719 Z M 185.042969 269.492188 C 183.742188 270.265625 182.1875 270.785156 181.414062 272.085938 C 184.171875 273.433594 185.433594 270.277344 187.113281 268.972656 C 185.597656 267.570312 186.671875 266.957031 187.113281 265.339844 C 186.085938 265.332031 186.457031 263.921875 185.042969 264.300781 C 186.839844 268.097656 182.894531 267.710938 185.042969 269.492188 Z M 194.367188 272.085938 C 194.222656 273.445312 194.558594 274.320312 195.921875 274.164062 C 196.011719 273.386719 195.738281 272.246094 196.441406 272.085938 C 197.347656 274.621094 197.050781 272.132812 199.03125 273.125 C 199.503906 271.796875 199.871094 270.183594 198.511719 269.492188 C 197.074219 270.269531 199.414062 271.613281 197.996094 272.085938 C 196.613281 271.417969 197.613281 269.175781 196.957031 268.972656 C 195.832031 269.75 196.128906 271.949219 194.367188 272.085938 Z M 168.980469 270.53125 C 168.863281 270.933594 168.964844 271.554688 168.460938 271.566406 C 168.367188 270.800781 167.210938 271.09375 166.390625 271.046875 C 166.542969 272.070312 165.691406 272.078125 165.351562 272.605469 C 165.964844 272.855469 166.527344 273.160156 166.90625 273.644531 C 166.003906 273.605469 165.296875 273.757812 164.835938 274.164062 C 165.167969 271.925781 162.914062 272.277344 161.207031 272.085938 C 161.878906 271.398438 161.890625 270.15625 160.6875 270.011719 C 159.660156 271.96875 161.292969 274.042969 161.207031 275.203125 C 161.1875 275.445312 160.035156 275.078125 160.171875 275.722656 C 160.25 276.085938 162.90625 277.007812 161.207031 277.796875 C 164.617188 278.480469 167.4375 276.765625 171.050781 276.238281 C 170.734375 276.210938 170.4375 276.164062 170.53125 275.71875 C 170.503906 275.402344 170.457031 275.105469 170.015625 275.203125 C 169.578125 276.421875 167.34375 275.167969 166.90625 274.683594 C 168.691406 274.710938 170.582031 272.167969 168.980469 270.53125 Z M 98 272.605469 C 90.40625 281.433594 83.480469 290.933594 76.242188 300.117188 C 84.953125 293.074219 93.15625 279.558594 98 272.605469 Z M 162.246094 280.910156 C 163.027344 279.460938 164.480469 279.984375 165.355469 280.910156 C 165.285156 279.109375 167.980469 280.078125 167.945312 278.316406 C 165.085938 277.699219 165.105469 279.96875 162.246094 279.351562 C 162.449219 280.246094 161.476562 280.683594 162.246094 280.910156 Z M 170.535156 279.871094 C 171.410156 281.632812 172.632812 281.035156 170.535156 282.46875 C 172 282.039062 171.878906 283.199219 173.125 282.988281 C 172.53125 281.355469 173.9375 281.726562 174.160156 280.914062 C 173.230469 280.976562 172.949219 280.394531 173.125 279.355469 C 171.875 279.140625 172 280.300781 170.535156 279.871094 Z M 199.03125 286.101562 C 199.5 284.21875 200.558594 285.785156 202.140625 285.582031 C 202.292969 284.5625 201.4375 284.554688 201.101562 284.023438 C 201.132812 283.363281 201.765625 283.304688 201.621094 282.46875 C 199.875 282.476562 197.925781 284.960938 199.03125 286.101562 Z M 162.246094 291.292969 C 163.945312 290.480469 164.53125 290.523438 165.871094 290.253906 C 165.996094 287.5 163.949219 290.140625 162.765625 288.695312 C 163.191406 290.164062 162.03125 290.042969 162.246094 291.292969 Z M 204.210938 295.445312 C 205.089844 294.941406 205.542969 294.011719 205.246094 292.332031 C 203.011719 292.335938 201.832031 293.40625 200.066406 293.886719 C 201.65625 294.398438 199.46875 295.273438 199.546875 295.964844 C 201.09375 295.824219 202.703125 297.414062 203.175781 295.445312 C 201.828125 295.753906 201.308594 295.234375 201.621094 293.886719 C 202.597656 294.117188 204.742188 293.179688 204.210938 294.925781 C 203.921875 294.921875 203.621094 295.347656 204.210938 295.445312 Z M 166.910156 304.789062 C 167.925781 304.941406 167.933594 304.085938 168.460938 303.75 C 168.796875 301.683594 167.089844 301.664062 167.425781 299.597656 L 165.871094 299.597656 C 165.949219 302.257812 168.019531 302.125 166.910156 304.789062 Z M 166.910156 304.789062 " fill-opacity="1" fill-rule="evenodd"/></g><path fill="#000000" d="M 180.894531 98.199219 C 180.992188 97.757812 180.695312 97.710938 180.378906 97.679688 C 182.207031 95.863281 180.296875 99.203125 181.414062 99.238281 C 181.078125 99.765625 180.222656 99.773438 180.378906 100.792969 C 179.625 99.820312 176.988281 100.730469 176.234375 99.757812 C 177.617188 96.949219 179.074219 100.246094 180.894531 98.199219 Z M 180.894531 98.199219 " fill-opacity="1" fill-rule="evenodd"/></svg>