<svg xmlns="http://www.w3.org/2000/svg" xmlns:xlink="http://www.w3.org/1999/xlink" width="500" zoomAndPan="magnify" viewBox="0 0 375 374.999991" height="500" preserveAspectRatio="xMidYMid meet" version="1.0"><defs><clipPath id="1d14f5f68a"><path d="M 17 12.367188 L 357.996094 12.367188 L 357.996094 310 L 17 310 Z M 17 12.367188 " clip-rule="nonzero"/></clipPath><clipPath id="f3fc5f9347"><path d="M 98 108 L 276 108 L 276 362.617188 L 98 362.617188 Z M 98 108 " clip-rule="nonzero"/></clipPath></defs><path fill="#5e17eb" d="M 119.015625 274.507812 L 111.503906 275.988281 C 115.625 279.308594 119.996094 282.324219 124.511719 285.113281 L 131.613281 282.773438 C 127.207031 280.320312 123.050781 277.507812 119.015625 274.507812 Z M 119.015625 274.507812 " fill-opacity="1" fill-rule="nonzero"/><path fill="#5e17eb" d="M 255.546875 274.507812 C 251.507812 277.507812 247.355469 280.320312 242.949219 282.78125 L 250.046875 285.113281 C 254.566406 282.324219 258.933594 279.308594 263.054688 275.988281 Z M 255.546875 274.507812 " fill-opacity="1" fill-rule="nonzero"/><g clip-path="url(#1d14f5f68a)"><path fill="#5e17eb" d="M 330.9375 176.480469 C 327.875 101.910156 267.796875 41.828125 193.21875 38.769531 L 195.882812 12.367188 L 178.6875 12.367188 L 181.34375 38.769531 C 106.769531 41.828125 46.679688 101.910156 43.625 176.480469 L 17.21875 173.824219 L 17.21875 191 L 43.625 188.355469 C 45.792969 241.109375 76.511719 286.585938 120.691406 309.777344 L 118.882812 295.484375 C 81.921875 273.035156 56.707031 233.140625 55.066406 187.207031 L 66.835938 186.027344 C 67.699219 214.847656 78.761719 241.074219 96.460938 261.398438 L 94.960938 256.03125 L 98.308594 254.800781 C 82.800781 235.777344 73.230469 211.722656 72.550781 185.445312 L 102.707031 182.414062 L 72.550781 179.390625 C 74.148438 118.464844 123.328125 69.269531 184.25 67.664062 L 187.28125 97.84375 L 190.320312 67.660156 C 251.242188 69.265625 300.417969 118.464844 302.011719 179.386719 L 271.855469 182.410156 L 302.011719 185.441406 C 301.34375 211.71875 291.769531 235.777344 276.253906 254.796875 L 279.609375 256.027344 L 278.101562 261.394531 C 295.804688 241.070312 306.859375 214.84375 307.730469 186.023438 L 319.5 187.203125 C 317.859375 233.121094 292.644531 273.035156 255.691406 295.480469 L 253.875 309.773438 C 298.050781 286.585938 328.769531 241.109375 330.9375 188.355469 L 357.339844 191 L 357.339844 173.824219 Z M 66.828125 178.8125 L 55.0625 177.628906 C 57.535156 108.464844 113.328125 52.679688 182.484375 50.199219 L 183.671875 61.976562 C 120.046875 63.867188 68.726562 115.175781 66.828125 178.8125 Z M 307.730469 178.8125 C 305.835938 115.175781 254.507812 63.867188 190.886719 61.976562 L 192.074219 50.199219 C 261.234375 52.679688 317.035156 108.464844 319.5 177.628906 Z M 307.730469 178.8125 " fill-opacity="1" fill-rule="nonzero"/></g><g clip-path="url(#f3fc5f9347)"><path fill="#000000" d="M 145.996094 111.363281 L 147.25 108.347656 C 147.710938 108.558594 189.417969 126.867188 182.714844 182.308594 C 184.140625 181.480469 185.679688 181.03125 187.285156 181.03125 C 188.890625 181.03125 190.429688 181.480469 191.855469 182.308594 C 185.148438 126.867188 226.855469 108.558594 227.316406 108.347656 L 228.582031 111.363281 C 228.148438 111.5625 186.6875 129.695312 195.609375 185.855469 C 196.996094 187.921875 198.164062 190.648438 198.996094 194.210938 C 203.976562 197.683594 208.53125 203.34375 212.402344 210.621094 C 207.976562 219.035156 202.625 225.230469 196.804688 228.449219 C 193.78125 230.195312 190.550781 231.128906 187.289062 231.128906 C 184.027344 231.128906 180.800781 230.195312 177.773438 228.449219 C 171.953125 225.230469 166.597656 219.035156 162.175781 210.621094 C 166.050781 203.34375 170.597656 197.683594 175.574219 194.210938 C 176.410156 190.648438 177.574219 187.921875 178.96875 185.855469 C 187.875 129.695312 146.417969 111.5625 145.996094 111.363281 Z M 256.425781 263.003906 L 275.664062 266.789062 L 259.328125 260.804688 L 243.410156 234.515625 L 223.261719 243.542969 C 222.0625 237.117188 220.488281 231.140625 218.660156 225.613281 L 252.269531 195.210938 L 250.089844 192.800781 L 217.542969 222.292969 C 216.808594 220.246094 216.027344 218.320312 215.238281 216.460938 C 210.625 224.128906 205.234375 229.96875 199.484375 233.175781 C 195.621094 235.347656 191.425781 236.511719 187.28125 236.511719 C 183.132812 236.511719 178.933594 235.347656 175.078125 233.175781 C 169.328125 229.96875 163.941406 224.128906 159.324219 216.460938 C 158.527344 218.320312 157.757812 220.246094 157.019531 222.292969 L 124.472656 192.800781 L 122.292969 195.210938 L 155.898438 225.613281 C 154.070312 231.140625 152.5 237.117188 151.304688 243.542969 L 131.152344 234.515625 L 115.234375 260.804688 L 98.894531 266.789062 L 118.125 263.003906 L 132.476562 240.902344 L 150.453125 248.835938 C 149.085938 257.503906 148.359375 266.757812 148.359375 276.410156 C 148.359375 280.75 148.554688 285.023438 148.851562 289.1875 L 130.398438 295.230469 L 136.1875 340.816406 L 131.050781 361.9375 L 138.671875 340.191406 L 137.679688 301.601562 L 149.554688 297.335938 C 153.796875 334.796875 169.058594 362.59375 187.28125 362.628906 C 205.519531 362.59375 220.765625 334.796875 225.007812 297.335938 L 236.882812 301.601562 L 235.890625 340.191406 L 243.511719 361.9375 L 238.375 340.816406 L 244.164062 295.230469 L 225.703125 289.1875 C 225.996094 285.023438 226.1875 280.75 226.1875 276.410156 C 226.1875 266.757812 225.464844 257.507812 224.113281 248.835938 L 242.078125 240.902344 Z M 256.425781 263.003906 " fill-opacity="1" fill-rule="nonzero"/></g><path stroke-linecap="butt" transform="matrix(0, 0.75, -0.75, 0, 190.499992, 242.632966)" fill="none" stroke-linejoin="miter" d="M -0.000205289 1.999989 L 159.999805 1.999989 " stroke="#000000" stroke-width="4" stroke-opacity="1" stroke-miterlimit="4"/></svg>