<svg xmlns="http://www.w3.org/2000/svg" xmlns:xlink="http://www.w3.org/1999/xlink" width="500" zoomAndPan="magnify" viewBox="0 0 375 374.999991" height="500" preserveAspectRatio="xMidYMid meet" version="1.0"><defs><clipPath id="f9aad54488"><path d="M 47 37.5 L 335 37.5 L 335 324 L 47 324 Z M 47 37.5 " clip-rule="nonzero"/></clipPath><clipPath id="5d846be5fe"><path d="M 27.746094 86.039062 L 347.238281 86.039062 L 347.238281 278.472656 L 27.746094 278.472656 Z M 27.746094 86.039062 " clip-rule="nonzero"/></clipPath></defs><path stroke-linecap="butt" transform="matrix(0.0446824, 0.748668, -0.748668, 0.0446824, 236.866923, 213.034805)" fill="none" stroke-linejoin="miter" d="M 0.00122432 1.998062 L 33.571274 1.998049 " stroke="#000000" stroke-width="4" stroke-opacity="1" stroke-miterlimit="4"/><g clip-path="url(#f9aad54488)"><path fill="#5e17eb" d="M 190.945312 59.558594 C 124.046875 59.558594 69.621094 113.984375 69.621094 180.886719 C 69.621094 247.785156 124.046875 302.210938 190.945312 302.210938 C 257.847656 302.210938 312.273438 247.785156 312.273438 180.886719 C 312.273438 113.984375 257.847656 59.558594 190.945312 59.558594 Z M 190.945312 324.269531 C 171.59375 324.269531 152.816406 320.476562 135.128906 312.996094 C 126.632812 309.402344 118.4375 304.953125 110.769531 299.773438 C 103.179688 294.648438 96.042969 288.757812 89.558594 282.273438 C 83.074219 275.789062 77.183594 268.648438 72.054688 261.0625 C 66.878906 253.394531 62.429688 245.199219 58.835938 236.699219 C 51.355469 219.015625 47.5625 200.238281 47.5625 180.886719 C 47.5625 161.535156 51.355469 142.753906 58.835938 125.070312 C 62.429688 116.574219 66.878906 108.375 72.054688 100.707031 C 77.183594 93.121094 83.074219 85.984375 89.558594 79.496094 C 96.042969 73.011719 103.179688 67.121094 110.769531 61.996094 C 118.4375 56.816406 126.632812 52.367188 135.128906 48.773438 C 152.816406 41.292969 171.59375 37.5 190.945312 37.5 C 210.296875 37.5 229.078125 41.292969 246.761719 48.773438 C 255.261719 52.367188 263.453125 56.816406 271.121094 61.996094 C 278.710938 67.121094 285.847656 73.011719 292.335938 79.496094 C 298.820312 85.984375 304.707031 93.121094 309.835938 100.707031 C 315.015625 108.375 319.464844 116.574219 323.058594 125.070312 C 330.539062 142.753906 334.332031 161.535156 334.332031 180.886719 C 334.332031 200.238281 330.539062 219.015625 323.058594 236.699219 C 319.464844 245.199219 315.015625 253.394531 309.835938 261.0625 C 304.707031 268.648438 298.820312 275.789062 292.335938 282.273438 C 285.847656 288.757812 278.710938 294.648438 271.121094 299.773438 C 263.453125 304.953125 255.261719 309.402344 246.761719 312.996094 C 229.078125 320.476562 210.296875 324.269531 190.945312 324.269531 " fill-opacity="1" fill-rule="nonzero"/></g><g clip-path="url(#5d846be5fe)"><path fill="#1a181a" d="M 344.214844 138.082031 C 342.015625 142.464844 338.636719 145.847656 333.460938 146.8125 C 332.960938 146.90625 332.269531 147.339844 332.132812 147.765625 C 331.582031 149.429688 330.347656 150.242188 328.804688 150.507812 C 325.40625 151.09375 321.988281 151.632812 318.554688 151.984375 C 314.570312 152.398438 310.558594 152.550781 306.5625 152.886719 C 301.511719 153.308594 298.390625 156.824219 295.191406 160.152344 C 292.710938 162.730469 290.550781 165.675781 287.808594 167.917969 C 284.0625 170.972656 279.824219 173.410156 275.933594 176.304688 C 272.691406 178.714844 269.808594 181.460938 271.300781 186.1875 C 271.460938 186.695312 271.386719 187.273438 271.460938 187.816406 C 272.175781 193.160156 272.808594 198.519531 273.660156 203.84375 C 274.167969 207 276.007812 209.117188 279.035156 210.542969 C 285.007812 213.351562 290.828125 216.488281 296.675781 219.558594 C 297.289062 219.878906 297.671875 221.757812 297.605469 221.824219 C 296.8125 222.675781 296.347656 223.140625 296.089844 223.339844 C 296.332031 223.902344 296.269531 224.890625 296.097656 225.398438 C 295.925781 225.90625 294.902344 226.332031 294.214844 226.40625 C 293.113281 226.519531 291.980469 226.3125 290.878906 226.242188 C 290.546875 228.84375 290.015625 229.136719 287.648438 228.164062 C 284.960938 227.054688 282.367188 225.523438 279.570312 224.921875 C 275.621094 224.074219 273.144531 221.652344 270.746094 218.730469 C 268.03125 215.429688 264.902344 212.566406 260.402344 211.847656 C 259.867188 211.761719 259.332031 211.605469 258.824219 211.414062 C 251.910156 208.785156 245.007812 206.121094 238.082031 203.515625 C 235.800781 202.65625 230.722656 202.085938 228.316406 202.484375 C 225.03125 203.027344 221.765625 203.703125 218.5 204.367188 C 214.234375 205.230469 210.007812 206.644531 205.703125 206.921875 C 198.324219 207.390625 190.90625 207.210938 183.5 207.183594 C 181.804688 207.179688 180.726562 207.664062 180.152344 209.273438 C 179.519531 211.042969 178.707031 212.761719 178.210938 214.566406 C 177.941406 215.550781 178.164062 216.667969 178.164062 217.761719 C 179.421875 217.828125 180.433594 218.039062 181.394531 217.910156 C 186.925781 217.15625 192.429688 215.851562 197.972656 215.664062 C 202.449219 215.507812 207.011719 216.460938 211.460938 217.304688 C 214.117188 217.8125 214.3125 218.695312 213.078125 220.648438 C 213.132812 220.75 213.171875 220.867188 213.25 220.949219 C 214.019531 221.761719 215.707031 221.898438 215.273438 223.589844 C 214.867188 225.175781 214.117188 226.425781 212.148438 226.21875 C 211.964844 226.195312 211.636719 226.378906 211.578125 226.542969 C 210.980469 228.199219 209.449219 228.25 208.125 228.417969 C 204.230469 228.910156 200.332031 229.480469 196.417969 229.628906 C 189.820312 229.882812 183.207031 229.882812 176.601562 229.886719 C 172.566406 229.890625 169.222656 227.75 165.894531 225.855469 C 162.816406 224.101562 161.695312 220.449219 162.765625 217.066406 C 163.359375 215.175781 162.367188 213.324219 160.375 212.898438 C 158.898438 212.582031 157.378906 212.371094 155.871094 212.320312 C 150.558594 212.140625 145.246094 211.953125 139.933594 211.96875 C 137.054688 211.980469 134.09375 212.054688 131.320312 212.71875 C 127.273438 213.6875 123.410156 215.402344 119.378906 216.449219 C 113.28125 218.042969 107.089844 219.28125 100.960938 220.773438 C 96.953125 221.75 92.910156 222.695312 89.019531 224.046875 C 84.28125 225.6875 79.632812 227.617188 75.046875 229.65625 C 70.144531 231.839844 64.941406 233.445312 60.773438 237.125 C 58.707031 238.949219 55.925781 240.371094 53.664062 241.972656 C 50.054688 244.535156 50.46875 251.015625 54.355469 252.957031 C 55.671875 253.613281 56.914062 254.921875 58.277344 255.445312 C 60.582031 256.328125 62.980469 256.96875 65.296875 257.820312 C 72.699219 260.53125 80.714844 261.613281 88.53125 262.410156 C 94.082031 262.976562 99.609375 263.8125 105.222656 262.738281 C 108.472656 262.117188 111.804688 261.925781 115.097656 261.554688 C 117.867188 261.242188 120.648438 261.007812 123.40625 260.632812 C 126.46875 260.214844 129.507812 259.648438 132.566406 259.199219 C 135.925781 258.703125 139.316406 258.386719 142.648438 257.761719 C 146.933594 256.960938 151.171875 255.917969 155.433594 254.996094 C 163.148438 253.332031 170.867188 252.179688 178.574219 250.503906 C 186.328125 248.820312 194.160156 247.507812 202.066406 248.40625 C 208.933594 249.183594 214.566406 250.226562 221.398438 251.273438 C 227.886719 252.265625 232.800781 254.292969 238.09375 258.335938 C 238.488281 258.632812 238.707031 259.15625 239.007812 259.574219 C 238.515625 259.851562 238.027344 260.363281 237.535156 260.367188 C 235.90625 260.378906 234.257812 260.304688 232.644531 260.085938 C 223.453125 258.828125 216.699219 257.441406 207.496094 256.273438 C 205.113281 255.96875 202.640625 256.199219 200.21875 256.347656 C 196.042969 256.601562 191.828125 256.691406 187.71875 257.390625 C 183.320312 258.136719 178.996094 259.394531 174.699219 260.636719 C 167.589844 262.695312 160.558594 265 153.449219 267.050781 C 149.144531 268.292969 144.773438 269.320312 140.40625 270.332031 C 131.195312 272.464844 122.007812 274.707031 112.738281 276.558594 C 102.4375 278.621094 91.96875 278.617188 81.507812 278.246094 C 76.230469 278.058594 70.941406 277.402344 65.679688 276.949219 C 62.636719 276.6875 59.539062 276.191406 56.636719 275.261719 C 52.667969 273.996094 48.882812 272.648438 44.984375 271.152344 C 37.390625 268.242188 31.941406 263.066406 28.792969 255.613281 C 28.015625 253.785156 27.628906 251.582031 27.777344 249.605469 C 28.367188 241.59375 32.203125 235.199219 38.398438 230.246094 C 44.929688 225.019531 51.851562 220.382812 59.195312 216.3125 C 66.066406 212.507812 72.902344 208.75 80.300781 206.015625 C 89.238281 202.707031 98.046875 199.054688 106.898438 195.511719 C 107.324219 195.339844 107.714844 194.835938 107.921875 194.394531 C 108.789062 192.554688 109.472656 190.628906 110.414062 188.832031 C 112.800781 184.285156 115.277344 179.78125 117.742188 175.273438 C 118.554688 173.789062 119.742188 172.445312 120.242188 170.875 C 122.328125 164.304688 124.175781 157.65625 126.199219 151.066406 C 127.410156 147.132812 128.445312 143.09375 130.160156 139.378906 C 132.335938 134.667969 134.917969 130.109375 137.699219 125.722656 C 140.285156 121.640625 142.835938 117.410156 146.824219 114.457031 C 150.042969 112.078125 153.28125 109.679688 156.742188 107.691406 C 162.8125 104.199219 169.390625 101.933594 176.148438 100.050781 C 183.417969 98.027344 190.648438 97.863281 197.921875 99.449219 C 206.578125 101.339844 215.191406 103.429688 223.8125 105.476562 C 226.699219 106.160156 229.597656 106.851562 232.414062 107.765625 C 235.53125 108.777344 238.628906 109.882812 241.933594 109.726562 C 245.675781 109.546875 249.566406 109.664062 253.085938 108.625 C 256.804688 107.527344 260.160156 105.214844 263.667969 103.421875 C 263.929688 103.292969 264.183594 103.125 264.378906 102.914062 C 266.101562 101.066406 267.820312 99.214844 269.507812 97.339844 C 269.839844 96.972656 270.367188 96.363281 270.253906 96.082031 C 269.328125 93.742188 270.316406 91.828125 271.382812 89.878906 C 273.417969 86.152344 278.640625 84.90625 282.046875 87.371094 C 283.027344 88.082031 283.953125 88.882812 284.96875 89.539062 C 287.621094 91.25 288.355469 93.761719 288.300781 96.746094 C 288.265625 98.679688 288.449219 100.625 288.683594 102.546875 C 288.730469 102.949219 289.363281 103.515625 289.800781 103.601562 C 292 104.019531 294.25 104.191406 296.429688 104.667969 C 299.449219 105.328125 302.460938 106.066406 305.402344 106.988281 C 309.957031 108.417969 314.527344 109.84375 318.949219 111.628906 C 323.148438 113.324219 327.207031 115.390625 331.246094 117.457031 C 336.492188 120.136719 341.664062 122.988281 345.402344 127.738281 C 346.625 129.296875 347.878906 130.964844 346.878906 133.167969 C 346.109375 134.863281 345.054688 136.414062 344.214844 138.082031 " fill-opacity="1" fill-rule="nonzero"/></g><path fill="#5e17eb" d="M 280.8125 286.351562 L 84.101562 89.640625 L 99.699219 74.039062 L 296.414062 270.753906 L 280.8125 286.351562 " fill-opacity="1" fill-rule="nonzero"/></svg>