<svg xmlns="http://www.w3.org/2000/svg" xmlns:xlink="http://www.w3.org/1999/xlink" width="500" zoomAndPan="magnify" viewBox="0 0 375 374.999991" height="500" preserveAspectRatio="xMidYMid meet" version="1.0"><path stroke-linecap="butt" transform="matrix(0.0446824, 0.748668, -0.748668, 0.0446824, 206.547764, 187.502904)" fill="none" stroke-linejoin="miter" d="M 0.00199989 1.999648 L 33.57205 1.999635 " stroke="#000000" stroke-width="4" stroke-opacity="1" stroke-miterlimit="4"/><path fill="#000000" d="M 185.957031 346.160156 C 180.554688 344.285156 173.261719 338.992188 172.316406 336.253906 C 171.65625 334.34375 168.191406 328.789062 166.21875 326.480469 C 165.453125 325.585938 164.058594 323.570312 163.121094 322.003906 C 157.046875 311.875 155.742188 303.277344 155.515625 271.964844 C 155.40625 257.078125 155.675781 252.953125 157.625 239.921875 C 158.855469 231.695312 160.578125 221.886719 161.453125 218.125 C 162.328125 214.363281 163.046875 210.074219 163.046875 208.589844 C 163.046875 207.109375 163.378906 204.835938 163.78125 203.535156 C 164.1875 202.238281 165.136719 198.429688 165.890625 195.074219 C 166.644531 191.71875 167.773438 188.167969 168.398438 187.183594 C 170.980469 183.113281 167.664062 184.902344 161.699219 190.804688 C 158.195312 194.269531 153.777344 198.324219 151.882812 199.8125 C 148.039062 202.828125 144.90625 208.363281 144.066406 213.609375 C 143.761719 215.523438 142.816406 219.367188 141.964844 222.152344 C 141.117188 224.9375 139.320312 231.832031 137.976562 237.476562 C 135.796875 246.625 132.574219 254.753906 127.6875 263.421875 C 127.054688 264.539062 126.34375 266.414062 126.109375 267.585938 C 125.773438 269.25 121.433594 276.53125 119.382812 278.875 C 119.1875 279.09375 118.675781 278.636719 118.238281 277.859375 C 117.121094 275.863281 116.144531 276.089844 114.742188 278.679688 C 112.429688 282.941406 113.347656 278.171875 115.902344 272.652344 C 117.242188 269.75 118.339844 266.898438 118.339844 266.3125 C 118.339844 265.726562 118.886719 264.792969 119.558594 264.234375 C 120.230469 263.679688 120.777344 262.199219 120.777344 260.945312 C 120.777344 259.679688 121.714844 257.550781 122.882812 256.160156 C 124.039062 254.785156 124.632812 253.660156 124.195312 253.660156 C 123.761719 253.660156 124.605469 251.371094 126.070312 248.574219 C 127.535156 245.777344 129.335938 240.742188 130.074219 237.386719 C 130.808594 234.027344 133.371094 225.058594 135.769531 217.449219 C 138.164062 209.84375 140.371094 202.792969 140.667969 201.789062 C 141.234375 199.867188 143.53125 199.21875 143.550781 200.972656 C 143.558594 201.671875 143.796875 201.621094 144.308594 200.808594 C 145.300781 199.242188 144.621094 198.277344 142.972656 198.910156 C 142.242188 199.191406 141.835938 199.082031 142.066406 198.671875 C 142.296875 198.257812 143.480469 195.789062 144.691406 193.183594 C 146.824219 188.597656 147.300781 188.175781 159.238281 180.3125 L 171.582031 172.183594 L 171.644531 166.136719 C 171.714844 159.242188 172.027344 159.449219 164.265625 161.324219 C 161.585938 161.972656 156.535156 162.507812 153.050781 162.515625 C 149.113281 162.523438 145.84375 162.976562 144.421875 163.714844 C 142.921875 164.488281 139.816406 168.628906 135.414062 175.714844 C 131.71875 181.664062 128.195312 186.824219 127.582031 187.183594 C 126.96875 187.539062 126.46875 188.171875 126.46875 188.582031 C 126.46875 189.46875 121.449219 196.992188 120.601562 197.371094 C 120.28125 197.515625 118.882812 199.621094 117.492188 202.050781 C 114.667969 206.996094 112.984375 207.851562 113.761719 203.949219 C 114.175781 201.878906 113.976562 201.351562 112.644531 201.003906 C 110.609375 200.472656 110.609375 199.382812 112.652344 196.296875 C 113.867188 194.457031 114.265625 194.21875 114.269531 195.335938 C 114.277344 197.214844 116.992188 196.851562 117.363281 194.925781 C 117.535156 194.035156 116.984375 193.480469 115.757812 193.308594 L 113.894531 193.039062 L 115.566406 191.414062 C 116.484375 190.519531 118.234375 188.042969 119.453125 185.910156 C 121.992188 181.480469 128.855469 171.898438 131.3125 169.359375 C 132.226562 168.417969 132.972656 167.1875 132.972656 166.625 C 132.972656 165.488281 140.792969 156.601562 142.222656 156.117188 C 142.722656 155.945312 143.773438 155.25 144.554688 154.566406 C 145.648438 153.613281 148.617188 153.269531 157.46875 153.070312 C 163.789062 152.929688 169.050781 152.710938 169.160156 152.585938 C 169.269531 152.460938 169.511719 150.101562 169.703125 147.34375 C 170.050781 142.34375 170.042969 142.328125 167.667969 141.851562 C 166.355469 141.589844 164.140625 141.355469 162.742188 141.332031 C 161.347656 141.308594 157.527344 140.296875 154.253906 139.085938 C 149.734375 137.414062 147.976562 136.308594 146.9375 134.484375 C 146.1875 133.164062 145.308594 131.703125 144.984375 131.238281 C 135.167969 117.042969 126.476562 101.867188 126.472656 98.925781 C 126.46875 96.886719 125.589844 94.996094 124.644531 94.996094 C 123.363281 94.996094 121.648438 92.363281 121.617188 90.359375 C 121.605469 89.375 120.546875 86.992188 119.265625 85.070312 C 115.9375 80.058594 115.027344 69.773438 117.910156 69.773438 C 118.835938 69.773438 120.816406 71.507812 124.121094 75.21875 C 125.6875 76.980469 126.742188 82.316406 126.761719 88.628906 C 126.777344 92.578125 127.035156 93.363281 128.550781 94.058594 C 129.527344 94.5 131.136719 96.539062 132.125 98.585938 C 133.117188 100.632812 134.941406 103.03125 136.179688 103.914062 C 138.085938 105.273438 145.164062 117.9375 145.164062 119.988281 C 145.164062 120.324219 146.140625 122.53125 147.332031 124.886719 C 149.339844 128.859375 149.707031 129.167969 152.410156 129.160156 C 154.015625 129.15625 158.167969 130.136719 161.644531 131.339844 C 165.5 132.675781 168.238281 133.234375 168.679688 132.773438 C 169.085938 132.34375 169.113281 128.96875 168.734375 124.941406 C 168.164062 118.855469 167.730469 117.433594 165.636719 114.769531 C 160.96875 108.84375 159.796875 105.695312 159.800781 99.074219 C 159.808594 92.878906 161.117188 88.773438 163.511719 87.429688 C 165.273438 86.441406 164.917969 85.398438 162.363281 84.078125 C 160.230469 82.972656 150.480469 75.386719 146.152344 71.457031 C 145.132812 70.53125 144.007812 69.773438 143.65625 69.773438 C 143.304688 69.773438 140.484375 67.726562 137.386719 65.226562 C 134.289062 62.726562 130.839844 60.257812 129.722656 59.738281 C 124.507812 57.320312 103.59375 39.140625 100.679688 34.492188 C 97.464844 29.367188 97.410156 28.46875 100.253906 27.375 C 102.347656 26.570312 102.726562 26.792969 106.148438 30.761719 C 108.160156 33.097656 112.882812 38.007812 116.640625 41.671875 C 120.929688 45.855469 123.550781 49.066406 123.683594 50.304688 C 123.800781 51.390625 123.925781 52.414062 123.964844 52.582031 C 124 52.75 124.53125 52.46875 125.144531 51.960938 C 126.011719 51.238281 127.640625 52.074219 132.660156 55.804688 C 136.1875 58.425781 139.617188 61.234375 140.289062 62.042969 C 140.957031 62.851562 145.164062 66.457031 149.636719 70.054688 C 154.109375 73.65625 159.371094 77.992188 161.335938 79.695312 C 163.296875 81.398438 165.566406 82.789062 166.375 82.789062 C 167.363281 82.789062 168.859375 80.910156 170.933594 77.0625 L 174.023438 71.332031 L 186.65625 70.921875 L 199.289062 70.515625 L 204.539062 76.601562 C 207.425781 79.945312 210.246094 82.710938 210.808594 82.738281 C 211.367188 82.765625 214.429688 80.042969 217.617188 76.6875 C 220.800781 73.332031 223.921875 70.585938 224.550781 70.585938 C 225.175781 70.585938 225.921875 69.980469 226.207031 69.242188 C 226.988281 67.203125 245.910156 47.929688 247.683594 47.367188 C 248.539062 47.09375 249.027344 46.535156 248.769531 46.117188 C 248.511719 45.703125 248.707031 45.363281 249.203125 45.363281 C 249.699219 45.363281 251.917969 43.546875 254.136719 41.324219 C 256.472656 38.984375 258.648438 37.46875 259.300781 37.71875 C 259.921875 37.957031 260.667969 37.761719 260.964844 37.28125 C 261.257812 36.804688 261.03125 36.414062 260.460938 36.414062 C 258.613281 36.414062 267.4375 29.164062 269.332031 29.125 C 271.582031 29.082031 271.90625 32.117188 269.738281 32.929688 C 268.957031 33.226562 267.339844 34.402344 266.148438 35.550781 C 262.023438 39.515625 259.363281 41.859375 256.933594 43.660156 C 255.59375 44.65625 249.53125 50.296875 243.464844 56.199219 C 237.398438 62.097656 229.078125 70.160156 224.972656 74.113281 C 220.871094 78.066406 217.511719 81.761719 217.511719 82.328125 C 217.511719 82.890625 216.820312 83.980469 215.976562 84.742188 C 214.601562 85.988281 214.484375 87.011719 214.867188 94.511719 C 215.394531 104.890625 214.375 109.480469 210.148438 115.714844 C 207.691406 119.335938 206.945312 121.21875 206.957031 123.785156 C 206.96875 127.730469 207.683594 130.796875 208.59375 130.796875 C 208.949219 130.796875 211.925781 129.253906 215.203125 127.367188 C 222.570312 123.132812 227.746094 117.9375 230.886719 111.621094 C 232.210938 108.964844 234.3125 105.105469 235.5625 103.042969 C 236.8125 100.980469 237.832031 98.753906 237.832031 98.09375 C 237.832031 97.4375 238.757812 95.097656 239.890625 92.894531 C 241.023438 90.695312 242.894531 86.511719 244.050781 83.605469 C 246.152344 78.324219 248.714844 74.460938 248.367188 77.09375 C 248.09375 79.167969 248.503906 81.632812 248.9375 80.554688 C 249.164062 79.992188 249.839844 79.535156 250.441406 79.535156 C 251.257812 79.535156 251.035156 80.800781 249.554688 84.585938 C 248.464844 87.363281 247.214844 90 246.769531 90.445312 C 246.324219 90.886719 245.960938 92.21875 245.960938 93.402344 C 245.960938 98.949219 239.355469 112.261719 232.042969 121.4375 C 230.261719 123.675781 228.09375 126.863281 227.226562 128.519531 C 226.296875 130.289062 224.492188 132.078125 222.835938 132.863281 C 221.289062 133.597656 219.597656 134.714844 219.074219 135.347656 C 218.550781 135.976562 217.652344 136.492188 217.070312 136.492188 C 216.492188 136.492188 214.796875 137.101562 213.308594 137.847656 C 211.820312 138.59375 210.054688 139.460938 209.382812 139.769531 C 208.414062 140.21875 208.21875 141.648438 208.441406 146.753906 C 208.597656 150.285156 208.960938 153.414062 209.253906 153.707031 C 209.550781 154.003906 212.347656 153.71875 215.480469 153.074219 C 226.546875 150.800781 226.761719 150.796875 230.207031 152.976562 C 231.964844 154.085938 234.410156 156.449219 235.640625 158.230469 C 236.875 160.007812 238.785156 161.949219 239.890625 162.542969 C 240.992188 163.132812 241.898438 163.902344 241.898438 164.25 C 241.898438 164.59375 245.648438 168.652344 250.230469 173.265625 C 254.8125 177.875 260.382812 184.3125 262.609375 187.566406 C 264.832031 190.824219 268.410156 195.171875 270.554688 197.230469 C 273.261719 199.824219 274.316406 201.410156 274.003906 202.40625 C 273.75 203.195312 274.328125 205.164062 275.277344 206.78125 C 277.421875 210.417969 276.734375 210.496094 272.738281 207.074219 C 271.035156 205.621094 268.171875 203.332031 266.375 201.992188 C 264.574219 200.648438 261.441406 197.445312 259.410156 194.871094 C 257.378906 192.296875 255.261719 190.171875 254.699219 190.144531 C 254.140625 190.117188 252.144531 188.195312 250.257812 185.871094 C 248.375 183.550781 244.046875 178.355469 240.640625 174.328125 C 237.230469 170.296875 233.679688 165.695312 232.75 164.097656 L 231.054688 161.191406 L 220.015625 161.507812 C 213.941406 161.683594 208.519531 161.972656 207.960938 162.152344 C 207.265625 162.375 206.941406 164.398438 206.941406 168.496094 L 206.941406 174.515625 L 210.398438 176.792969 C 214.257812 179.335938 222.964844 186.855469 229.230469 193.0625 C 232.742188 196.539062 233.65625 198.121094 235.335938 203.640625 C 236.421875 207.207031 238.132812 212.140625 239.140625 214.601562 C 240.148438 217.0625 242.242188 222.375 243.796875 226.402344 C 245.347656 230.429688 248.664062 237.898438 251.167969 242.996094 C 253.667969 248.097656 255.714844 252.777344 255.714844 253.394531 C 255.714844 254.011719 256.941406 256.976562 258.441406 259.988281 C 259.941406 262.996094 261.757812 266.738281 262.472656 268.304688 C 263.191406 269.871094 264.285156 272.066406 264.910156 273.1875 C 268.941406 280.421875 269.796875 283.824219 268.035156 285.589844 C 267.554688 286.070312 267.058594 284.828125 266.703125 282.253906 C 266.074219 277.679688 265.261719 276.683594 261.53125 275.9375 C 259.527344 275.535156 258.964844 275.703125 258.964844 276.699219 C 258.964844 277.398438 259.335938 278.203125 259.792969 278.484375 C 260.789062 279.101562 263.199219 284.679688 262.6875 285.191406 C 261.96875 285.914062 260.761719 284.546875 260.222656 282.398438 C 259.917969 281.191406 258.964844 279.207031 258.097656 277.992188 C 257.234375 276.777344 256.527344 275.378906 256.527344 274.878906 C 256.527344 274.382812 256.171875 273.34375 255.734375 272.566406 C 255.296875 271.789062 254.550781 269.597656 254.078125 267.695312 C 253.601562 265.792969 252.875 264.238281 252.460938 264.238281 C 251.136719 264.238281 247.585938 258.242188 247.585938 256.003906 C 247.585938 254.632812 246.886719 253.386719 245.660156 252.582031 C 244.597656 251.886719 243.527344 250.472656 243.285156 249.4375 C 243.039062 248.402344 240.472656 240.78125 237.585938 232.503906 C 227.523438 203.65625 228.574219 205.863281 222.09375 199.964844 C 218.902344 197.058594 215.375 193.742188 214.257812 192.59375 C 211.828125 190.089844 209.382812 189.007812 209.382812 190.429688 C 209.382812 190.976562 209.757812 192.703125 210.214844 194.269531 C 212.867188 203.3125 219.21875 228.792969 219.476562 231.429688 C 219.644531 233.140625 220.730469 239.234375 221.894531 244.976562 C 223.058594 250.71875 224.015625 256.945312 224.019531 258.8125 C 224.019531 260.675781 224.390625 264.398438 224.839844 267.085938 C 226.125 274.757812 225.90625 293.851562 224.453125 300.851562 C 223.070312 307.507812 219.730469 318.3125 217.664062 322.820312 C 215.882812 326.699219 210.011719 335.476562 206.320312 339.785156 C 203.570312 342.992188 201.59375 344.21875 194.507812 347.113281 C 191.710938 348.257812 192.15625 348.308594 185.960938 346.160156 Z M 188.121094 342.453125 C 189.304688 341.617188 191.082031 340.683594 192.066406 340.375 C 193.84375 339.824219 195.226562 337.269531 194.441406 335.996094 C 193.761719 334.898438 183.367188 336.765625 183.367188 337.984375 C 183.367188 338.726562 182.652344 338.90625 181.027344 338.582031 C 179.691406 338.3125 178.449219 338.5 178.132812 339.015625 C 177.5625 339.9375 178.449219 340.453125 181.335938 340.882812 C 182.230469 341.015625 183.441406 341.765625 184.023438 342.550781 C 185.34375 344.320312 185.476562 344.316406 188.121094 342.453125 Z M 191.203125 337.871094 C 191.460938 337.199219 191.8125 336.648438 191.988281 336.648438 C 192.164062 336.648438 192.308594 337.199219 192.308594 337.871094 C 192.308594 338.542969 191.957031 339.089844 191.523438 339.089844 C 191.089844 339.089844 190.945312 338.542969 191.203125 337.871094 Z M 196.867188 340.085938 C 199.035156 336.207031 199.140625 335.835938 198.054688 335.835938 C 197.636719 335.835938 197.035156 336.660156 196.71875 337.664062 C 196.398438 338.667969 195.003906 340.515625 193.613281 341.769531 C 191.214844 343.941406 191.183594 344.039062 193.003906 343.808594 C 194.285156 343.648438 195.5625 342.414062 196.867188 340.085938 Z M 174.59375 332.585938 C 173.214844 330.164062 171.175781 329.273438 171.175781 331.09375 C 171.175781 332.425781 173.652344 335.023438 174.921875 335.023438 C 175.714844 335.023438 175.632812 334.414062 174.59375 332.585938 Z M 196.601562 332.0625 C 201.625 331.5 203.800781 330.140625 199.671875 330.140625 C 197.703125 330.140625 197.1875 329.792969 197.1875 328.460938 C 197.1875 327.535156 197.582031 326.042969 198.0625 325.140625 C 199.269531 322.886719 198.398438 320.660156 196.820312 321.972656 C 196.179688 322.503906 195.503906 323.734375 195.316406 324.707031 C 195.078125 325.917969 194.933594 325.640625 194.859375 323.835938 C 194.753906 321.273438 194.640625 321.191406 191.292969 321.25 C 189.394531 321.285156 186.191406 321.5625 184.179688 321.871094 C 180.578125 322.425781 180.527344 322.476562 180.804688 325.269531 C 180.957031 326.832031 181.597656 329.34375 182.226562 330.855469 C 183.367188 333.59375 183.386719 333.601562 187.636719 333.09375 C 189.984375 332.816406 194.015625 332.351562 196.601562 332.0625 Z M 189.871094 328.464844 C 189.871094 327.992188 190.238281 327.832031 190.683594 328.105469 C 191.132812 328.382812 191.496094 328.769531 191.496094 328.96875 C 191.496094 329.164062 191.132812 329.328125 190.683594 329.328125 C 190.238281 329.328125 189.871094 328.941406 189.871094 328.464844 Z M 191.5625 323.972656 C 191.601562 323.023438 191.792969 322.832031 192.050781 323.480469 C 192.289062 324.066406 192.257812 324.769531 191.988281 325.039062 C 191.71875 325.308594 191.527344 324.828125 191.5625 323.972656 Z M 179.90625 328.035156 C 179.335938 322.949219 177.679688 321.320312 177.679688 325.84375 C 177.679688 329.710938 178.308594 331.769531 179.496094 331.769531 C 180.003906 331.769531 180.164062 330.3125 179.90625 328.035156 Z M 206.128906 330.953125 C 206.128906 330.507812 205.785156 330.140625 205.363281 330.140625 C 204.941406 330.140625 204.371094 330.507812 204.097656 330.953125 C 203.820312 331.402344 204.164062 331.769531 204.859375 331.769531 C 205.558594 331.769531 206.128906 331.402344 206.128906 330.953125 Z M 175.398438 327.089844 C 175.164062 325.859375 174.8125 325.320312 174.621094 325.894531 C 174.277344 326.933594 174.894531 329.328125 175.507812 329.328125 C 175.683594 329.328125 175.636719 328.320312 175.398438 327.089844 Z M 204.554688 325.535156 C 205.113281 324.054688 205.109375 323.097656 204.53125 322.523438 C 203.949219 321.941406 203.6875 322.042969 203.679688 322.859375 C 203.671875 323.507812 203.445312 324.863281 203.175781 325.871094 C 202.492188 328.425781 203.554688 328.164062 204.554688 325.535156 Z M 200.65625 324.242188 C 201.03125 321.765625 200.8125 320.480469 200.148438 321.257812 C 199.433594 322.097656 198.925781 326.886719 199.554688 326.886719 C 199.9375 326.886719 200.433594 325.695312 200.65625 324.242188 Z M 215.730469 322.867188 C 215.933594 322.257812 215.628906 321.953125 215.019531 322.15625 C 214.433594 322.351562 213.792969 322.992188 213.597656 323.582031 C 213.394531 324.191406 213.699219 324.496094 214.308594 324.292969 C 214.894531 324.097656 215.535156 323.457031 215.730469 322.867188 Z M 169.386719 321.027344 C 170.59375 319.820312 170.675781 318.460938 169.5 319.1875 C 169.023438 319.484375 167.925781 319.082031 167.058594 318.292969 C 165.515625 316.898438 165.5 316.925781 166.375 319.433594 C 167.347656 322.230469 167.894531 322.519531 169.386719 321.027344 Z M 164.265625 317.9375 C 164.542969 317.488281 164.382812 317.121094 163.90625 317.121094 C 163.433594 317.121094 163.046875 317.488281 163.046875 317.9375 C 163.046875 318.382812 163.207031 318.75 163.40625 318.75 C 163.601562 318.75 163.988281 318.382812 164.265625 317.9375 Z M 188.652344 317.226562 C 192.226562 316.769531 196.167969 316.378906 197.410156 316.351562 C 199.085938 316.320312 199.878906 315.75 200.488281 314.140625 C 201.027344 312.71875 201.035156 311.796875 200.511719 311.472656 C 200.074219 311.199219 199.621094 309.40625 199.507812 307.488281 C 199.273438 303.519531 198.691406 302.863281 196.464844 304.054688 C 195.429688 304.609375 195.039062 305.449219 195.320312 306.523438 C 195.554688 307.417969 195.453125 308.792969 195.097656 309.585938 C 194.609375 310.675781 194.339844 310.238281 193.992188 307.765625 C 193.578125 304.863281 193.265625 304.488281 191.089844 304.289062 C 189.75 304.167969 187.773438 303.984375 186.703125 303.882812 C 185.628906 303.78125 184.601562 304.125 184.417969 304.648438 C 184.207031 305.257812 184.691406 305.445312 185.761719 305.164062 C 187.066406 304.824219 187.433594 305.113281 187.433594 306.480469 C 187.433594 307.960938 187.1875 308.097656 185.855469 307.386719 C 184.171875 306.484375 182.851562 307.492188 183.769531 308.980469 C 184.042969 309.421875 183.894531 310.429688 183.4375 311.21875 C 182.773438 312.355469 182.597656 311.925781 182.578125 309.132812 C 182.554688 305.816406 182.476562 305.695312 181.167969 307.003906 C 180.273438 307.898438 179.675781 308.0625 179.476562 307.46875 C 178.6875 305.097656 177.675781 306.964844 177.664062 310.816406 C 177.65625 313.875 177.429688 314.742188 176.863281 313.867188 C 176.429688 313.195312 176.070312 311.4375 176.066406 309.953125 C 176.054688 308.175781 175.742188 307.453125 175.140625 307.828125 C 174.296875 308.347656 174.683594 316.378906 175.628906 317.90625 C 176.035156 318.566406 179.648438 318.378906 188.652344 317.226562 Z M 181.476562 315.546875 C 180.011719 315.03125 180.53125 314.59375 185.140625 312.46875 C 185.445312 312.328125 185.898438 312.546875 186.148438 312.953125 C 186.851562 314.085938 183.152344 316.140625 181.476562 315.546875 Z M 180.117188 311.378906 C 180.117188 310.90625 180.484375 310.742188 180.929688 311.019531 C 181.375 311.296875 181.742188 311.683594 181.742188 311.882812 C 181.742188 312.078125 181.375 312.242188 180.929688 312.242188 C 180.484375 312.242188 180.117188 311.851562 180.117188 311.378906 Z M 165.855469 312.730469 C 165.550781 311.117188 164.980469 309.800781 164.582031 309.800781 C 163.632812 309.800781 163.671875 310.640625 164.765625 313.789062 C 165.929688 317.132812 166.5625 316.519531 165.855469 312.730469 Z M 207.753906 315.496094 C 207.753906 315.046875 206.816406 314.683594 205.675781 314.683594 C 204.496094 314.683594 203.8125 315.035156 204.097656 315.496094 C 204.371094 315.941406 205.308594 316.308594 206.175781 316.308594 C 207.042969 316.308594 207.753906 315.941406 207.753906 315.496094 Z M 162.234375 313.101562 C 162.234375 312.234375 161.867188 311.296875 161.421875 311.019531 C 160.960938 310.734375 160.609375 311.417969 160.609375 312.597656 C 160.609375 313.746094 160.972656 314.683594 161.421875 314.683594 C 161.867188 314.683594 162.234375 313.972656 162.234375 313.101562 Z M 168.484375 309.191406 C 168.28125 308.40625 168.113281 309.046875 168.113281 310.613281 C 168.113281 312.179688 168.28125 312.820312 168.484375 312.039062 C 168.6875 311.253906 168.6875 309.972656 168.484375 309.191406 Z M 204.246094 311.273438 C 203.984375 310.625 203.792969 310.816406 203.753906 311.765625 C 203.71875 312.625 203.910156 313.105469 204.179688 312.835938 C 204.449219 312.5625 204.480469 311.863281 204.246094 311.273438 Z M 172.460938 306.746094 C 171.523438 305.808594 171.042969 307.277344 171.679688 309.128906 L 172.335938 311.019531 L 172.632812 309.121094 C 172.796875 308.074219 172.71875 307.007812 172.460938 306.746094 Z M 201.808594 308.019531 C 201.546875 307.371094 201.355469 307.5625 201.316406 308.511719 C 201.28125 309.371094 201.472656 309.851562 201.742188 309.578125 C 202.011719 309.308594 202.042969 308.605469 201.808594 308.019531 Z M 163.941406 300.269531 C 163.160156 298.925781 163.09375 298.945312 163.070312 300.511719 C 163.042969 302.394531 164.074219 303.863281 164.507812 302.558594 C 164.664062 302.101562 164.40625 301.070312 163.941406 300.269531 Z M 190.683594 300.183594 C 202.40625 299.699219 203.859375 299.492188 202.203125 298.550781 C 200.910156 297.8125 200.484375 297.039062 200.855469 296.109375 C 201.152344 295.359375 201.566406 293.859375 201.773438 292.773438 C 201.980469 291.6875 202.636719 290.402344 203.230469 289.925781 C 204.449219 288.941406 205.441406 284.578125 204.445312 284.578125 C 204.089844 284.578125 203.566406 285.308594 203.285156 286.203125 C 203 287.097656 202.105469 287.832031 201.296875 287.832031 C 199.402344 287.832031 198.332031 289.167969 197.390625 292.714844 L 196.632812 295.5625 L 196.03125 292.132812 C 195.410156 288.597656 195.917969 286.640625 197.242188 287.460938 C 198.226562 288.066406 198.203125 286.847656 197.1875 284.167969 C 196.378906 282.042969 196.332031 282.03125 189.863281 282.511719 C 186.28125 282.777344 182.484375 283.324219 181.425781 283.730469 C 180.367188 284.132812 178.816406 284.351562 177.980469 284.21875 C 175.191406 283.769531 175.0625 284.746094 177.601562 287.066406 C 179.90625 289.171875 180.105469 289.765625 179.980469 294.089844 C 179.882812 297.480469 179.753906 297.964844 179.527344 295.804688 C 179.304688 293.667969 178.734375 292.640625 177.570312 292.273438 C 175.550781 291.628906 174.613281 292.414062 175.882812 293.683594 C 176.597656 294.398438 176.597656 294.902344 175.882812 295.765625 C 175.152344 296.644531 175.203125 297.074219 176.105469 297.644531 C 176.914062 298.15625 176.960938 298.386719 176.257812 298.394531 C 175.699219 298.402344 174.996094 298.5 174.699219 298.613281 C 174.398438 298.722656 174.035156 298.082031 173.890625 297.1875 C 173.746094 296.292969 173.402344 294.183594 173.125 292.503906 C 172.585938 289.222656 171.726562 288.207031 170.257812 289.117188 C 169.632812 289.503906 169.761719 289.917969 170.664062 290.425781 C 172.527344 291.46875 172.625 301.269531 170.769531 300.554688 C 170.066406 300.285156 169.550781 300.539062 169.550781 301.152344 C 169.550781 301.984375 170.394531 302.058594 173.410156 301.480469 C 175.535156 301.074219 183.308594 300.492188 190.683594 300.183594 Z M 178.492188 286.609375 C 178.492188 285.9375 178.859375 285.390625 179.304688 285.390625 C 179.75 285.390625 180.117188 285.9375 180.117188 286.609375 C 180.117188 287.28125 179.75 287.832031 179.304688 287.832031 C 178.859375 287.832031 178.492188 287.28125 178.492188 286.609375 Z M 184.589844 285.390625 C 184.3125 284.941406 184.675781 284.578125 185.402344 284.578125 C 186.125 284.578125 186.488281 284.941406 186.214844 285.390625 C 185.9375 285.835938 185.570312 286.203125 185.402344 286.203125 C 185.230469 286.203125 184.863281 285.835938 184.589844 285.390625 Z M 159.796875 298.816406 C 159.796875 298.144531 159.429688 297.59375 158.984375 297.59375 C 158.535156 297.59375 158.167969 298.144531 158.167969 298.816406 C 158.167969 299.488281 158.535156 300.035156 158.984375 300.035156 C 159.429688 300.035156 159.796875 299.488281 159.796875 298.816406 Z M 162.792969 292.917969 C 162.589844 292.132812 162.421875 292.773438 162.421875 294.339844 C 162.421875 295.90625 162.589844 296.546875 162.792969 295.765625 C 163 294.980469 163 293.699219 162.792969 292.917969 Z M 158.648438 289.667969 C 157.761719 288.777344 157.152344 290.191406 157.789062 291.660156 C 158.394531 293.054688 158.4375 293.054688 158.773438 291.632812 C 158.96875 290.8125 158.910156 289.929688 158.648438 289.667969 Z M 201.25 284.121094 C 201.25 282.101562 200.136719 281.464844 199.214844 282.957031 C 198.503906 284.105469 199.582031 287.140625 200.496094 286.574219 C 200.914062 286.316406 201.25 285.214844 201.25 284.121094 Z M 170.769531 285.390625 C 171.046875 284.941406 170.882812 284.578125 170.410156 284.578125 C 169.9375 284.578125 169.550781 284.941406 169.550781 285.390625 C 169.550781 285.835938 169.710938 286.203125 169.910156 286.203125 C 170.105469 286.203125 170.492188 285.835938 170.769531 285.390625 Z M 159.429688 277.519531 C 159.332031 275.175781 158.847656 273.546875 158.1875 273.328125 C 157.359375 273.050781 157.230469 273.699219 157.628906 276.128906 C 157.917969 277.867188 158.15625 279.949219 158.160156 280.761719 C 158.167969 281.570312 158.488281 282.035156 158.878906 281.792969 C 159.269531 281.550781 159.519531 279.628906 159.429688 277.519531 Z M 162.816406 275.839844 C 162.632812 274.605469 162.472656 275.421875 162.46875 277.660156 C 162.460938 279.898438 162.613281 280.910156 162.808594 279.910156 C 163 278.910156 163.003906 277.078125 162.816406 275.839844 Z M 222.386719 279.769531 C 222.386719 279.367188 221.65625 279.226562 220.761719 279.460938 C 219.867188 279.691406 219.132812 280.023438 219.132812 280.195312 C 219.132812 280.367188 219.867188 280.507812 220.761719 280.507812 C 221.65625 280.507812 222.386719 280.175781 222.386719 279.769531 Z M 204.804688 278.851562 C 205.714844 277.941406 205.566406 272.703125 204.578125 270.871094 C 203.675781 269.199219 203.761719 268.8125 205.246094 267.773438 C 207.199219 266.402344 207.527344 263.421875 205.722656 263.421875 C 205.042969 263.421875 204.503906 264.144531 204.503906 265.050781 C 204.503906 267.074219 204.0625 267.085938 201.953125 265.121094 C 200.914062 264.152344 200.464844 263 200.757812 262.070312 C 201.195312 260.695312 200.730469 260.59375 194.941406 260.800781 C 181.097656 261.292969 179.472656 261.40625 179.734375 261.828125 C 180.410156 262.933594 180.28125 275.980469 179.589844 276.210938 C 179.15625 276.355469 178.960938 275.210938 179.148438 273.609375 C 179.535156 270.292969 178.636719 265.957031 177.824219 267.207031 C 177.519531 267.675781 176.722656 268.269531 176.050781 268.523438 C 175.027344 268.914062 175.042969 269 176.152344 269.054688 C 177.183594 269.105469 177.453125 269.925781 177.371094 272.773438 C 177.308594 275.101562 176.902344 276.433594 176.253906 276.4375 C 175.695312 276.4375 175.238281 276.824219 175.238281 277.289062 C 175.238281 277.757812 174.636719 278.03125 173.902344 277.898438 C 173.164062 277.769531 172.433594 278.027344 172.277344 278.476562 C 171.976562 279.320312 203.960938 279.691406 204.804688 278.851562 Z M 216.695312 276.441406 C 216.695312 275.097656 216.554688 274 216.382812 274 C 216.207031 274 215.90625 275.097656 215.710938 276.441406 C 215.511719 277.78125 215.652344 278.882812 216.023438 278.882812 C 216.394531 278.882812 216.695312 277.78125 216.695312 276.441406 Z M 170.089844 274.609375 C 169.863281 274.050781 169.679688 274.507812 169.679688 275.625 C 169.679688 276.746094 169.863281 277.203125 170.089844 276.644531 C 170.3125 276.085938 170.3125 275.167969 170.089844 274.609375 Z M 218.894531 272.992188 C 218.703125 271.980469 218.535156 272.617188 218.527344 274.40625 C 218.515625 276.195312 218.675781 277.023438 218.878906 276.246094 C 219.082031 275.46875 219.089844 274.003906 218.894531 272.992188 Z M 212.03125 271.46875 C 211.425781 269.152344 211.003906 269.613281 211.019531 272.574219 C 211.027344 274.375 211.253906 274.863281 211.730469 274.113281 C 212.117188 273.503906 212.25 272.3125 212.03125 271.46875 Z M 166.023438 271.355469 C 165.796875 270.796875 165.613281 271.253906 165.613281 272.371094 C 165.613281 273.492188 165.796875 273.949219 166.023438 273.390625 C 166.25 272.828125 166.25 271.914062 166.023438 271.355469 Z M 120.730469 269.84375 C 119.566406 267.664062 119.152344 267.921875 119.152344 270.84375 C 119.152344 272.996094 119.335938 273.230469 120.355469 272.386719 C 121.246094 271.644531 121.34375 270.992188 120.730469 269.84375 Z M 162.816406 266.878906 C 162.628906 265.648438 162.476562 266.65625 162.476562 269.117188 C 162.476562 271.578125 162.628906 272.585938 162.816406 271.355469 C 163.003906 270.125 163.003906 268.109375 162.816406 266.878906 Z M 208.566406 272.371094 C 208.566406 271.925781 208.203125 271.558594 207.753906 271.558594 C 207.308594 271.558594 206.941406 271.925781 206.941406 272.371094 C 206.941406 272.820312 207.308594 273.183594 207.753906 273.183594 C 208.203125 273.183594 208.566406 272.820312 208.566406 272.371094 Z M 260.589844 272.019531 C 260.589844 271.824219 260.210938 270.664062 259.746094 269.445312 C 259.15625 267.886719 258.648438 267.480469 258.046875 268.082031 C 257.445312 268.6875 257.460938 269.453125 258.105469 270.65625 C 258.894531 272.136719 260.589844 273.0625 260.589844 272.019531 Z M 158.746094 266.480469 C 158.550781 265.46875 158.386719 266.105469 158.375 267.898438 C 158.367188 269.6875 158.527344 270.515625 158.730469 269.738281 C 158.933594 268.960938 158.941406 267.496094 158.746094 266.480469 Z M 218.878906 266.523438 C 218.617188 265.875 218.425781 266.066406 218.386719 267.015625 C 218.351562 267.871094 218.542969 268.351562 218.8125 268.082031 C 219.085938 267.8125 219.113281 267.109375 218.878906 266.523438 Z M 124.03125 264.640625 C 124.03125 263.972656 123.484375 263.421875 122.8125 263.421875 C 122.140625 263.421875 121.59375 263.972656 121.59375 264.640625 C 121.59375 265.3125 122.140625 265.863281 122.8125 265.863281 C 123.484375 265.863281 124.03125 265.3125 124.03125 264.640625 Z M 178.234375 264.082031 C 177.976562 263.433594 177.78125 263.625 177.742188 264.574219 C 177.707031 265.433594 177.902344 265.914062 178.171875 265.640625 C 178.441406 265.371094 178.46875 264.671875 178.234375 264.082031 Z M 256.121094 261.578125 C 256.121094 259.578125 254.699219 259.714844 253.929688 261.792969 C 253.410156 263.195312 253.5625 263.484375 254.703125 263.265625 C 255.484375 263.117188 256.121094 262.355469 256.121094 261.578125 Z M 126.773438 259.730469 C 127.390625 258.125 124.917969 257.105469 124 258.585938 C 123.628906 259.1875 123.503906 259.976562 123.726562 260.332031 C 124.398438 261.421875 126.265625 261.054688 126.773438 259.730469 Z M 159.738281 259.964844 C 159.707031 259.402344 159.367188 258.214844 158.984375 257.320312 C 158.398438 255.957031 158.273438 256.121094 158.226562 258.335938 C 158.195312 259.789062 158.535156 260.980469 158.984375 260.980469 C 159.429688 260.980469 159.769531 260.523438 159.738281 259.964844 Z M 203.691406 255.8125 C 203.691406 255.253906 203.324219 254.429688 202.878906 253.984375 C 202.429688 253.535156 201.617188 250.351562 201.066406 246.902344 C 200.519531 243.457031 199.800781 240.640625 199.46875 240.640625 C 199.136719 240.640625 199.058594 240.132812 199.292969 239.515625 C 199.878906 237.996094 195.109375 236.320312 193.167969 237.359375 C 192.300781 237.824219 191.453125 237.828125 190.996094 237.371094 C 190.542969 236.917969 188.113281 236.976562 184.777344 237.53125 C 180.425781 238.253906 179.304688 238.734375 179.304688 239.878906 C 179.304688 240.667969 179.757812 241.46875 180.3125 241.652344 C 181.046875 241.898438 180.953125 242.359375 179.964844 243.347656 C 178.121094 245.195312 177.679688 245.0625 177.679688 242.671875 C 177.679688 241.40625 177.21875 240.640625 176.460938 240.640625 C 175.011719 240.640625 174.859375 243.703125 176.085938 248.128906 C 176.636719 250.113281 177.292969 251 178.007812 250.726562 C 178.8125 250.417969 178.988281 250.910156 178.683594 252.59375 C 178.457031 253.851562 177.972656 255.261719 177.601562 255.734375 C 177.140625 256.324219 181.082031 256.628906 190.3125 256.710938 C 200.535156 256.800781 203.691406 256.589844 203.691406 255.8125 Z M 199.625 251.625 C 199.625 250.953125 199.992188 250.402344 200.4375 250.402344 C 200.886719 250.402344 201.25 250.953125 201.25 251.625 C 201.25 252.292969 200.886719 252.84375 200.4375 252.84375 C 199.992188 252.84375 199.625 252.292969 199.625 251.625 Z M 185.121094 245.617188 C 184.316406 245.105469 184.613281 244.777344 186.230469 244.367188 C 188.660156 243.757812 189.507812 244.136719 188.683594 245.46875 C 188.042969 246.507812 186.617188 246.566406 185.121094 245.617188 Z M 183.367188 240.640625 C 183.367188 240.191406 184.121094 239.824219 185.042969 239.824219 C 185.960938 239.824219 186.488281 240.191406 186.214844 240.640625 C 185.9375 241.085938 185.183594 241.453125 184.539062 241.453125 C 183.894531 241.453125 183.367188 241.085938 183.367188 240.640625 Z M 195.359375 240.914062 C 195.917969 240.6875 196.832031 240.6875 197.390625 240.914062 C 197.949219 241.140625 197.492188 241.324219 196.375 241.324219 C 195.257812 241.324219 194.800781 241.140625 195.359375 240.914062 Z M 253.089844 255.4375 C 253.265625 254.90625 252.816406 254.242188 252.085938 253.964844 C 250.390625 253.3125 249.847656 253.882812 250.511719 255.609375 C 251.078125 257.09375 252.570312 256.996094 253.089844 255.4375 Z M 162.992188 253.046875 C 162.945312 250.238281 162.878906 250.152344 162.152344 251.976562 C 161.714844 253.066406 161.542969 254.441406 161.769531 255.027344 C 162.519531 256.984375 163.042969 256.136719 162.992188 253.046875 Z M 177.269531 253.476562 C 177.714844 253.144531 176.894531 252.863281 175.441406 252.855469 C 173.988281 252.851562 172.796875 253.183594 172.796875 253.597656 C 172.796875 254.457031 175.433594 255.21875 176.050781 254.535156 C 176.273438 254.285156 176.824219 253.8125 177.269531 253.476562 Z M 128.90625 253.351562 C 128.90625 251.667969 126.722656 250.046875 126.257812 251.386719 C 126.058594 251.964844 126.0625 252.894531 126.265625 253.453125 C 126.773438 254.835938 128.90625 254.75 128.90625 253.351562 Z M 158.726562 249.792969 C 158.523438 249.011719 158.355469 249.652344 158.355469 251.21875 C 158.355469 252.785156 158.523438 253.425781 158.726562 252.640625 C 158.933594 251.859375 158.933594 250.578125 158.726562 249.792969 Z M 207.515625 249.394531 C 207.320312 248.382812 207.152344 249.019531 207.144531 250.808594 C 207.136719 252.601562 207.292969 253.429688 207.496094 252.652344 C 207.699219 251.871094 207.707031 250.40625 207.515625 249.394531 Z M 250.832031 248.550781 C 250.832031 247.164062 248.507812 243.894531 247.519531 243.894531 C 246.820312 243.894531 247.25 247.378906 248.148438 248.980469 C 248.71875 250 250.832031 249.660156 250.832031 248.550781 Z M 132.734375 243.597656 C 133.886719 239.628906 133.640625 236.871094 132.210938 237.753906 C 131.792969 238.015625 131.480469 239.320312 131.519531 240.65625 C 131.554688 241.992188 131.039062 243.726562 130.367188 244.507812 C 127.941406 247.332031 127.796875 248.117188 129.746094 247.828125 C 131.164062 247.617188 131.847656 246.652344 132.734375 243.597656 Z M 206.9375 241.414062 C 206.9375 240.296875 206.335938 239.953125 204.496094 240.003906 C 201.734375 240.082031 201.714844 240.109375 203 242.167969 C 204.15625 244.023438 206.9375 243.492188 206.9375 241.414062 Z M 209.929688 240.488281 C 209.671875 239.839844 209.476562 240.03125 209.4375 240.980469 C 209.402344 241.835938 209.59375 242.316406 209.867188 242.046875 C 210.136719 241.777344 210.164062 241.074219 209.929688 240.488281 Z M 245.113281 236.773438 C 245.101562 236.4375 244.503906 235.433594 243.785156 234.539062 C 242.640625 233.105469 242.546875 233.089844 243 234.402344 C 243.28125 235.21875 243.515625 236.226562 243.515625 236.636719 C 243.515625 237.050781 243.878906 237.386719 244.328125 237.386719 C 244.773438 237.386719 245.128906 237.109375 245.113281 236.773438 Z M 163.042969 232 C 163.042969 230.308594 162.710938 229.355469 162.226562 229.65625 C 161.78125 229.933594 161.414062 231.441406 161.414062 233.007812 C 161.414062 234.699219 161.746094 235.648438 162.226562 235.351562 C 162.675781 235.074219 163.042969 233.566406 163.042969 232 Z M 204.050781 232.410156 C 204.796875 231.714844 203.414062 218.945312 202.496094 218.023438 C 202.277344 217.804688 201.539062 218.089844 200.859375 218.65625 C 199.835938 219.503906 199.621094 219.453125 199.621094 218.363281 C 199.621094 217.636719 199.070312 217.042969 198.402344 217.042969 C 197.730469 217.042969 197.179688 217.421875 197.179688 217.886719 C 197.179688 218.445312 196.605469 218.421875 195.476562 217.816406 C 193.675781 216.847656 192.144531 217.894531 190.039062 221.527344 C 189.382812 222.660156 189.101562 222.78125 189.101562 221.925781 C 189.105469 221.253906 189.628906 220.011719 190.273438 219.160156 C 190.914062 218.3125 191.292969 217.382812 191.113281 217.09375 C 190.730469 216.464844 181.230469 217.28125 180.507812 218.003906 C 180.234375 218.277344 179.839844 219.890625 179.628906 221.585938 C 179.417969 223.28125 178.925781 225.058594 178.53125 225.535156 C 178.136719 226.011719 177.691406 227.5 177.542969 228.839844 C 177.320312 230.816406 176.839844 231.332031 175.03125 231.539062 C 173.703125 231.691406 172.796875 232.292969 172.796875 233.011719 C 172.796875 234.066406 174.816406 234.15625 188.035156 233.683594 C 196.417969 233.382812 203.625 232.8125 204.054688 232.410156 Z M 197.65625 227.730469 C 197.304688 227.164062 197.238281 226.480469 197.507812 226.210938 C 198.234375 225.484375 199.027344 226.554688 198.632812 227.734375 C 198.359375 228.5625 198.167969 228.558594 197.65625 227.730469 Z M 196.824219 222.003906 C 196.472656 221.433594 196.585938 220.570312 197.074219 220.078125 C 198.277344 218.878906 198.730469 219.539062 198.03125 221.464844 C 197.609375 222.628906 197.296875 222.769531 196.824219 222.003906 Z M 213.4375 233.316406 C 213.4375 232.871094 213.09375 232.503906 212.675781 232.503906 C 212.253906 232.503906 211.683594 232.871094 211.40625 233.316406 C 211.128906 233.765625 211.472656 234.132812 212.171875 234.132812 C 212.867188 234.132812 213.4375 233.765625 213.4375 233.316406 Z M 169.488281 226.199219 C 169.53125 223.539062 169.242188 222.738281 168.238281 222.738281 C 167.378906 222.738281 167.101562 223.183594 167.425781 224.027344 C 167.695312 224.734375 167.945312 227.023438 167.976562 229.113281 C 168.046875 233.96875 169.402344 231.359375 169.488281 226.199219 Z M 241.226562 229.074219 C 240.695312 228.542969 240.261719 227.449219 240.261719 226.644531 C 240.261719 225.839844 239.898438 225.179688 239.449219 225.179688 C 238.132812 225.179688 238.519531 227.777344 240.058594 229.277344 C 240.84375 230.042969 241.640625 230.523438 241.835938 230.351562 C 242.027344 230.175781 241.753906 229.601562 241.226562 229.074219 Z M 163.855469 225.132812 C 163.855469 224.710938 163.488281 224.367188 163.042969 224.367188 C 162.59375 224.367188 162.230469 224.9375 162.230469 225.636719 C 162.230469 226.332031 162.59375 226.679688 163.042969 226.402344 C 163.488281 226.125 163.855469 225.554688 163.855469 225.132812 Z M 175.992188 223.351562 C 176.023438 223.015625 175.683594 222.738281 175.234375 222.738281 C 174.789062 222.738281 174.449219 223.746094 174.480469 224.976562 C 174.53125 226.960938 174.617188 227.03125 175.234375 225.585938 C 175.621094 224.691406 175.960938 223.6875 175.992188 223.351562 Z M 138.164062 224.707031 C 138.433594 224 138.65625 222.828125 138.65625 222.105469 C 138.65625 220.414062 137.402344 221.710938 136.660156 224.164062 C 136.039062 226.222656 137.394531 226.710938 138.164062 224.707031 Z M 176.453125 221.113281 C 176.730469 220.664062 176.570312 220.300781 176.097656 220.300781 C 175.621094 220.300781 175.234375 220.664062 175.234375 221.113281 C 175.234375 221.558594 175.398438 221.925781 175.59375 221.925781 C 175.789062 221.925781 176.179688 221.558594 176.453125 221.113281 Z M 170.359375 216.230469 C 170.359375 215.78125 169.992188 215.417969 169.546875 215.417969 C 169.097656 215.417969 168.734375 215.78125 168.734375 216.230469 C 168.734375 216.679688 169.097656 217.042969 169.546875 217.042969 C 169.992188 217.042969 170.359375 216.679688 170.359375 216.230469 Z M 173.238281 215.363281 C 174.113281 213.945312 173.113281 213.644531 172 214.992188 C 171.359375 215.765625 171.296875 216.230469 171.835938 216.230469 C 172.3125 216.230469 172.941406 215.839844 173.238281 215.363281 Z M 141.09375 213.789062 C 141.09375 212.894531 140.953125 212.164062 140.785156 212.164062 C 140.613281 212.164062 140.28125 212.894531 140.046875 213.789062 C 139.8125 214.683594 139.953125 215.417969 140.359375 215.417969 C 140.761719 215.417969 141.09375 214.683594 141.09375 213.789062 Z M 198.738281 212.46875 C 198.921875 212.304688 197.925781 211.769531 196.523438 211.28125 C 195.125 210.792969 194.058594 210.023438 194.15625 209.574219 C 194.292969 208.957031 191.824219 206.875 190.957031 206.875 C 190.882812 206.875 190.609375 205.410156 190.34375 203.617188 L 189.867188 200.363281 L 191.113281 203.066406 C 191.796875 204.554688 192.738281 205.644531 193.207031 205.488281 C 194.230469 205.148438 194.191406 204.847656 192.664062 201.191406 C 192.007812 199.617188 190.945312 198.332031 190.300781 198.332031 C 189.660156 198.332031 188.796875 197.730469 188.386719 196.996094 C 187.945312 196.203125 187.234375 195.914062 186.636719 196.285156 C 185.851562 196.769531 185.84375 197.039062 186.613281 197.515625 C 187.363281 197.980469 187.371094 198.269531 186.648438 198.71875 C 186.0625 199.078125 185.519531 198.644531 185.246094 197.597656 C 185 196.660156 184.253906 195.890625 183.589844 195.890625 C 182.804688 195.890625 182.554688 196.355469 182.886719 197.214844 C 183.308594 198.316406 182.980469 198.457031 180.941406 198.046875 C 178.6875 197.597656 177.363281 198.632812 179.347656 199.296875 C 179.824219 199.453125 180.285156 202.183594 180.378906 205.421875 C 180.519531 210.277344 180.320312 211.316406 179.191406 211.613281 C 178.128906 211.890625 177.835938 211.386719 177.835938 209.269531 C 177.835938 206.09375 177.203125 204.839844 175.59375 204.839844 C 174.253906 204.839844 174.027344 206.125 175.234375 206.875 C 175.683594 207.148438 176.046875 208.109375 176.046875 209.007812 C 176.046875 209.90625 176.441406 211.375 176.921875 212.273438 C 177.75 213.824219 178.308594 213.878906 188.097656 213.339844 C 193.765625 213.023438 198.554688 212.632812 198.738281 212.46875 Z M 188.648438 209.722656 C 188.925781 209.273438 189.3125 208.90625 189.507812 208.90625 C 189.707031 208.90625 189.867188 209.273438 189.867188 209.722656 C 189.867188 210.167969 189.480469 210.535156 189.007812 210.535156 C 188.53125 210.535156 188.371094 210.167969 188.648438 209.722656 Z M 206.53125 212.976562 C 206.808594 212.527344 206.257812 212.164062 205.3125 212.164062 C 204.363281 212.164062 203.816406 212.527344 204.09375 212.976562 C 204.367188 213.421875 204.917969 213.789062 205.3125 213.789062 C 205.707031 213.789062 206.253906 213.421875 206.53125 212.976562 Z M 198.808594 206.921875 C 198.808594 206.722656 198.441406 206.335938 197.996094 206.058594 C 197.546875 205.785156 197.183594 205.945312 197.183594 206.417969 C 197.183594 206.894531 197.546875 207.28125 197.996094 207.28125 C 198.441406 207.28125 198.808594 207.117188 198.808594 206.921875 Z M 231.390625 200.515625 C 230.339844 199.460938 230.167969 201.421875 231.113281 203.757812 C 231.640625 205.066406 231.746094 205.015625 231.992188 203.320312 C 232.148438 202.261719 231.875 201 231.390625 200.515625 Z M 269.820312 199.550781 C 269.308594 198.214844 266.644531 197.886719 265.910156 199.074219 C 265.40625 199.890625 266.714844 200.605469 268.890625 200.707031 C 269.8125 200.75 270.128906 200.355469 269.820312 199.550781 Z M 196.046875 197.738281 C 195.222656 196.910156 194.539062 198.15625 195.21875 199.253906 C 195.730469 200.082031 195.921875 200.082031 196.195312 199.257812 C 196.386719 198.691406 196.316406 198.007812 196.046875 197.738281 Z M 227.257812 194.667969 C 227.257812 193.890625 226.476562 193.449219 225.089844 193.449219 C 223.898438 193.449219 223.167969 193.203125 223.464844 192.902344 C 224.078125 192.292969 221.710938 189.378906 220.605469 189.378906 C 219.863281 189.378906 222.996094 194.226562 224.414062 195.265625 C 225.777344 196.269531 227.257812 195.957031 227.257812 194.667969 Z M 263.835938 195.125 C 263.835938 194.164062 262.253906 193.136719 261.667969 193.71875 C 261.085938 194.300781 262.113281 195.890625 263.074219 195.890625 C 263.492188 195.890625 263.835938 195.542969 263.835938 195.125 Z M 151.503906 193.019531 C 151.25 192.769531 150.796875 193.222656 150.492188 194.023438 C 150.050781 195.183594 150.144531 195.277344 150.945312 194.480469 C 151.503906 193.925781 151.753906 193.269531 151.503906 193.019531 Z M 187.335938 192.621094 C 194.894531 192.609375 197.496094 191.8125 195.734375 190.046875 C 195.167969 189.484375 193.898438 189.007812 192.914062 188.996094 C 191.3125 188.976562 191.148438 188.605469 191.367188 185.515625 C 191.597656 182.265625 191.484375 182.058594 189.492188 182.058594 C 187.589844 182.058594 187.464844 182.234375 188.277344 183.753906 C 189.308594 185.6875 189.289062 185.726562 186.820312 186.484375 C 185.378906 186.929688 185.097656 186.78125 185.484375 185.773438 C 186.023438 184.367188 185.550781 184.261719 181.910156 184.992188 C 179.734375 185.425781 178.777344 186.59375 178.1875 189.515625 C 177.972656 190.585938 176.878906 191.230469 175.121094 191.320312 C 174.140625 191.371094 173.164062 191.929688 172.953125 192.558594 C 172.648438 193.480469 173.324219 193.597656 176.457031 193.167969 C 178.589844 192.875 183.484375 192.628906 187.335938 192.621094 Z M 121.402344 190.128906 C 121.625 188.222656 121.59375 188.210938 120.386719 189.738281 C 118.882812 191.652344 118.777344 192.890625 120.160156 192.433594 C 120.71875 192.25 121.277344 191.214844 121.402344 190.128906 Z M 202.054688 191.007812 C 202.054688 190.042969 200.644531 190.042969 198.398438 191.007812 C 197.035156 191.59375 197.199219 191.714844 199.414062 191.765625 C 200.867188 191.796875 202.054688 191.453125 202.054688 191.007812 Z M 171.167969 190.195312 C 171.167969 189.746094 171.007812 189.378906 170.808594 189.378906 C 170.613281 189.378906 170.226562 189.746094 169.949219 190.195312 C 169.671875 190.640625 169.832031 191.007812 170.308594 191.007812 C 170.78125 191.007812 171.167969 190.640625 171.167969 190.195312 Z M 259.519531 188.78125 C 258.269531 187.527344 258.144531 187.523438 258.144531 188.730469 C 258.144531 189.460938 258.601562 190.222656 259.164062 190.421875 C 260.824219 191.015625 260.988281 190.25 259.519531 188.78125 Z M 219.128906 188.566406 C 219.128906 188.117188 218.375 187.753906 217.453125 187.753906 C 216.535156 187.753906 216.007812 188.117188 216.285156 188.566406 C 216.558594 189.015625 217.3125 189.378906 217.957031 189.378906 C 218.601562 189.378906 219.128906 189.015625 219.128906 188.566406 Z M 124.023438 185.652344 C 124.023438 184.214844 122.273438 184.464844 121.769531 185.972656 C 121.59375 186.503906 122.027344 186.9375 122.734375 186.9375 C 123.441406 186.9375 124.023438 186.359375 124.023438 185.652344 Z M 161.785156 186.179688 C 162.042969 185.765625 161.882812 185.195312 161.425781 184.914062 C 160.972656 184.632812 160.601562 184.972656 160.601562 185.671875 C 160.601562 187.101562 161.089844 187.308594 161.785156 186.179688 Z M 130.683594 180.257812 L 132.21875 178.050781 L 129.746094 178.914062 C 126.664062 179.988281 126.273438 180.613281 126.957031 183.34375 C 127.457031 185.335938 127.570312 185.386719 128.324219 183.988281 C 128.777344 183.152344 129.839844 181.472656 130.683594 180.257812 Z M 255.183594 184.753906 C 255.765625 184.167969 250.164062 177.988281 249.050781 177.988281 C 248.347656 177.988281 253.390625 185.179688 254.148438 185.261719 C 254.410156 185.289062 254.875 185.058594 255.183594 184.753906 Z M 178.164062 181.464844 C 177.335938 180.636719 176.65625 181.882812 177.332031 182.980469 C 177.847656 183.808594 178.039062 183.808594 178.3125 182.984375 C 178.5 182.417969 178.433594 181.734375 178.164062 181.464844 Z M 197.183594 182.84375 C 197.183594 181.871094 194.890625 180.828125 194.21875 181.496094 C 193.507812 182.207031 194.714844 183.683594 196.011719 183.683594 C 196.65625 183.683594 197.183594 183.308594 197.183594 182.84375 Z M 165.328125 180.480469 C 165.53125 179.871094 165.226562 179.566406 164.617188 179.769531 C 164.03125 179.964844 163.390625 180.605469 163.195312 181.191406 C 162.992188 181.804688 163.296875 182.109375 163.90625 181.90625 C 164.492188 181.707031 165.132812 181.066406 165.328125 180.480469 Z M 170.8125 176.792969 C 172.359375 175.625 172.355469 175.597656 170.660156 175.574219 C 169.710938 175.558594 168.476562 176.097656 167.917969 176.769531 C 166.539062 178.433594 168.621094 178.453125 170.8125 176.792969 Z M 199.007812 175.921875 C 199.785156 175.621094 200.222656 175.046875 199.972656 174.648438 C 199.707031 174.21875 198.9375 174.230469 198.105469 174.675781 C 197.292969 175.109375 196.203125 175.132812 195.550781 174.730469 C 194.925781 174.34375 193.390625 174.230469 192.140625 174.484375 C 189.886719 174.933594 189.867188 174.898438 189.867188 170.769531 C 189.867188 168.472656 189.5 166.597656 189.054688 166.597656 C 188.605469 166.597656 188.242188 166.964844 188.242188 167.410156 C 188.242188 167.859375 187.691406 168.226562 187.023438 168.226562 C 185.222656 168.226562 185.539062 166.515625 187.429688 166.019531 C 189.074219 165.589844 189.472656 164.84375 188.542969 163.917969 C 187.707031 163.082031 183.519531 165.644531 182.988281 167.320312 C 182.652344 168.378906 181.988281 168.738281 180.898438 168.453125 C 179.828125 168.175781 179.300781 168.441406 179.300781 169.261719 C 179.300781 169.9375 178.75 170.703125 178.082031 170.960938 C 175.132812 172.09375 177.25 174.726562 182.503906 176.457031 C 184.753906 177.199219 196.691406 176.8125 199.007812 175.921875 Z M 186.617188 174.734375 C 186.617188 174.285156 187.164062 173.921875 187.835938 173.921875 C 188.503906 173.921875 189.054688 174.285156 189.054688 174.734375 C 189.054688 175.183594 188.503906 175.546875 187.835938 175.546875 C 187.164062 175.546875 186.617188 175.183594 186.617188 174.734375 Z M 136.308594 171.277344 C 137.359375 169.359375 136.109375 169.46875 133.496094 171.527344 C 131.769531 172.886719 131.558594 173.417969 132.371094 174.328125 C 133.429688 175.511719 134.390625 174.765625 136.308594 171.277344 Z M 202.871094 169.667969 C 202.871094 164.507812 202.441406 164.839844 201.804688 170.488281 C 201.503906 173.140625 201.617188 174.601562 202.09375 174.304688 C 202.523438 174.042969 202.871094 171.953125 202.871094 169.667969 Z M 195.765625 166.394531 C 195.972656 165.835938 195.871094 164.644531 195.53125 163.75 C 194.96875 162.257812 194.871094 162.242188 194.339844 163.546875 C 194.019531 164.328125 193.246094 164.96875 192.625 164.96875 C 191.003906 164.96875 191.226562 166.410156 192.914062 166.851562 C 195.269531 167.464844 195.367188 167.449219 195.765625 166.394531 Z M 182.957031 163.34375 C 183.234375 162.894531 182.910156 162.53125 182.242188 162.53125 C 181.570312 162.53125 180.796875 162.894531 180.519531 163.34375 C 180.242188 163.789062 180.566406 164.15625 181.234375 164.15625 C 181.90625 164.15625 182.679688 163.789062 182.957031 163.34375 Z M 238.640625 163.796875 C 238.640625 162.9375 237.078125 162.578125 236.613281 163.328125 C 236.335938 163.785156 236.675781 164.15625 237.371094 164.15625 C 238.070312 164.15625 238.640625 163.996094 238.640625 163.796875 Z M 156.539062 157.648438 C 154.929688 156.605469 148.410156 156.605469 148.410156 157.648438 C 148.410156 158.097656 150.503906 158.457031 153.085938 158.449219 C 156.402344 158.441406 157.40625 158.207031 156.539062 157.648438 Z M 188.445312 156.457031 C 188.234375 155.355469 187.644531 154.53125 187.136719 154.625 C 186.519531 154.742188 186.289062 153.5 186.453125 150.933594 C 186.722656 146.632812 186.320312 146.25 184.234375 148.828125 C 182.921875 150.449219 180.320312 150.332031 181.332031 148.699219 C 181.570312 148.3125 181.394531 147.765625 180.9375 147.484375 C 180.484375 147.203125 180.113281 147.335938 180.113281 147.78125 C 180.113281 148.222656 179.417969 148.808594 178.570312 149.078125 C 177.550781 149.402344 176.921875 150.519531 176.703125 152.398438 C 176.433594 154.699219 176.738281 155.472656 178.332031 156.515625 C 179.410156 157.222656 181.175781 157.632812 182.253906 157.425781 C 183.332031 157.222656 184.410156 157.371094 184.648438 157.757812 C 184.890625 158.144531 185.925781 158.460938 186.957031 158.460938 C 188.507812 158.460938 188.761719 158.117188 188.445312 156.457031 Z M 223.398438 157.921875 C 222.839844 157.695312 221.921875 157.695312 221.363281 157.921875 C 220.804688 158.148438 221.261719 158.332031 222.382812 158.332031 C 223.5 158.332031 223.957031 158.148438 223.398438 157.921875 Z M 201.679688 154.699219 C 203.816406 152.5625 202.628906 151.996094 200.347656 154.066406 C 199.417969 154.90625 197.464844 155.351562 194.796875 155.332031 C 191.648438 155.308594 190.679688 155.589844 190.679688 156.53125 C 190.679688 158.566406 199.242188 157.136719 201.679688 154.699219 Z M 226.445312 156.019531 C 226.445312 155.574219 226.078125 155.207031 225.632812 155.207031 C 225.1875 155.207031 224.820312 155.574219 224.820312 156.019531 C 224.820312 156.46875 225.1875 156.832031 225.632812 156.832031 C 226.078125 156.832031 226.445312 156.46875 226.445312 156.019531 Z M 175.09375 150.867188 C 175.242188 150.082031 174.835938 149.511719 174.125 149.511719 C 172.613281 149.511719 171.703125 150.835938 172.417969 151.996094 C 173.152344 153.1875 174.773438 152.5 175.09375 150.867188 Z M 191.769531 149.199219 C 192.589844 145.746094 192.089844 144.746094 190.292969 146.238281 C 188.78125 147.496094 188.574219 153.0625 190.054688 152.566406 C 190.605469 152.382812 191.378906 150.867188 191.769531 149.199219 Z M 194.496094 149.730469 C 194.289062 148.9375 194.105469 149.390625 194.089844 150.730469 C 194.074219 152.074219 194.242188 152.722656 194.464844 152.171875 C 194.6875 151.621094 194.699219 150.523438 194.496094 149.730469 Z M 174.953125 145.882812 C 174.308594 144.203125 171.171875 144.246094 171.171875 145.9375 C 171.171875 146.753906 171.621094 147.070312 172.363281 146.785156 C 173.019531 146.535156 173.789062 146.703125 174.070312 147.160156 C 174.820312 148.371094 175.519531 147.359375 174.953125 145.886719 Z M 200.027344 145.441406 C 199.75 144.996094 198.632812 144.628906 197.539062 144.628906 C 196.449219 144.628906 195.554688 144.996094 195.554688 145.441406 C 195.554688 145.890625 196.675781 146.257812 198.042969 146.257812 C 199.492188 146.257812 200.320312 145.917969 200.027344 145.441406 Z M 192.96875 139.339844 C 193.988281 137.101562 195.554688 136.605469 195.554688 138.527344 C 195.554688 139.199219 195.921875 139.746094 196.371094 139.746094 C 196.816406 139.746094 197.183594 138.644531 197.183594 137.300781 C 197.183594 135 197.070312 134.914062 195.351562 135.875 C 194.347656 136.4375 193.339844 137.125 193.117188 137.398438 C 192.894531 137.675781 191.796875 138.175781 190.679688 138.507812 L 188.648438 139.117188 L 190.476562 137.367188 C 191.824219 136.074219 192.304688 134.683594 192.304688 132.074219 C 192.304688 129.675781 192.699219 128.378906 193.523438 128.0625 C 194.792969 127.574219 195.195312 125.453125 194.132812 124.855469 C 193.796875 124.667969 192.558594 124.28125 191.382812 124 C 189.628906 123.582031 189.152344 123.820312 188.765625 125.300781 C 188.308594 127.046875 188.253906 127.058594 187.171875 125.578125 C 185.875 123.800781 185.414062 124.34375 184.652344 128.558594 C 184.160156 131.289062 183.84375 131.609375 181.652344 131.609375 C 179.316406 131.609375 179.214844 131.753906 179.453125 134.660156 C 179.679688 137.375 180.109375 137.910156 183.363281 139.511719 C 188.4375 142.003906 191.785156 141.945312 192.96875 139.339844 Z M 186.933594 133.578125 C 187.207031 132.871094 187.433594 131.679688 187.441406 130.933594 C 187.449219 129.859375 187.597656 129.808594 188.152344 130.683594 C 188.996094 132.015625 188.375 134.867188 187.246094 134.867188 C 186.804688 134.867188 186.664062 134.285156 186.933594 133.578125 Z M 200.433594 137.304688 C 200.914062 136.40625 200.96875 135.679688 200.558594 135.679688 C 200.144531 135.679688 199.617188 136.410156 199.386719 137.304688 C 199.152344 138.203125 199.097656 138.933594 199.261719 138.933594 C 199.425781 138.933594 199.953125 138.203125 200.433594 137.304688 Z M 156.09375 134.734375 C 159.039062 133.390625 158.667969 132.1875 155.523438 132.863281 C 152.363281 133.539062 152.15625 133.691406 152.847656 134.8125 C 153.511719 135.890625 153.566406 135.886719 156.09375 134.734375 Z M 176.9375 131.363281 C 176.292969 130.71875 175.777344 130.742188 175.074219 131.445312 C 174.320312 132.199219 174.457031 132.679688 175.683594 133.585938 C 177.070312 134.613281 177.300781 134.601562 177.546875 133.503906 C 177.699219 132.816406 177.425781 131.851562 176.9375 131.363281 Z M 212.371094 133.632812 C 213.988281 132.957031 215.128906 132.21875 214.902344 131.992188 C 214.679688 131.765625 212.882812 132.3125 210.917969 133.207031 C 206.761719 135.09375 208.003906 135.460938 212.371094 133.632812 Z M 204.496094 130.488281 C 204.496094 129.425781 203.925781 128.078125 203.226562 127.5 C 202.445312 126.851562 202.128906 125.746094 202.40625 124.640625 C 203.253906 121.261719 195.464844 117.988281 192.835938 120.617188 C 191.277344 122.175781 191.734375 123.472656 193.847656 123.472656 C 194.644531 123.472656 195.761719 124.480469 196.332031 125.710938 C 197.363281 127.941406 197.371094 127.945312 198.0625 126.117188 C 199.277344 122.910156 200.621094 123.988281 200.308594 127.917969 C 200.011719 131.644531 199.976562 131.601562 203.886719 132.3125 C 204.222656 132.375 204.496094 131.554688 204.496094 130.488281 Z M 182.28125 129.351562 C 184.027344 128.242188 183.832031 126.523438 181.941406 126.351562 C 180.519531 126.222656 180.113281 126.609375 180.113281 128.085938 C 180.113281 130.058594 180.664062 130.382812 182.28125 129.351562 Z M 224.007812 126.628906 C 224.007812 126.238281 223.078125 125.914062 221.945312 125.914062 C 220.113281 125.914062 219.984375 126.101562 220.78125 127.59375 C 221.5 128.9375 221.914062 129.082031 222.84375 128.308594 C 223.484375 127.777344 224.007812 127.023438 224.007812 126.628906 Z M 187.425781 115.335938 C 187.425781 114.890625 186.855469 114.523438 186.160156 114.523438 C 185.460938 114.523438 185.117188 114.890625 185.394531 115.335938 C 185.671875 115.785156 186.242188 116.152344 186.660156 116.152344 C 187.082031 116.152344 187.425781 115.785156 187.425781 115.335938 Z M 206.851562 115.03125 C 207.578125 114.15625 207.460938 113.824219 206.3125 113.523438 C 204.34375 113.007812 201.011719 114.300781 201.648438 115.332031 C 202.386719 116.527344 205.773438 116.332031 206.851562 115.03125 Z M 182.753906 114.800781 C 182.195312 114.574219 181.277344 114.574219 180.71875 114.800781 C 180.160156 115.023438 180.617188 115.210938 181.738281 115.210938 C 182.855469 115.210938 183.3125 115.023438 182.753906 114.800781 Z M 178.699219 113.507812 C 179.699219 112.949219 180.664062 112.402344 180.847656 112.296875 C 181.027344 112.1875 181.441406 110.722656 181.769531 109.039062 L 182.363281 105.980469 L 182.457031 108.625 C 182.527344 110.695312 182.902344 111.269531 184.175781 111.269531 C 185.257812 111.269531 185.800781 110.726562 185.800781 109.640625 C 185.800781 108.558594 186.34375 108.015625 187.425781 108.015625 C 188.320312 108.015625 189.050781 108.402344 189.050781 108.875 C 189.050781 109.351562 189.417969 109.511719 189.863281 109.234375 C 190.3125 108.957031 190.679688 109.332031 190.679688 110.070312 C 190.679688 110.804688 191.136719 111.246094 191.695312 111.050781 C 192.253906 110.855469 192.601562 110.089844 192.472656 109.355469 C 192.328125 108.554688 192.773438 108.015625 193.574219 108.015625 C 194.453125 108.015625 194.75 108.449219 194.433594 109.277344 C 194.164062 109.972656 194.265625 110.34375 194.652344 110.105469 C 195.519531 109.566406 197.179688 103.152344 197.179688 100.332031 C 197.179688 99.023438 197.632812 98.25 198.398438 98.25 C 200.25 98.25 199.929688 93.902344 197.945312 92.105469 C 196.632812 90.914062 196.128906 90.816406 195.617188 91.636719 C 195.191406 92.332031 194.589844 91.34375 193.863281 88.757812 L 192.757812 84.824219 L 192.269531 90.519531 C 192 93.652344 191.714844 95.046875 191.632812 93.621094 C 191.496094 91.085938 189.863281 88.855469 189.863281 91.199219 C 189.863281 91.851562 189.316406 92.59375 188.644531 92.851562 C 187.730469 93.203125 187.425781 92.714844 187.425781 90.902344 C 187.425781 87.515625 184.433594 87.5 183.257812 90.878906 C 182.671875 92.558594 182.046875 93.125 181.15625 92.785156 C 180.300781 92.453125 180.019531 92.667969 180.292969 93.441406 C 180.523438 94.097656 181.613281 94.523438 182.839844 94.4375 C 184.023438 94.351562 184.988281 94.628906 184.988281 95.046875 C 184.988281 95.464844 184.4375 95.808594 183.769531 95.808594 C 182.875 95.808594 182.515625 96.839844 182.421875 99.675781 L 182.292969 103.539062 L 181.8125 99.472656 C 181.5 96.84375 180.972656 95.476562 180.3125 95.605469 C 179.753906 95.71875 179.269531 95.535156 179.234375 95.199219 C 179.203125 94.863281 179.050781 93.949219 178.902344 93.164062 C 178.71875 92.210938 179.140625 91.742188 180.183594 91.742188 C 181.039062 91.742188 181.738281 91.375 181.738281 90.929688 C 181.738281 90.480469 180.820312 90.113281 179.703125 90.113281 C 178.035156 90.113281 177.667969 90.515625 177.644531 92.351562 C 177.621094 94.421875 177.539062 94.480469 176.503906 93.117188 C 174.949219 91.0625 174.242188 92.484375 173.570312 99.03125 L 173.027344 104.355469 L 172.84375 97.4375 L 172.664062 90.519531 L 171.433594 93.351562 C 170.558594 95.355469 170.292969 98.078125 170.515625 102.707031 C 170.761719 107.890625 170.570312 109.429688 169.578125 110.1875 C 168.890625 110.707031 168.597656 111.40625 168.929688 111.738281 C 169.753906 112.5625 172.792969 109.703125 172.808594 108.09375 C 172.816406 106.957031 172.917969 106.945312 173.621094 108.015625 C 174.332031 109.097656 174.507812 109.097656 175.222656 108.015625 C 175.660156 107.34375 176.027344 106.304688 176.035156 105.710938 C 176.050781 104.371094 177.84375 104.867188 178.335938 106.347656 C 178.550781 106.992188 178.324219 107.199219 177.777344 106.859375 C 176.882812 106.304688 176.679688 107.011719 176.585938 111.066406 C 176.554688 112.421875 176.058594 112.898438 174.667969 112.898438 C 173.636719 112.898438 172.796875 113.261719 172.796875 113.710938 C 172.796875 114.851562 176.523438 114.722656 178.699219 113.507812 Z M 191.554688 97.777344 C 191.59375 96.828125 191.785156 96.636719 192.046875 97.285156 C 192.28125 97.871094 192.25 98.574219 191.980469 98.84375 C 191.710938 99.113281 191.519531 98.632812 191.554688 97.777344 Z M 140.6875 112.082031 C 140.410156 111.636719 139.820312 111.269531 139.371094 111.269531 C 138.925781 111.269531 138.785156 111.636719 139.0625 112.082031 C 139.335938 112.53125 139.929688 112.898438 140.375 112.898438 C 140.824219 112.898438 140.964844 112.53125 140.6875 112.082031 Z M 165.417969 109.085938 C 164.847656 107.378906 164.332031 102.707031 164.273438 98.710938 C 164.199219 93.890625 163.835938 91.328125 163.195312 91.117188 C 161.761719 90.636719 161.875 104.699219 163.324219 106.816406 C 163.929688 107.699219 164.679688 109.472656 164.992188 110.753906 C 165.304688 112.039062 165.757812 112.886719 166.007812 112.640625 C 166.253906 112.394531 165.988281 110.792969 165.417969 109.085938 Z M 197.992188 111.675781 C 197.992188 111.003906 197.851562 110.457031 197.675781 110.457031 C 197.5 110.457031 197.144531 111.003906 196.886719 111.675781 C 196.628906 112.347656 196.773438 112.898438 197.207031 112.898438 C 197.640625 112.898438 197.992188 112.347656 197.992188 111.675781 Z M 209.375 112.082031 C 209.375 111.636719 209.210938 111.269531 209.015625 111.269531 C 208.816406 111.269531 208.429688 111.636719 208.15625 112.082031 C 207.878906 112.53125 208.039062 112.898438 208.511719 112.898438 C 208.984375 112.898438 209.375 112.53125 209.375 112.082031 Z M 199.621094 106.339844 C 199.621094 105.417969 199.253906 104.890625 198.804688 105.167969 C 198.359375 105.445312 197.992188 106.199219 197.992188 106.84375 C 197.992188 107.488281 198.359375 108.015625 198.804688 108.015625 C 199.253906 108.015625 199.621094 107.261719 199.621094 106.339844 Z M 238.488281 105.308594 C 238.765625 102.953125 237.496094 102.324219 236.691406 104.417969 C 235.878906 106.539062 236.132812 108.171875 237.214844 107.816406 C 237.773438 107.632812 238.347656 106.503906 238.488281 105.308594 Z M 168.175781 97.882812 C 168.394531 93.878906 168.273438 91.132812 167.914062 91.78125 C 167.125 93.195312 166.742188 98.101562 167.027344 103.132812 C 167.316406 108.25 167.714844 106.417969 168.175781 97.882812 Z M 203.082031 103.042969 C 202.476562 100.726562 202.054688 101.191406 202.070312 104.148438 C 202.078125 105.949219 202.308594 106.441406 202.785156 105.6875 C 203.167969 105.078125 203.304688 103.886719 203.082031 103.042969 Z M 207.496094 102.539062 C 207.292969 101.746094 207.109375 102.195312 207.09375 103.539062 C 207.078125 104.882812 207.246094 105.53125 207.46875 104.980469 C 207.691406 104.429688 207.703125 103.328125 207.5 102.539062 Z M 129.707031 99.574219 L 127.917969 97.84375 L 128.507812 99.878906 C 128.832031 100.996094 129.511719 102.425781 130.015625 103.054688 C 130.785156 104.015625 130.976562 103.96875 131.214844 102.75 C 131.371094 101.953125 130.691406 100.523438 129.707031 99.574219 Z M 241.886719 100.238281 C 241.886719 99.539062 241.515625 99.199219 241.058594 99.480469 C 240.605469 99.761719 240.445312 100.332031 240.703125 100.75 C 241.398438 101.875 241.886719 101.667969 241.886719 100.238281 Z M 207.488281 98.097656 C 207.230469 97.449219 207.035156 97.640625 206.996094 98.589844 C 206.960938 99.449219 207.152344 99.929688 207.425781 99.65625 C 207.695312 99.386719 207.722656 98.6875 207.488281 98.097656 Z M 203.667969 96.011719 C 203.664062 94.78125 203.300781 93.226562 202.867188 92.554688 C 202.292969 91.660156 202.078125 92.261719 202.070312 94.792969 C 202.0625 96.695312 202.421875 98.25 202.867188 98.25 C 203.316406 98.25 203.675781 97.242188 203.667969 96.011719 Z M 201.722656 86.253906 C 200.832031 85.363281 200.222656 86.777344 200.863281 88.25 C 201.464844 89.644531 201.511719 89.640625 201.847656 88.21875 C 202.042969 87.402344 201.984375 86.515625 201.722656 86.253906 Z M 245.691406 85.894531 C 245.433594 85.246094 245.242188 85.4375 245.203125 86.386719 C 245.167969 87.242188 245.359375 87.722656 245.628906 87.453125 C 245.898438 87.183594 245.929688 86.480469 245.691406 85.894531 Z M 196.382812 82.015625 C 195.851562 80.738281 194.628906 79.480469 193.65625 79.21875 C 190.917969 78.484375 188.238281 78.640625 188.238281 79.539062 C 188.238281 79.984375 187.324219 80.351562 186.207031 80.351562 C 184.941406 80.351562 184.171875 79.890625 184.171875 79.128906 C 184.171875 77.519531 182.855469 77.5625 182.226562 79.195312 C 180.894531 82.671875 181.429688 82.976562 188.238281 82.667969 C 192.453125 82.476562 194.742188 82.675781 194.742188 83.234375 C 194.742188 83.707031 195.191406 84.546875 195.746094 85.101562 C 197.203125 86.558594 197.554688 84.847656 196.382812 82.015625 Z M 180.015625 79.285156 C 179.941406 77.910156 179.835938 77.828125 179.546875 78.925781 C 179.34375 79.710938 178.816406 80.351562 178.375 80.351562 C 177.933594 80.351562 177.804688 80.722656 178.085938 81.179688 C 178.882812 82.472656 180.121094 81.257812 180.015625 79.285156 Z M 122.558594 80.1875 C 121.800781 79.429688 121.367188 79.429688 120.609375 80.1875 C 119.847656 80.949219 120.066406 81.164062 121.582031 81.164062 C 123.101562 81.164062 123.316406 80.949219 122.558594 80.1875 Z M 175.421875 76.960938 C 174.894531 76.429688 173.925781 76.335938 173.050781 76.722656 C 171.726562 77.316406 171.765625 77.414062 173.4375 77.707031 C 174.894531 77.960938 175.203125 78.421875 174.855469 79.800781 C 174.429688 81.496094 174.453125 81.492188 175.363281 79.714844 C 176.058594 78.363281 176.074219 77.613281 175.421875 76.960938 Z M 175.421875 76.960938 " fill-opacity="1" fill-rule="nonzero"/></svg>